G04 #@! TF.GenerationSoftware,KiCad,Pcbnew,(5.1.0-0)*
G04 #@! TF.CreationDate,2019-09-18T13:26:03-04:00*
G04 #@! TF.ProjectId,openlst-hw,6f70656e-6c73-4742-9d68-772e6b696361,1*
G04 #@! TF.SameCoordinates,Original*
G04 #@! TF.FileFunction,Legend,Bot*
G04 #@! TF.FilePolarity,Positive*
%FSLAX46Y46*%
G04 Gerber Fmt 4.6, Leading zero omitted, Abs format (unit mm)*
G04 Created by KiCad (PCBNEW (5.1.0-0)) date 2019-09-18 13:26:03*
%MOMM*%
%LPD*%
G04 APERTURE LIST*
%ADD10C,0.150000*%
%ADD11C,0.450000*%
G04 APERTURE END LIST*
D10*
X161807261Y-41302380D02*
X161235833Y-41302380D01*
X161521547Y-42302380D02*
X161521547Y-41302380D01*
X160902500Y-42302380D02*
X160902500Y-41302380D01*
X160473928Y-42302380D02*
X160473928Y-41778571D01*
X160521547Y-41683333D01*
X160616785Y-41635714D01*
X160759642Y-41635714D01*
X160854880Y-41683333D01*
X160902500Y-41730952D01*
X159997738Y-42302380D02*
X159997738Y-41635714D01*
X159997738Y-41302380D02*
X160045357Y-41350000D01*
X159997738Y-41397619D01*
X159950119Y-41350000D01*
X159997738Y-41302380D01*
X159997738Y-41397619D01*
X159569166Y-42254761D02*
X159473928Y-42302380D01*
X159283452Y-42302380D01*
X159188214Y-42254761D01*
X159140595Y-42159523D01*
X159140595Y-42111904D01*
X159188214Y-42016666D01*
X159283452Y-41969047D01*
X159426309Y-41969047D01*
X159521547Y-41921428D01*
X159569166Y-41826190D01*
X159569166Y-41778571D01*
X159521547Y-41683333D01*
X159426309Y-41635714D01*
X159283452Y-41635714D01*
X159188214Y-41683333D01*
X158045357Y-41635714D02*
X157854880Y-42302380D01*
X157664404Y-41826190D01*
X157473928Y-42302380D01*
X157283452Y-41635714D01*
X156759642Y-42302380D02*
X156854880Y-42254761D01*
X156902500Y-42207142D01*
X156950119Y-42111904D01*
X156950119Y-41826190D01*
X156902500Y-41730952D01*
X156854880Y-41683333D01*
X156759642Y-41635714D01*
X156616785Y-41635714D01*
X156521547Y-41683333D01*
X156473928Y-41730952D01*
X156426309Y-41826190D01*
X156426309Y-42111904D01*
X156473928Y-42207142D01*
X156521547Y-42254761D01*
X156616785Y-42302380D01*
X156759642Y-42302380D01*
X155997738Y-42302380D02*
X155997738Y-41635714D01*
X155997738Y-41826190D02*
X155950119Y-41730952D01*
X155902500Y-41683333D01*
X155807261Y-41635714D01*
X155712023Y-41635714D01*
X155378690Y-42302380D02*
X155378690Y-41302380D01*
X155283452Y-41921428D02*
X154997738Y-42302380D01*
X154997738Y-41635714D02*
X155378690Y-42016666D01*
X153807261Y-42302380D02*
X153807261Y-41635714D01*
X153807261Y-41302380D02*
X153854880Y-41350000D01*
X153807261Y-41397619D01*
X153759642Y-41350000D01*
X153807261Y-41302380D01*
X153807261Y-41397619D01*
X153378690Y-42254761D02*
X153283452Y-42302380D01*
X153092976Y-42302380D01*
X152997738Y-42254761D01*
X152950119Y-42159523D01*
X152950119Y-42111904D01*
X152997738Y-42016666D01*
X153092976Y-41969047D01*
X153235833Y-41969047D01*
X153331071Y-41921428D01*
X153378690Y-41826190D01*
X153378690Y-41778571D01*
X153331071Y-41683333D01*
X153235833Y-41635714D01*
X153092976Y-41635714D01*
X152997738Y-41683333D01*
X151616785Y-42302380D02*
X151712023Y-42254761D01*
X151759642Y-42159523D01*
X151759642Y-41302380D01*
X151235833Y-42302380D02*
X151235833Y-41635714D01*
X151235833Y-41302380D02*
X151283452Y-41350000D01*
X151235833Y-41397619D01*
X151188214Y-41350000D01*
X151235833Y-41302380D01*
X151235833Y-41397619D01*
X150331071Y-42254761D02*
X150426309Y-42302380D01*
X150616785Y-42302380D01*
X150712023Y-42254761D01*
X150759642Y-42207142D01*
X150807261Y-42111904D01*
X150807261Y-41826190D01*
X150759642Y-41730952D01*
X150712023Y-41683333D01*
X150616785Y-41635714D01*
X150426309Y-41635714D01*
X150331071Y-41683333D01*
X149521547Y-42254761D02*
X149616785Y-42302380D01*
X149807261Y-42302380D01*
X149902500Y-42254761D01*
X149950119Y-42159523D01*
X149950119Y-41778571D01*
X149902500Y-41683333D01*
X149807261Y-41635714D01*
X149616785Y-41635714D01*
X149521547Y-41683333D01*
X149473928Y-41778571D01*
X149473928Y-41873809D01*
X149950119Y-41969047D01*
X149045357Y-41635714D02*
X149045357Y-42302380D01*
X149045357Y-41730952D02*
X148997738Y-41683333D01*
X148902500Y-41635714D01*
X148759642Y-41635714D01*
X148664404Y-41683333D01*
X148616785Y-41778571D01*
X148616785Y-42302380D01*
X148188214Y-42254761D02*
X148092976Y-42302380D01*
X147902500Y-42302380D01*
X147807261Y-42254761D01*
X147759642Y-42159523D01*
X147759642Y-42111904D01*
X147807261Y-42016666D01*
X147902500Y-41969047D01*
X148045357Y-41969047D01*
X148140595Y-41921428D01*
X148188214Y-41826190D01*
X148188214Y-41778571D01*
X148140595Y-41683333D01*
X148045357Y-41635714D01*
X147902500Y-41635714D01*
X147807261Y-41683333D01*
X146950119Y-42254761D02*
X147045357Y-42302380D01*
X147235833Y-42302380D01*
X147331071Y-42254761D01*
X147378690Y-42159523D01*
X147378690Y-41778571D01*
X147331071Y-41683333D01*
X147235833Y-41635714D01*
X147045357Y-41635714D01*
X146950119Y-41683333D01*
X146902500Y-41778571D01*
X146902500Y-41873809D01*
X147378690Y-41969047D01*
X146045357Y-42302380D02*
X146045357Y-41302380D01*
X146045357Y-42254761D02*
X146140595Y-42302380D01*
X146331071Y-42302380D01*
X146426309Y-42254761D01*
X146473928Y-42207142D01*
X146521547Y-42111904D01*
X146521547Y-41826190D01*
X146473928Y-41730952D01*
X146426309Y-41683333D01*
X146331071Y-41635714D01*
X146140595Y-41635714D01*
X146045357Y-41683333D01*
X144378690Y-41635714D02*
X144378690Y-42302380D01*
X144807261Y-41635714D02*
X144807261Y-42159523D01*
X144759642Y-42254761D01*
X144664404Y-42302380D01*
X144521547Y-42302380D01*
X144426309Y-42254761D01*
X144378690Y-42207142D01*
X143902500Y-41635714D02*
X143902500Y-42302380D01*
X143902500Y-41730952D02*
X143854880Y-41683333D01*
X143759642Y-41635714D01*
X143616785Y-41635714D01*
X143521547Y-41683333D01*
X143473928Y-41778571D01*
X143473928Y-42302380D01*
X142569166Y-42302380D02*
X142569166Y-41302380D01*
X142569166Y-42254761D02*
X142664404Y-42302380D01*
X142854880Y-42302380D01*
X142950119Y-42254761D01*
X142997738Y-42207142D01*
X143045357Y-42111904D01*
X143045357Y-41826190D01*
X142997738Y-41730952D01*
X142950119Y-41683333D01*
X142854880Y-41635714D01*
X142664404Y-41635714D01*
X142569166Y-41683333D01*
X141712023Y-42254761D02*
X141807261Y-42302380D01*
X141997738Y-42302380D01*
X142092976Y-42254761D01*
X142140595Y-42159523D01*
X142140595Y-41778571D01*
X142092976Y-41683333D01*
X141997738Y-41635714D01*
X141807261Y-41635714D01*
X141712023Y-41683333D01*
X141664404Y-41778571D01*
X141664404Y-41873809D01*
X142140595Y-41969047D01*
X141235833Y-42302380D02*
X141235833Y-41635714D01*
X141235833Y-41826190D02*
X141188214Y-41730952D01*
X141140595Y-41683333D01*
X141045357Y-41635714D01*
X140950119Y-41635714D01*
X139426309Y-42302380D02*
X139426309Y-41778571D01*
X139473928Y-41683333D01*
X139569166Y-41635714D01*
X139759642Y-41635714D01*
X139854880Y-41683333D01*
X139426309Y-42254761D02*
X139521547Y-42302380D01*
X139759642Y-42302380D01*
X139854880Y-42254761D01*
X139902500Y-42159523D01*
X139902500Y-42064285D01*
X139854880Y-41969047D01*
X139759642Y-41921428D01*
X139521547Y-41921428D01*
X139426309Y-41873809D01*
X161092976Y-43857142D02*
X161140595Y-43904761D01*
X161283452Y-43952380D01*
X161378690Y-43952380D01*
X161521547Y-43904761D01*
X161616785Y-43809523D01*
X161664404Y-43714285D01*
X161712023Y-43523809D01*
X161712023Y-43380952D01*
X161664404Y-43190476D01*
X161616785Y-43095238D01*
X161521547Y-43000000D01*
X161378690Y-42952380D01*
X161283452Y-42952380D01*
X161140595Y-43000000D01*
X161092976Y-43047619D01*
X160664404Y-43952380D02*
X160664404Y-43285714D01*
X160664404Y-43476190D02*
X160616785Y-43380952D01*
X160569166Y-43333333D01*
X160473928Y-43285714D01*
X160378690Y-43285714D01*
X159664404Y-43904761D02*
X159759642Y-43952380D01*
X159950119Y-43952380D01*
X160045357Y-43904761D01*
X160092976Y-43809523D01*
X160092976Y-43428571D01*
X160045357Y-43333333D01*
X159950119Y-43285714D01*
X159759642Y-43285714D01*
X159664404Y-43333333D01*
X159616785Y-43428571D01*
X159616785Y-43523809D01*
X160092976Y-43619047D01*
X158759642Y-43952380D02*
X158759642Y-43428571D01*
X158807261Y-43333333D01*
X158902500Y-43285714D01*
X159092976Y-43285714D01*
X159188214Y-43333333D01*
X158759642Y-43904761D02*
X158854880Y-43952380D01*
X159092976Y-43952380D01*
X159188214Y-43904761D01*
X159235833Y-43809523D01*
X159235833Y-43714285D01*
X159188214Y-43619047D01*
X159092976Y-43571428D01*
X158854880Y-43571428D01*
X158759642Y-43523809D01*
X158426309Y-43285714D02*
X158045357Y-43285714D01*
X158283452Y-42952380D02*
X158283452Y-43809523D01*
X158235833Y-43904761D01*
X158140595Y-43952380D01*
X158045357Y-43952380D01*
X157712023Y-43952380D02*
X157712023Y-43285714D01*
X157712023Y-42952380D02*
X157759642Y-43000000D01*
X157712023Y-43047619D01*
X157664404Y-43000000D01*
X157712023Y-42952380D01*
X157712023Y-43047619D01*
X157331071Y-43285714D02*
X157092976Y-43952380D01*
X156854880Y-43285714D01*
X156092976Y-43904761D02*
X156188214Y-43952380D01*
X156378690Y-43952380D01*
X156473928Y-43904761D01*
X156521547Y-43809523D01*
X156521547Y-43428571D01*
X156473928Y-43333333D01*
X156378690Y-43285714D01*
X156188214Y-43285714D01*
X156092976Y-43333333D01*
X156045357Y-43428571D01*
X156045357Y-43523809D01*
X156521547Y-43619047D01*
X154283452Y-43857142D02*
X154331071Y-43904761D01*
X154473928Y-43952380D01*
X154569166Y-43952380D01*
X154712023Y-43904761D01*
X154807261Y-43809523D01*
X154854880Y-43714285D01*
X154902500Y-43523809D01*
X154902500Y-43380952D01*
X154854880Y-43190476D01*
X154807261Y-43095238D01*
X154712023Y-43000000D01*
X154569166Y-42952380D01*
X154473928Y-42952380D01*
X154331071Y-43000000D01*
X154283452Y-43047619D01*
X153712023Y-43952380D02*
X153807261Y-43904761D01*
X153854880Y-43857142D01*
X153902500Y-43761904D01*
X153902500Y-43476190D01*
X153854880Y-43380952D01*
X153807261Y-43333333D01*
X153712023Y-43285714D01*
X153569166Y-43285714D01*
X153473928Y-43333333D01*
X153426309Y-43380952D01*
X153378690Y-43476190D01*
X153378690Y-43761904D01*
X153426309Y-43857142D01*
X153473928Y-43904761D01*
X153569166Y-43952380D01*
X153712023Y-43952380D01*
X152950119Y-43952380D02*
X152950119Y-43285714D01*
X152950119Y-43380952D02*
X152902500Y-43333333D01*
X152807261Y-43285714D01*
X152664404Y-43285714D01*
X152569166Y-43333333D01*
X152521547Y-43428571D01*
X152521547Y-43952380D01*
X152521547Y-43428571D02*
X152473928Y-43333333D01*
X152378690Y-43285714D01*
X152235833Y-43285714D01*
X152140595Y-43333333D01*
X152092976Y-43428571D01*
X152092976Y-43952380D01*
X151616785Y-43952380D02*
X151616785Y-43285714D01*
X151616785Y-43380952D02*
X151569166Y-43333333D01*
X151473928Y-43285714D01*
X151331071Y-43285714D01*
X151235833Y-43333333D01*
X151188214Y-43428571D01*
X151188214Y-43952380D01*
X151188214Y-43428571D02*
X151140595Y-43333333D01*
X151045357Y-43285714D01*
X150902500Y-43285714D01*
X150807261Y-43333333D01*
X150759642Y-43428571D01*
X150759642Y-43952380D01*
X150140595Y-43952380D02*
X150235833Y-43904761D01*
X150283452Y-43857142D01*
X150331071Y-43761904D01*
X150331071Y-43476190D01*
X150283452Y-43380952D01*
X150235833Y-43333333D01*
X150140595Y-43285714D01*
X149997738Y-43285714D01*
X149902500Y-43333333D01*
X149854880Y-43380952D01*
X149807261Y-43476190D01*
X149807261Y-43761904D01*
X149854880Y-43857142D01*
X149902500Y-43904761D01*
X149997738Y-43952380D01*
X150140595Y-43952380D01*
X149378690Y-43285714D02*
X149378690Y-43952380D01*
X149378690Y-43380952D02*
X149331071Y-43333333D01*
X149235833Y-43285714D01*
X149092976Y-43285714D01*
X148997738Y-43333333D01*
X148950119Y-43428571D01*
X148950119Y-43952380D01*
X148521547Y-43904761D02*
X148426309Y-43952380D01*
X148235833Y-43952380D01*
X148140595Y-43904761D01*
X148092976Y-43809523D01*
X148092976Y-43761904D01*
X148140595Y-43666666D01*
X148235833Y-43619047D01*
X148378690Y-43619047D01*
X148473928Y-43571428D01*
X148521547Y-43476190D01*
X148521547Y-43428571D01*
X148473928Y-43333333D01*
X148378690Y-43285714D01*
X148235833Y-43285714D01*
X148140595Y-43333333D01*
X146950119Y-43666666D02*
X146473928Y-43666666D01*
X147045357Y-43952380D02*
X146712023Y-42952380D01*
X146378690Y-43952380D01*
X146188214Y-43285714D02*
X145807261Y-43285714D01*
X146045357Y-42952380D02*
X146045357Y-43809523D01*
X145997738Y-43904761D01*
X145902500Y-43952380D01*
X145807261Y-43952380D01*
X145616785Y-43285714D02*
X145235833Y-43285714D01*
X145473928Y-42952380D02*
X145473928Y-43809523D01*
X145426309Y-43904761D01*
X145331071Y-43952380D01*
X145235833Y-43952380D01*
X144902500Y-43952380D02*
X144902500Y-43285714D01*
X144902500Y-43476190D02*
X144854880Y-43380952D01*
X144807261Y-43333333D01*
X144712023Y-43285714D01*
X144616785Y-43285714D01*
X144283452Y-43952380D02*
X144283452Y-43285714D01*
X144283452Y-42952380D02*
X144331071Y-43000000D01*
X144283452Y-43047619D01*
X144235833Y-43000000D01*
X144283452Y-42952380D01*
X144283452Y-43047619D01*
X143807261Y-43952380D02*
X143807261Y-42952380D01*
X143807261Y-43333333D02*
X143712023Y-43285714D01*
X143521547Y-43285714D01*
X143426309Y-43333333D01*
X143378690Y-43380952D01*
X143331071Y-43476190D01*
X143331071Y-43761904D01*
X143378690Y-43857142D01*
X143426309Y-43904761D01*
X143521547Y-43952380D01*
X143712023Y-43952380D01*
X143807261Y-43904761D01*
X142473928Y-43285714D02*
X142473928Y-43952380D01*
X142902500Y-43285714D02*
X142902500Y-43809523D01*
X142854880Y-43904761D01*
X142759642Y-43952380D01*
X142616785Y-43952380D01*
X142521547Y-43904761D01*
X142473928Y-43857142D01*
X142140595Y-43285714D02*
X141759642Y-43285714D01*
X141997738Y-42952380D02*
X141997738Y-43809523D01*
X141950119Y-43904761D01*
X141854880Y-43952380D01*
X141759642Y-43952380D01*
X141426309Y-43952380D02*
X141426309Y-43285714D01*
X141426309Y-42952380D02*
X141473928Y-43000000D01*
X141426309Y-43047619D01*
X141378690Y-43000000D01*
X141426309Y-42952380D01*
X141426309Y-43047619D01*
X140807261Y-43952380D02*
X140902500Y-43904761D01*
X140950119Y-43857142D01*
X140997738Y-43761904D01*
X140997738Y-43476190D01*
X140950119Y-43380952D01*
X140902500Y-43333333D01*
X140807261Y-43285714D01*
X140664404Y-43285714D01*
X140569166Y-43333333D01*
X140521547Y-43380952D01*
X140473928Y-43476190D01*
X140473928Y-43761904D01*
X140521547Y-43857142D01*
X140569166Y-43904761D01*
X140664404Y-43952380D01*
X140807261Y-43952380D01*
X140045357Y-43285714D02*
X140045357Y-43952380D01*
X140045357Y-43380952D02*
X139997738Y-43333333D01*
X139902500Y-43285714D01*
X139759642Y-43285714D01*
X139664404Y-43333333D01*
X139616785Y-43428571D01*
X139616785Y-43952380D01*
X139140595Y-43571428D02*
X138378690Y-43571428D01*
X137950119Y-43904761D02*
X137807261Y-43952380D01*
X137569166Y-43952380D01*
X137473928Y-43904761D01*
X137426309Y-43857142D01*
X137378690Y-43761904D01*
X137378690Y-43666666D01*
X137426309Y-43571428D01*
X137473928Y-43523809D01*
X137569166Y-43476190D01*
X137759642Y-43428571D01*
X137854880Y-43380952D01*
X137902500Y-43333333D01*
X137950119Y-43238095D01*
X137950119Y-43142857D01*
X137902500Y-43047619D01*
X137854880Y-43000000D01*
X137759642Y-42952380D01*
X137521547Y-42952380D01*
X137378690Y-43000000D01*
X136950119Y-43952380D02*
X136950119Y-42952380D01*
X136521547Y-43952380D02*
X136521547Y-43428571D01*
X136569166Y-43333333D01*
X136664404Y-43285714D01*
X136807261Y-43285714D01*
X136902500Y-43333333D01*
X136950119Y-43380952D01*
X135616785Y-43952380D02*
X135616785Y-43428571D01*
X135664404Y-43333333D01*
X135759642Y-43285714D01*
X135950119Y-43285714D01*
X136045357Y-43333333D01*
X135616785Y-43904761D02*
X135712023Y-43952380D01*
X135950119Y-43952380D01*
X136045357Y-43904761D01*
X136092976Y-43809523D01*
X136092976Y-43714285D01*
X136045357Y-43619047D01*
X135950119Y-43571428D01*
X135712023Y-43571428D01*
X135616785Y-43523809D01*
X135140595Y-43952380D02*
X135140595Y-43285714D01*
X135140595Y-43476190D02*
X135092976Y-43380952D01*
X135045357Y-43333333D01*
X134950119Y-43285714D01*
X134854880Y-43285714D01*
X134140595Y-43904761D02*
X134235833Y-43952380D01*
X134426309Y-43952380D01*
X134521547Y-43904761D01*
X134569166Y-43809523D01*
X134569166Y-43428571D01*
X134521547Y-43333333D01*
X134426309Y-43285714D01*
X134235833Y-43285714D01*
X134140595Y-43333333D01*
X134092976Y-43428571D01*
X134092976Y-43523809D01*
X134569166Y-43619047D01*
X133712023Y-43666666D02*
X133235833Y-43666666D01*
X133807261Y-43952380D02*
X133473928Y-42952380D01*
X133140595Y-43952380D01*
X132664404Y-43952380D02*
X132759642Y-43904761D01*
X132807261Y-43809523D01*
X132807261Y-42952380D01*
X132283452Y-43952380D02*
X132283452Y-43285714D01*
X132283452Y-42952380D02*
X132331071Y-43000000D01*
X132283452Y-43047619D01*
X132235833Y-43000000D01*
X132283452Y-42952380D01*
X132283452Y-43047619D01*
X131807261Y-43952380D02*
X131807261Y-42952380D01*
X131712023Y-43571428D02*
X131426309Y-43952380D01*
X131426309Y-43285714D02*
X131807261Y-43666666D01*
X130616785Y-43904761D02*
X130712023Y-43952380D01*
X130902500Y-43952380D01*
X130997738Y-43904761D01*
X131045357Y-43809523D01*
X131045357Y-43428571D01*
X130997738Y-43333333D01*
X130902500Y-43285714D01*
X130712023Y-43285714D01*
X130616785Y-43333333D01*
X130569166Y-43428571D01*
X130569166Y-43523809D01*
X131045357Y-43619047D01*
X128950119Y-43285714D02*
X128950119Y-43952380D01*
X129188214Y-42904761D02*
X129426309Y-43619047D01*
X128807261Y-43619047D01*
X128426309Y-43857142D02*
X128378690Y-43904761D01*
X128426309Y-43952380D01*
X128473928Y-43904761D01*
X128426309Y-43857142D01*
X128426309Y-43952380D01*
X127759642Y-42952380D02*
X127664404Y-42952380D01*
X127569166Y-43000000D01*
X127521547Y-43047619D01*
X127473928Y-43142857D01*
X127426309Y-43333333D01*
X127426309Y-43571428D01*
X127473928Y-43761904D01*
X127521547Y-43857142D01*
X127569166Y-43904761D01*
X127664404Y-43952380D01*
X127759642Y-43952380D01*
X127854880Y-43904761D01*
X127902500Y-43857142D01*
X127950119Y-43761904D01*
X127997738Y-43571428D01*
X127997738Y-43333333D01*
X127950119Y-43142857D01*
X127902500Y-43047619D01*
X127854880Y-43000000D01*
X127759642Y-42952380D01*
X161664404Y-45602380D02*
X161664404Y-44602380D01*
X161188214Y-44935714D02*
X161188214Y-45602380D01*
X161188214Y-45030952D02*
X161140595Y-44983333D01*
X161045357Y-44935714D01*
X160902500Y-44935714D01*
X160807261Y-44983333D01*
X160759642Y-45078571D01*
X160759642Y-45602380D01*
X160426309Y-44935714D02*
X160045357Y-44935714D01*
X160283452Y-44602380D02*
X160283452Y-45459523D01*
X160235833Y-45554761D01*
X160140595Y-45602380D01*
X160045357Y-45602380D01*
X159331071Y-45554761D02*
X159426309Y-45602380D01*
X159616785Y-45602380D01*
X159712023Y-45554761D01*
X159759642Y-45459523D01*
X159759642Y-45078571D01*
X159712023Y-44983333D01*
X159616785Y-44935714D01*
X159426309Y-44935714D01*
X159331071Y-44983333D01*
X159283452Y-45078571D01*
X159283452Y-45173809D01*
X159759642Y-45269047D01*
X158854880Y-45602380D02*
X158854880Y-44935714D01*
X158854880Y-45126190D02*
X158807261Y-45030952D01*
X158759642Y-44983333D01*
X158664404Y-44935714D01*
X158569166Y-44935714D01*
X158235833Y-44935714D02*
X158235833Y-45602380D01*
X158235833Y-45030952D02*
X158188214Y-44983333D01*
X158092976Y-44935714D01*
X157950119Y-44935714D01*
X157854880Y-44983333D01*
X157807261Y-45078571D01*
X157807261Y-45602380D01*
X156902500Y-45602380D02*
X156902500Y-45078571D01*
X156950119Y-44983333D01*
X157045357Y-44935714D01*
X157235833Y-44935714D01*
X157331071Y-44983333D01*
X156902500Y-45554761D02*
X156997738Y-45602380D01*
X157235833Y-45602380D01*
X157331071Y-45554761D01*
X157378690Y-45459523D01*
X157378690Y-45364285D01*
X157331071Y-45269047D01*
X157235833Y-45221428D01*
X156997738Y-45221428D01*
X156902500Y-45173809D01*
X156569166Y-44935714D02*
X156188214Y-44935714D01*
X156426309Y-44602380D02*
X156426309Y-45459523D01*
X156378690Y-45554761D01*
X156283452Y-45602380D01*
X156188214Y-45602380D01*
X155854880Y-45602380D02*
X155854880Y-44935714D01*
X155854880Y-44602380D02*
X155902500Y-44650000D01*
X155854880Y-44697619D01*
X155807261Y-44650000D01*
X155854880Y-44602380D01*
X155854880Y-44697619D01*
X155235833Y-45602380D02*
X155331071Y-45554761D01*
X155378690Y-45507142D01*
X155426309Y-45411904D01*
X155426309Y-45126190D01*
X155378690Y-45030952D01*
X155331071Y-44983333D01*
X155235833Y-44935714D01*
X155092976Y-44935714D01*
X154997738Y-44983333D01*
X154950119Y-45030952D01*
X154902500Y-45126190D01*
X154902500Y-45411904D01*
X154950119Y-45507142D01*
X154997738Y-45554761D01*
X155092976Y-45602380D01*
X155235833Y-45602380D01*
X154473928Y-44935714D02*
X154473928Y-45602380D01*
X154473928Y-45030952D02*
X154426309Y-44983333D01*
X154331071Y-44935714D01*
X154188214Y-44935714D01*
X154092976Y-44983333D01*
X154045357Y-45078571D01*
X154045357Y-45602380D01*
X153140595Y-45602380D02*
X153140595Y-45078571D01*
X153188214Y-44983333D01*
X153283452Y-44935714D01*
X153473928Y-44935714D01*
X153569166Y-44983333D01*
X153140595Y-45554761D02*
X153235833Y-45602380D01*
X153473928Y-45602380D01*
X153569166Y-45554761D01*
X153616785Y-45459523D01*
X153616785Y-45364285D01*
X153569166Y-45269047D01*
X153473928Y-45221428D01*
X153235833Y-45221428D01*
X153140595Y-45173809D01*
X152521547Y-45602380D02*
X152616785Y-45554761D01*
X152664404Y-45459523D01*
X152664404Y-44602380D01*
X150902500Y-45602380D02*
X151378690Y-45602380D01*
X151378690Y-44602380D01*
X150569166Y-45602380D02*
X150569166Y-44935714D01*
X150569166Y-44602380D02*
X150616785Y-44650000D01*
X150569166Y-44697619D01*
X150521547Y-44650000D01*
X150569166Y-44602380D01*
X150569166Y-44697619D01*
X149664404Y-45554761D02*
X149759642Y-45602380D01*
X149950119Y-45602380D01*
X150045357Y-45554761D01*
X150092976Y-45507142D01*
X150140595Y-45411904D01*
X150140595Y-45126190D01*
X150092976Y-45030952D01*
X150045357Y-44983333D01*
X149950119Y-44935714D01*
X149759642Y-44935714D01*
X149664404Y-44983333D01*
X148854880Y-45554761D02*
X148950119Y-45602380D01*
X149140595Y-45602380D01*
X149235833Y-45554761D01*
X149283452Y-45459523D01*
X149283452Y-45078571D01*
X149235833Y-44983333D01*
X149140595Y-44935714D01*
X148950119Y-44935714D01*
X148854880Y-44983333D01*
X148807261Y-45078571D01*
X148807261Y-45173809D01*
X149283452Y-45269047D01*
X148378690Y-44935714D02*
X148378690Y-45602380D01*
X148378690Y-45030952D02*
X148331071Y-44983333D01*
X148235833Y-44935714D01*
X148092976Y-44935714D01*
X147997738Y-44983333D01*
X147950119Y-45078571D01*
X147950119Y-45602380D01*
X147521547Y-45554761D02*
X147426309Y-45602380D01*
X147235833Y-45602380D01*
X147140595Y-45554761D01*
X147092976Y-45459523D01*
X147092976Y-45411904D01*
X147140595Y-45316666D01*
X147235833Y-45269047D01*
X147378690Y-45269047D01*
X147473928Y-45221428D01*
X147521547Y-45126190D01*
X147521547Y-45078571D01*
X147473928Y-44983333D01*
X147378690Y-44935714D01*
X147235833Y-44935714D01*
X147140595Y-44983333D01*
X146283452Y-45554761D02*
X146378690Y-45602380D01*
X146569166Y-45602380D01*
X146664404Y-45554761D01*
X146712023Y-45459523D01*
X146712023Y-45078571D01*
X146664404Y-44983333D01*
X146569166Y-44935714D01*
X146378690Y-44935714D01*
X146283452Y-44983333D01*
X146235833Y-45078571D01*
X146235833Y-45173809D01*
X146712023Y-45269047D01*
X144759642Y-45983333D02*
X144807261Y-45935714D01*
X144902500Y-45792857D01*
X144950119Y-45697619D01*
X144997738Y-45554761D01*
X145045357Y-45316666D01*
X145045357Y-45126190D01*
X144997738Y-44888095D01*
X144950119Y-44745238D01*
X144902500Y-44650000D01*
X144807261Y-44507142D01*
X144759642Y-44459523D01*
X143807261Y-45507142D02*
X143854880Y-45554761D01*
X143997738Y-45602380D01*
X144092976Y-45602380D01*
X144235833Y-45554761D01*
X144331071Y-45459523D01*
X144378690Y-45364285D01*
X144426309Y-45173809D01*
X144426309Y-45030952D01*
X144378690Y-44840476D01*
X144331071Y-44745238D01*
X144235833Y-44650000D01*
X144092976Y-44602380D01*
X143997738Y-44602380D01*
X143854880Y-44650000D01*
X143807261Y-44697619D01*
X142807261Y-45507142D02*
X142854880Y-45554761D01*
X142997738Y-45602380D01*
X143092976Y-45602380D01*
X143235833Y-45554761D01*
X143331071Y-45459523D01*
X143378690Y-45364285D01*
X143426309Y-45173809D01*
X143426309Y-45030952D01*
X143378690Y-44840476D01*
X143331071Y-44745238D01*
X143235833Y-44650000D01*
X143092976Y-44602380D01*
X142997738Y-44602380D01*
X142854880Y-44650000D01*
X142807261Y-44697619D01*
X142378690Y-45221428D02*
X141616785Y-45221428D01*
X140807261Y-45078571D02*
X140664404Y-45126190D01*
X140616785Y-45173809D01*
X140569166Y-45269047D01*
X140569166Y-45411904D01*
X140616785Y-45507142D01*
X140664404Y-45554761D01*
X140759642Y-45602380D01*
X141140595Y-45602380D01*
X141140595Y-44602380D01*
X140807261Y-44602380D01*
X140712023Y-44650000D01*
X140664404Y-44697619D01*
X140616785Y-44792857D01*
X140616785Y-44888095D01*
X140664404Y-44983333D01*
X140712023Y-45030952D01*
X140807261Y-45078571D01*
X141140595Y-45078571D01*
X139950119Y-45126190D02*
X139950119Y-45602380D01*
X140283452Y-44602380D02*
X139950119Y-45126190D01*
X139616785Y-44602380D01*
X139283452Y-45221428D02*
X138521547Y-45221428D01*
X138092976Y-45554761D02*
X137950119Y-45602380D01*
X137712023Y-45602380D01*
X137616785Y-45554761D01*
X137569166Y-45507142D01*
X137521547Y-45411904D01*
X137521547Y-45316666D01*
X137569166Y-45221428D01*
X137616785Y-45173809D01*
X137712023Y-45126190D01*
X137902500Y-45078571D01*
X137997738Y-45030952D01*
X138045357Y-44983333D01*
X138092976Y-44888095D01*
X138092976Y-44792857D01*
X138045357Y-44697619D01*
X137997738Y-44650000D01*
X137902500Y-44602380D01*
X137664404Y-44602380D01*
X137521547Y-44650000D01*
X137140595Y-45316666D02*
X136664404Y-45316666D01*
X137235833Y-45602380D02*
X136902500Y-44602380D01*
X136569166Y-45602380D01*
X135045357Y-44935714D02*
X135045357Y-45602380D01*
X135283452Y-44554761D02*
X135521547Y-45269047D01*
X134902500Y-45269047D01*
X134521547Y-45507142D02*
X134473928Y-45554761D01*
X134521547Y-45602380D01*
X134569166Y-45554761D01*
X134521547Y-45507142D01*
X134521547Y-45602380D01*
X133854880Y-44602380D02*
X133759642Y-44602380D01*
X133664404Y-44650000D01*
X133616785Y-44697619D01*
X133569166Y-44792857D01*
X133521547Y-44983333D01*
X133521547Y-45221428D01*
X133569166Y-45411904D01*
X133616785Y-45507142D01*
X133664404Y-45554761D01*
X133759642Y-45602380D01*
X133854880Y-45602380D01*
X133950119Y-45554761D01*
X133997738Y-45507142D01*
X134045357Y-45411904D01*
X134092976Y-45221428D01*
X134092976Y-44983333D01*
X134045357Y-44792857D01*
X133997738Y-44697619D01*
X133950119Y-44650000D01*
X133854880Y-44602380D01*
X133188214Y-45983333D02*
X133140595Y-45935714D01*
X133045357Y-45792857D01*
X132997738Y-45697619D01*
X132950119Y-45554761D01*
X132902500Y-45316666D01*
X132902500Y-45126190D01*
X132950119Y-44888095D01*
X132997738Y-44745238D01*
X133045357Y-44650000D01*
X133140595Y-44507142D01*
X133188214Y-44459523D01*
X132426309Y-45507142D02*
X132378690Y-45554761D01*
X132426309Y-45602380D01*
X132473928Y-45554761D01*
X132426309Y-45507142D01*
X132426309Y-45602380D01*
X172202380Y-78000000D02*
X171535714Y-78000000D01*
X171726190Y-78000000D02*
X171630952Y-78047619D01*
X171583333Y-78095238D01*
X171535714Y-78190476D01*
X171535714Y-78285714D01*
X171535714Y-78523809D02*
X172202380Y-78714285D01*
X171726190Y-78904761D01*
X172202380Y-79095238D01*
X171535714Y-79285714D01*
X172202380Y-79666666D02*
X171202380Y-79666666D01*
X171821428Y-79761904D02*
X172202380Y-80047619D01*
X171535714Y-80047619D02*
X171916666Y-79666666D01*
D11*
X163369747Y-83130952D02*
X162893556Y-83130952D01*
X162670342Y-83250000D01*
X162462008Y-83488095D01*
X162402485Y-83964285D01*
X162506651Y-84797619D01*
X162685223Y-85273809D01*
X162953080Y-85511904D01*
X163206056Y-85630952D01*
X163682247Y-85630952D01*
X163905461Y-85511904D01*
X164113794Y-85273809D01*
X164173318Y-84797619D01*
X164069151Y-83964285D01*
X163890580Y-83488095D01*
X163622723Y-83250000D01*
X163369747Y-83130952D01*
X161331056Y-83964285D02*
X161643556Y-86464285D01*
X161345937Y-84083333D02*
X161092961Y-83964285D01*
X160616770Y-83964285D01*
X160393556Y-84083333D01*
X160289389Y-84202380D01*
X160200104Y-84440476D01*
X160289389Y-85154761D01*
X160438199Y-85392857D01*
X160572127Y-85511904D01*
X160825104Y-85630952D01*
X161301294Y-85630952D01*
X161524508Y-85511904D01*
X158310223Y-85511904D02*
X158563199Y-85630952D01*
X159039389Y-85630952D01*
X159262604Y-85511904D01*
X159351889Y-85273809D01*
X159232842Y-84321428D01*
X159084032Y-84083333D01*
X158831056Y-83964285D01*
X158354866Y-83964285D01*
X158131651Y-84083333D01*
X158042366Y-84321428D01*
X158072127Y-84559523D01*
X159292366Y-84797619D01*
X156926294Y-83964285D02*
X157134627Y-85630952D01*
X156956056Y-84202380D02*
X156822127Y-84083333D01*
X156569151Y-83964285D01*
X156212008Y-83964285D01*
X155988794Y-84083333D01*
X155899508Y-84321428D01*
X156063199Y-85630952D01*
X153682247Y-85630952D02*
X154872723Y-85630952D01*
X154560223Y-83130952D01*
X152953080Y-85511904D02*
X152610818Y-85630952D01*
X152015580Y-85630952D01*
X151762604Y-85511904D01*
X151628675Y-85392857D01*
X151479866Y-85154761D01*
X151450104Y-84916666D01*
X151539389Y-84678571D01*
X151643556Y-84559523D01*
X151866770Y-84440476D01*
X152328080Y-84321428D01*
X152551294Y-84202380D01*
X152655461Y-84083333D01*
X152744747Y-83845238D01*
X152714985Y-83607142D01*
X152566175Y-83369047D01*
X152432247Y-83250000D01*
X152179270Y-83130952D01*
X151584032Y-83130952D01*
X151241770Y-83250000D01*
X150512604Y-83130952D02*
X149084032Y-83130952D01*
X150110818Y-85630952D02*
X149798318Y-83130952D01*
M02*
