G04 #@! TF.GenerationSoftware,KiCad,Pcbnew,(5.1.0-0)*
G04 #@! TF.CreationDate,2019-09-18T13:26:02-04:00*
G04 #@! TF.ProjectId,openlst-hw,6f70656e-6c73-4742-9d68-772e6b696361,1*
G04 #@! TF.SameCoordinates,Original*
G04 #@! TF.FileFunction,Copper,L1,Top*
G04 #@! TF.FilePolarity,Positive*
%FSLAX46Y46*%
G04 Gerber Fmt 4.6, Leading zero omitted, Abs format (unit mm)*
G04 Created by KiCad (PCBNEW (5.1.0-0)) date 2019-09-18 13:26:02*
%MOMM*%
%LPD*%
G04 APERTURE LIST*
%ADD10R,1.050000X0.810000*%
%ADD11R,1.700000X0.810000*%
%ADD12R,1.700000X1.700000*%
%ADD13O,1.700000X1.700000*%
%ADD14C,0.457200*%
%ADD15C,0.609600*%
%ADD16R,0.280000X0.750000*%
%ADD17R,0.750000X0.280000*%
%ADD18R,4.400000X4.400000*%
%ADD19R,3.500000X0.600000*%
%ADD20R,0.600000X3.500000*%
%ADD21C,0.558800*%
%ADD22R,0.400000X0.550000*%
%ADD23R,0.550000X0.500000*%
%ADD24R,0.550000X0.400000*%
%ADD25R,3.875000X3.875000*%
%ADD26R,0.820000X1.000000*%
%ADD27R,0.650000X0.575000*%
%ADD28R,1.000000X0.820000*%
%ADD29R,0.575000X0.650000*%
%ADD30R,2.400000X1.460000*%
%ADD31R,2.300000X2.500000*%
%ADD32R,2.400000X0.740000*%
%ADD33R,5.080000X2.290000*%
%ADD34R,5.080000X2.420000*%
%ADD35C,0.970000*%
%ADD36R,0.950000X0.460000*%
%ADD37R,1.220000X1.800000*%
%ADD38C,6.400000*%
%ADD39C,0.800000*%
%ADD40R,2.000000X3.800000*%
%ADD41R,2.000000X1.500000*%
%ADD42R,1.100000X4.600000*%
%ADD43R,10.800000X9.400000*%
%ADD44R,1.500000X1.200000*%
%ADD45R,0.800000X0.900000*%
%ADD46R,0.650000X0.400000*%
%ADD47C,0.203200*%
%ADD48C,0.127000*%
%ADD49C,1.016000*%
%ADD50C,0.350520*%
G04 APERTURE END LIST*
D10*
X156175000Y-60935000D03*
X156175000Y-59750000D03*
X156175000Y-58565000D03*
X158325000Y-58565000D03*
X158325000Y-59750000D03*
D11*
X158000000Y-60945000D03*
D12*
X117000000Y-60500000D03*
D13*
X117000000Y-63040000D03*
X117000000Y-65580000D03*
X117000000Y-68120000D03*
X117000000Y-70660000D03*
X117000000Y-73200000D03*
D14*
X137100000Y-70900000D03*
D15*
X131500000Y-70500000D03*
X133000000Y-70500000D03*
X133000000Y-67500000D03*
X131500000Y-67500000D03*
X130000000Y-67500000D03*
D16*
X131500000Y-66220000D03*
X132000000Y-66220000D03*
X132500000Y-66220000D03*
X133000000Y-66220000D03*
X133500000Y-66220000D03*
X131000000Y-66220000D03*
X130500000Y-66220000D03*
X130000000Y-66220000D03*
X129500000Y-66220000D03*
D17*
X134280000Y-69000000D03*
X134280000Y-69500000D03*
X134280000Y-70000000D03*
X134280000Y-70500000D03*
X134280000Y-71000000D03*
X134280000Y-67000000D03*
X134280000Y-67500000D03*
X134280000Y-68000000D03*
X134280000Y-68500000D03*
D16*
X131500000Y-71780000D03*
X131000000Y-71780000D03*
X130500000Y-71780000D03*
X130000000Y-71780000D03*
X129500000Y-71780000D03*
X133500000Y-71780000D03*
X133000000Y-71780000D03*
X132500000Y-71780000D03*
X132000000Y-71780000D03*
D17*
X128720000Y-69000000D03*
X128720000Y-68500000D03*
X128720000Y-68000000D03*
X128720000Y-67500000D03*
X128720000Y-67000000D03*
X128720000Y-71000000D03*
X128720000Y-70500000D03*
X128720000Y-70000000D03*
X128720000Y-69500000D03*
D18*
X131500000Y-69000000D03*
D15*
X130000000Y-70500000D03*
X133000000Y-69000000D03*
X131500000Y-69000000D03*
X130000000Y-69000000D03*
D14*
X133500000Y-57900000D03*
X124050000Y-56500000D03*
X125050000Y-56500000D03*
X126050000Y-56500000D03*
X134900000Y-46300000D03*
X135900000Y-46300000D03*
X134900000Y-40700000D03*
X135900000Y-40700000D03*
X141300000Y-47500000D03*
X142100000Y-47500000D03*
X143300000Y-46500000D03*
X143300000Y-45500000D03*
X159900000Y-40700000D03*
X159900000Y-43900000D03*
X159900000Y-43100000D03*
X159900000Y-42300000D03*
X159900000Y-41500000D03*
X155300000Y-39300000D03*
X156100000Y-39300000D03*
X156900000Y-39300000D03*
X153500000Y-66500000D03*
X157700000Y-72100000D03*
X156100000Y-72100000D03*
X155100000Y-73100000D03*
X159700000Y-73300000D03*
X149900000Y-55500000D03*
X162300000Y-55700000D03*
X149900000Y-54500000D03*
X162300000Y-54700000D03*
X149900000Y-53500000D03*
X162300000Y-53700000D03*
X149900000Y-52500000D03*
X162300000Y-52700000D03*
X149900000Y-51500000D03*
X162300000Y-51700000D03*
X164100000Y-67900000D03*
X165900000Y-61100000D03*
X163100000Y-63300000D03*
X162300000Y-59100000D03*
X154700000Y-57500000D03*
X151900000Y-58500000D03*
X151100000Y-62900000D03*
X138300000Y-70900000D03*
X139700000Y-70900000D03*
X140900000Y-70900000D03*
X142100000Y-70900000D03*
X148900000Y-70900000D03*
X150300000Y-70900000D03*
X151700000Y-70900000D03*
X153100000Y-70900000D03*
X136700000Y-65900000D03*
X137500000Y-65100000D03*
X139100000Y-65100000D03*
X140500000Y-65100000D03*
X141500000Y-66100000D03*
X143000000Y-66100000D03*
X144100000Y-66100000D03*
X145500000Y-66100000D03*
X146900000Y-66100000D03*
X148300000Y-66100000D03*
X149500000Y-66100000D03*
X157250000Y-63000000D03*
X151100000Y-59300000D03*
X160700000Y-57500000D03*
X162300000Y-64100000D03*
X166900000Y-66300000D03*
X164900000Y-67100000D03*
X162900000Y-67900000D03*
X161700000Y-67900000D03*
X164100000Y-61700000D03*
X159750000Y-57500000D03*
X163100000Y-59900000D03*
X163100000Y-60900000D03*
X163100000Y-62100000D03*
X161500000Y-64900000D03*
X153700000Y-57500000D03*
X152700000Y-57700000D03*
X166700000Y-60300000D03*
X161500000Y-58300000D03*
X151100000Y-60500000D03*
X151100000Y-61700000D03*
X151900000Y-63700000D03*
X152900000Y-64500000D03*
X157250000Y-64000000D03*
D19*
X157250000Y-67500000D03*
X157250000Y-69000000D03*
D20*
X156500000Y-68250000D03*
D21*
X158750000Y-69750000D03*
X158750000Y-68250000D03*
X157250000Y-68250000D03*
X155750000Y-68250000D03*
X158750000Y-66750000D03*
X157250000Y-66750000D03*
X155750000Y-66750000D03*
X155750000Y-69750000D03*
X157250000Y-69750000D03*
D20*
X158000000Y-68250000D03*
D22*
X155437000Y-70875000D03*
D23*
X154625000Y-70900000D03*
D24*
X154625000Y-66375000D03*
D23*
X154625000Y-65600000D03*
X159875000Y-65600000D03*
D25*
X157250000Y-68250000D03*
D23*
X159875000Y-70900000D03*
D24*
X159875000Y-70125000D03*
X159875000Y-69375000D03*
X159875000Y-68625000D03*
X159875000Y-67875000D03*
X159875000Y-67125000D03*
X159875000Y-66375000D03*
D22*
X159063000Y-65625000D03*
X158338000Y-65625000D03*
X157613000Y-65625000D03*
X156887000Y-65625000D03*
X156162000Y-65625000D03*
X155437000Y-65625000D03*
D24*
X154625000Y-67125000D03*
X154625000Y-67875000D03*
X154625000Y-68625000D03*
X154625000Y-69375000D03*
X154625000Y-70125000D03*
D22*
X156162000Y-70875000D03*
X156887000Y-70875000D03*
X157613000Y-70875000D03*
X158338000Y-70875000D03*
X159063000Y-70875000D03*
D26*
X128800000Y-73500000D03*
X127200000Y-73500000D03*
D27*
X136100000Y-67487500D03*
X136100000Y-66712500D03*
D28*
X135800000Y-64400000D03*
X135800000Y-62800000D03*
X144900000Y-42900000D03*
X144900000Y-44500000D03*
X134100000Y-64400000D03*
X134100000Y-62800000D03*
X165250000Y-72200000D03*
X165250000Y-73800000D03*
D29*
X135712500Y-71900000D03*
X136487500Y-71900000D03*
D26*
X152550000Y-66250000D03*
X150950000Y-66250000D03*
D28*
X129500000Y-58950000D03*
X129500000Y-60550000D03*
X126750000Y-66550000D03*
X126750000Y-64950000D03*
X133000000Y-44200000D03*
X133000000Y-45800000D03*
D30*
X148000000Y-44520000D03*
X148000000Y-47480000D03*
D28*
X133000000Y-41800000D03*
X133000000Y-40200000D03*
D26*
X148800000Y-40500000D03*
X147200000Y-40500000D03*
D28*
X132375000Y-64225000D03*
X132375000Y-62625000D03*
X163000000Y-47800000D03*
X163000000Y-46200000D03*
D29*
X139587500Y-70000000D03*
X138812500Y-70000000D03*
D26*
X129800000Y-75500000D03*
X128200000Y-75500000D03*
D27*
X137600000Y-66812500D03*
X137600000Y-67587500D03*
D29*
X138812500Y-68800000D03*
X139587500Y-68800000D03*
X141012500Y-68500000D03*
X141787500Y-68500000D03*
D26*
X145900000Y-70900000D03*
X144300000Y-70900000D03*
D28*
X148500000Y-55300000D03*
X148500000Y-53700000D03*
X153900000Y-73100000D03*
X153900000Y-74700000D03*
D29*
X151862500Y-67750000D03*
X152637500Y-67750000D03*
X151862500Y-69250000D03*
X152637500Y-69250000D03*
D28*
X156300000Y-73100000D03*
X156300000Y-74700000D03*
D29*
X162387500Y-66250000D03*
X161612500Y-66250000D03*
D28*
X158500000Y-73100000D03*
X158500000Y-74700000D03*
X131250000Y-58950000D03*
X131250000Y-60550000D03*
D26*
X171550000Y-50500000D03*
X169950000Y-50500000D03*
X171550000Y-53500000D03*
X169950000Y-53500000D03*
D31*
X125100000Y-50150000D03*
X125100000Y-54450000D03*
D12*
X117000000Y-51500000D03*
D13*
X117000000Y-54040000D03*
D32*
X128950000Y-46040000D03*
X125050000Y-46040000D03*
X128950000Y-44770000D03*
X125050000Y-44770000D03*
X128950000Y-43500000D03*
X125050000Y-43500000D03*
X128950000Y-42230000D03*
X125050000Y-42230000D03*
X128950000Y-40960000D03*
X125050000Y-40960000D03*
D12*
X124500000Y-85000000D03*
D13*
X127040000Y-85000000D03*
X129580000Y-85000000D03*
X132120000Y-85000000D03*
X134660000Y-85000000D03*
X137200000Y-85000000D03*
D12*
X141500000Y-85000000D03*
D13*
X144040000Y-85000000D03*
X146580000Y-85000000D03*
D33*
X170720000Y-63500000D03*
D34*
X170720000Y-67880000D03*
X170720000Y-59120000D03*
D35*
X167280000Y-67880000D03*
X167280000Y-59120000D03*
D36*
X167730000Y-67880000D03*
X167730000Y-59120000D03*
D37*
X131930000Y-49500000D03*
X129070000Y-49500000D03*
D28*
X133000000Y-58950000D03*
X133000000Y-60550000D03*
D27*
X137600000Y-69587500D03*
X137600000Y-68812500D03*
D29*
X138812500Y-67600000D03*
X139587500Y-67600000D03*
D28*
X147500000Y-72500000D03*
X147500000Y-70900000D03*
D38*
X118500000Y-83500000D03*
D39*
X120900000Y-83500000D03*
X120197056Y-85197056D03*
X118500000Y-85900000D03*
X116802944Y-85197056D03*
X116100000Y-83500000D03*
X116802944Y-81802944D03*
X118500000Y-81100000D03*
X120197056Y-81802944D03*
D38*
X118500000Y-43500000D03*
D39*
X120900000Y-43500000D03*
X120197056Y-45197056D03*
X118500000Y-45900000D03*
X116802944Y-45197056D03*
X116100000Y-43500000D03*
X116802944Y-41802944D03*
X118500000Y-41100000D03*
X120197056Y-41802944D03*
D38*
X168500000Y-43500000D03*
D39*
X170900000Y-43500000D03*
X170197056Y-45197056D03*
X168500000Y-45900000D03*
X166802944Y-45197056D03*
X166100000Y-43500000D03*
X166802944Y-41802944D03*
X168500000Y-41100000D03*
X170197056Y-41802944D03*
D38*
X168500000Y-83500000D03*
D39*
X170900000Y-83500000D03*
X170197056Y-85197056D03*
X168500000Y-85900000D03*
X166802944Y-85197056D03*
X166100000Y-83500000D03*
X166802944Y-81802944D03*
X168500000Y-81100000D03*
X170197056Y-81802944D03*
D26*
X143800000Y-78000000D03*
X142200000Y-78000000D03*
X148050000Y-78000000D03*
X146450000Y-78000000D03*
X168300000Y-50500000D03*
X166700000Y-50500000D03*
X168300000Y-53500000D03*
X166700000Y-53500000D03*
X137200000Y-82000000D03*
X138800000Y-82000000D03*
D28*
X124500000Y-80450000D03*
X124500000Y-82050000D03*
D26*
X133700000Y-82000000D03*
X135300000Y-82000000D03*
X130200000Y-82000000D03*
X131800000Y-82000000D03*
X121550000Y-73500000D03*
X119950000Y-73500000D03*
X121550000Y-63000000D03*
X119950000Y-63000000D03*
X121550000Y-68250000D03*
X119950000Y-68250000D03*
X121550000Y-70750000D03*
X119950000Y-70750000D03*
X146450000Y-80000000D03*
X148050000Y-80000000D03*
X142200000Y-80000000D03*
X143800000Y-80000000D03*
D28*
X154250000Y-80450000D03*
X154250000Y-82050000D03*
D26*
X140100000Y-63600000D03*
X138500000Y-63600000D03*
X139500000Y-55300000D03*
X137900000Y-55300000D03*
X129800000Y-79500000D03*
X128200000Y-79500000D03*
X121550000Y-65500000D03*
X119950000Y-65500000D03*
X126700000Y-82000000D03*
X128300000Y-82000000D03*
X146300000Y-58300000D03*
X147900000Y-58300000D03*
X143100000Y-58300000D03*
X144700000Y-58300000D03*
X135300000Y-50600000D03*
X133700000Y-50600000D03*
X138800000Y-50600000D03*
X137200000Y-50600000D03*
D28*
X171250000Y-72200000D03*
X171250000Y-73800000D03*
X157250000Y-82050000D03*
X157250000Y-80450000D03*
D26*
X129800000Y-77500000D03*
X128200000Y-77500000D03*
D28*
X160250000Y-80450000D03*
X160250000Y-82050000D03*
D26*
X120300000Y-78500000D03*
X118700000Y-78500000D03*
X116200000Y-48000000D03*
X117800000Y-48000000D03*
D28*
X163000000Y-44300000D03*
X163000000Y-42700000D03*
D26*
X162700000Y-80000000D03*
X164300000Y-80000000D03*
D28*
X169250000Y-72200000D03*
X169250000Y-73800000D03*
X167250000Y-73800000D03*
X167250000Y-72200000D03*
D40*
X135350000Y-43500000D03*
D41*
X141650000Y-43500000D03*
X141650000Y-41200000D03*
X141650000Y-45800000D03*
D42*
X158540000Y-42225000D03*
X156000000Y-42225000D03*
X153460000Y-42225000D03*
D43*
X156000000Y-51375000D03*
D44*
X146050000Y-52350000D03*
X141950000Y-52350000D03*
X141950000Y-55150000D03*
X146050000Y-55150000D03*
D45*
X133950000Y-76500000D03*
X132050000Y-76500000D03*
X133000000Y-78500000D03*
D46*
X148200000Y-69150000D03*
X148200000Y-67850000D03*
X146300000Y-68500000D03*
X148200000Y-68500000D03*
X146300000Y-67850000D03*
X146300000Y-69150000D03*
D14*
X135300000Y-69650000D03*
X129500000Y-72700000D03*
X127700000Y-67500000D03*
X133200000Y-65400000D03*
X134800000Y-65500000D03*
X135200000Y-67700000D03*
X135700000Y-71000000D03*
X131300000Y-61500000D03*
X130300000Y-61500000D03*
X133000000Y-61500000D03*
X138200000Y-66400000D03*
X146000000Y-47500000D03*
X141000000Y-63600000D03*
X135900000Y-61800000D03*
X134500000Y-61700000D03*
X126700000Y-63900000D03*
X126200000Y-73500000D03*
X137300000Y-71900000D03*
X116250000Y-49000000D03*
X171500000Y-54750000D03*
X129000000Y-47000000D03*
X148000000Y-48750000D03*
X144750000Y-45500000D03*
X146250000Y-40500000D03*
X163000000Y-45250000D03*
X131250000Y-58000000D03*
X129500000Y-58000000D03*
X136000000Y-66000000D03*
X165300000Y-74900000D03*
X169300000Y-74900000D03*
X162700000Y-81100000D03*
X160300000Y-83100000D03*
X142100000Y-58300000D03*
X148300000Y-52700000D03*
X139700000Y-50500000D03*
X141900000Y-50900000D03*
X171500000Y-52100000D03*
X134900000Y-76500000D03*
X131475000Y-62525000D03*
X127100000Y-75500000D03*
X121300000Y-78500000D03*
X133100000Y-46700000D03*
X133100000Y-39500000D03*
X150100000Y-65300000D03*
X152700000Y-74700000D03*
X157300000Y-74700000D03*
X159700000Y-74700000D03*
X158500000Y-71700000D03*
X143300000Y-70900000D03*
X149000000Y-68500000D03*
X155750000Y-57750000D03*
X158750000Y-57750000D03*
X158750000Y-61750000D03*
X155750000Y-61830000D03*
X153750000Y-68500000D03*
X153750000Y-70250000D03*
X154000000Y-71500000D03*
X159500000Y-71750000D03*
X160750000Y-67250000D03*
X157250000Y-64750000D03*
X159500000Y-64750000D03*
X160500000Y-65000000D03*
X154000000Y-65000000D03*
X148100000Y-76900000D03*
X122250000Y-64750000D03*
X126600000Y-81000000D03*
X154000000Y-72250000D03*
X157300000Y-83100000D03*
X146100000Y-56300000D03*
X123100000Y-46100000D03*
X127100000Y-77500000D03*
X132900000Y-79500000D03*
X132900000Y-57900000D03*
X143900000Y-76900000D03*
X147700000Y-73500000D03*
X148500000Y-56300000D03*
X143100000Y-43500000D03*
X133900000Y-42700000D03*
X133900000Y-43300000D03*
X157100000Y-42100000D03*
X167300000Y-74900000D03*
X131900000Y-65300000D03*
X129800000Y-74400000D03*
X132900000Y-73000000D03*
X131500000Y-44750000D03*
X123200000Y-44800000D03*
X133000000Y-73750000D03*
X130750000Y-42250000D03*
X127000000Y-76500000D03*
X131400000Y-64900000D03*
X134200000Y-60400000D03*
X141500000Y-72750000D03*
X146250000Y-65000000D03*
X166400000Y-51800000D03*
X135000000Y-75800000D03*
X137000000Y-77000000D03*
X166600000Y-54800000D03*
X137200000Y-80000000D03*
X124600000Y-79200000D03*
X134800000Y-80800000D03*
X127800000Y-80800000D03*
X135600000Y-77000000D03*
X131000000Y-74800000D03*
X129000000Y-61750000D03*
X129000000Y-65000000D03*
X129500000Y-64500000D03*
X129500000Y-62500000D03*
X124000000Y-76800000D03*
X158750000Y-78000000D03*
X154250000Y-79250000D03*
X157250000Y-79500000D03*
X134400000Y-74400000D03*
X151900000Y-74300000D03*
X136700000Y-55300000D03*
X135400000Y-70400000D03*
X128000000Y-57200000D03*
X126800000Y-69400000D03*
X134300000Y-52100000D03*
X127600000Y-69500000D03*
X124250000Y-78500000D03*
X160250000Y-78500000D03*
X164250000Y-77500000D03*
X138250000Y-77500000D03*
X130900000Y-64500000D03*
X143000000Y-77000000D03*
D47*
X134280000Y-69500000D02*
X135150000Y-69500000D01*
X135150000Y-69500000D02*
X135300000Y-69650000D01*
X129500000Y-71780000D02*
X129500000Y-72700000D01*
X129500000Y-72700000D02*
X128800000Y-73400000D01*
X128800000Y-73500000D02*
X128800000Y-73400000D01*
X128720000Y-67500000D02*
X127700000Y-67500000D01*
X126750000Y-67250000D02*
X127000000Y-67500000D01*
X127000000Y-67500000D02*
X127700000Y-67500000D01*
X126750000Y-67250000D02*
X126750000Y-66550000D01*
X133200000Y-65400000D02*
X133200000Y-65300000D01*
X133200000Y-65300000D02*
X134100000Y-64400000D01*
X133200000Y-65400000D02*
X133900000Y-65400000D01*
X133000000Y-65600000D02*
X133200000Y-65400000D01*
X133000000Y-66220000D02*
X133000000Y-65600000D01*
X134000000Y-65500000D02*
X134800000Y-65500000D01*
X133900000Y-65400000D02*
X134000000Y-65500000D01*
X135800000Y-64400000D02*
X135800000Y-64900000D01*
X134080000Y-66220000D02*
X134800000Y-65500000D01*
X134080000Y-66220000D02*
X133500000Y-66220000D01*
X135200000Y-65500000D02*
X134800000Y-65500000D01*
X135800000Y-64900000D02*
X135200000Y-65500000D01*
X134280000Y-67500000D02*
X135000000Y-67500000D01*
X135000000Y-67500000D02*
X135200000Y-67700000D01*
X136100000Y-67487500D02*
X135412500Y-67487500D01*
X134900000Y-68000000D02*
X135200000Y-67700000D01*
X134900000Y-68000000D02*
X134280000Y-68000000D01*
X135412500Y-67487500D02*
X135200000Y-67700000D01*
X135712500Y-71900000D02*
X135712500Y-71012500D01*
X135700000Y-71000000D02*
X134280000Y-71000000D01*
X135712500Y-71012500D02*
X135700000Y-71000000D01*
X131300000Y-61500000D02*
X130300000Y-61500000D01*
X130300000Y-61500000D02*
X129500000Y-60700000D01*
X131300000Y-61500000D02*
X133000000Y-61500000D01*
X129500000Y-60550000D02*
X129500000Y-60700000D01*
X131250000Y-60550000D02*
X131250000Y-61450000D01*
X131250000Y-61450000D02*
X131300000Y-61500000D01*
X133000000Y-60550000D02*
X133000000Y-61500000D01*
X137600000Y-66812500D02*
X137787500Y-66812500D01*
X137787500Y-66812500D02*
X138200000Y-66400000D01*
X139587500Y-70000000D02*
X139587500Y-70787500D01*
X139587500Y-70787500D02*
X139700000Y-70900000D01*
X148000000Y-47480000D02*
X146020000Y-47480000D01*
X146020000Y-47480000D02*
X146000000Y-47500000D01*
X140100000Y-63600000D02*
X141000000Y-63600000D01*
X135900000Y-61800000D02*
X135800000Y-61900000D01*
X135800000Y-61900000D02*
X135800000Y-62800000D01*
X134100000Y-62800000D02*
X134100000Y-62100000D01*
X134100000Y-62100000D02*
X134500000Y-61700000D01*
X126750000Y-64950000D02*
X126750000Y-63950000D01*
X126750000Y-63950000D02*
X126700000Y-63900000D01*
X127200000Y-73500000D02*
X126200000Y-73500000D01*
X136487500Y-71900000D02*
X137300000Y-71900000D01*
X170720000Y-59120000D02*
X167280000Y-59120000D01*
X170720000Y-67880000D02*
X167280000Y-67880000D01*
X116200000Y-48000000D02*
X116200000Y-48950000D01*
X116200000Y-48950000D02*
X116250000Y-49000000D01*
X171550000Y-53500000D02*
X171550000Y-54700000D01*
X171550000Y-54700000D02*
X171500000Y-54750000D01*
X128950000Y-46040000D02*
X128950000Y-46950000D01*
X128950000Y-46950000D02*
X129000000Y-47000000D01*
X148000000Y-47480000D02*
X148000000Y-48750000D01*
X144900000Y-44500000D02*
X144900000Y-45350000D01*
X144900000Y-45350000D02*
X144750000Y-45500000D01*
X147200000Y-40500000D02*
X146250000Y-40500000D01*
X163000000Y-46200000D02*
X163000000Y-45250000D01*
X163000000Y-45250000D02*
X163000000Y-44300000D01*
X131250000Y-58950000D02*
X131250000Y-58000000D01*
X129500000Y-58950000D02*
X129500000Y-58000000D01*
X124050000Y-56500000D02*
X124050000Y-55500000D01*
X124050000Y-55500000D02*
X125100000Y-54450000D01*
X126050000Y-56500000D02*
X126050000Y-55400000D01*
X126050000Y-55400000D02*
X125100000Y-54450000D01*
X125050000Y-56500000D02*
X125050000Y-54500000D01*
X125050000Y-54500000D02*
X125100000Y-54450000D01*
X136100000Y-66712500D02*
X136100000Y-66100000D01*
X136100000Y-66100000D02*
X136000000Y-66000000D01*
X165250000Y-73800000D02*
X165250000Y-74850000D01*
X165250000Y-74850000D02*
X165300000Y-74900000D01*
X169250000Y-73800000D02*
X169250000Y-74850000D01*
X169250000Y-74850000D02*
X169300000Y-74900000D01*
X162700000Y-80000000D02*
X162700000Y-81100000D01*
X160250000Y-82050000D02*
X160250000Y-83050000D01*
X160250000Y-83050000D02*
X160300000Y-83100000D01*
X143100000Y-58300000D02*
X142100000Y-58300000D01*
X148500000Y-53700000D02*
X148500000Y-52900000D01*
X148500000Y-52900000D02*
X148300000Y-52700000D01*
X138800000Y-50600000D02*
X139600000Y-50600000D01*
X139600000Y-50600000D02*
X139700000Y-50500000D01*
X141950000Y-52350000D02*
X141950000Y-50950000D01*
X141950000Y-50950000D02*
X141900000Y-50900000D01*
X171550000Y-50500000D02*
X171550000Y-52050000D01*
X171550000Y-52150000D02*
X171500000Y-52100000D01*
X171550000Y-52150000D02*
X171550000Y-53500000D01*
X171550000Y-52050000D02*
X171500000Y-52100000D01*
X133950000Y-76500000D02*
X134900000Y-76500000D01*
X132375000Y-62625000D02*
X131575000Y-62625000D01*
X131575000Y-62625000D02*
X131475000Y-62525000D01*
X128200000Y-75500000D02*
X127100000Y-75500000D01*
X120300000Y-78500000D02*
X121300000Y-78500000D01*
X143300000Y-45500000D02*
X141950000Y-45500000D01*
X141950000Y-45500000D02*
X141650000Y-45800000D01*
X143300000Y-46500000D02*
X142600000Y-45800000D01*
X142600000Y-45800000D02*
X141650000Y-45800000D01*
X141300000Y-47500000D02*
X141300000Y-46150000D01*
X141300000Y-46150000D02*
X141650000Y-45800000D01*
X142100000Y-47500000D02*
X142100000Y-46250000D01*
X142100000Y-46250000D02*
X141650000Y-45800000D01*
X133000000Y-45800000D02*
X133000000Y-46600000D01*
X133000000Y-46600000D02*
X133100000Y-46700000D01*
X133000000Y-40200000D02*
X133000000Y-39600000D01*
X133000000Y-39600000D02*
X133100000Y-39500000D01*
X159900000Y-43900000D02*
X159100000Y-43900000D01*
X159100000Y-43900000D02*
X158540000Y-43340000D01*
X158540000Y-43340000D02*
X158540000Y-42225000D01*
X159900000Y-40700000D02*
X159100000Y-40700000D01*
X159100000Y-40700000D02*
X158540000Y-41260000D01*
X158540000Y-41260000D02*
X158540000Y-42225000D01*
X159900000Y-43100000D02*
X159100000Y-43100000D01*
X159100000Y-43100000D02*
X158540000Y-42540000D01*
X158540000Y-42540000D02*
X158540000Y-42225000D01*
X159900000Y-42300000D02*
X158615000Y-42300000D01*
X158615000Y-42300000D02*
X158540000Y-42225000D01*
X159900000Y-41500000D02*
X159300000Y-41500000D01*
X159300000Y-41500000D02*
X158575000Y-42225000D01*
X158575000Y-42225000D02*
X158540000Y-42225000D01*
X150950000Y-66250000D02*
X150950000Y-66150000D01*
X150950000Y-66150000D02*
X150100000Y-65300000D01*
X153900000Y-74700000D02*
X152700000Y-74700000D01*
X156300000Y-74700000D02*
X157300000Y-74700000D01*
X158500000Y-74700000D02*
X159700000Y-74700000D01*
X158338000Y-70875000D02*
X158338000Y-71538000D01*
X158338000Y-71538000D02*
X158500000Y-71700000D01*
X144300000Y-70900000D02*
X143300000Y-70900000D01*
X148200000Y-68500000D02*
X149000000Y-68500000D01*
D48*
X155750000Y-58480000D02*
X155750000Y-57750000D01*
X158750000Y-58480000D02*
X158750000Y-57750000D01*
X158750000Y-61020000D02*
X158750000Y-61750000D01*
X155750000Y-61020000D02*
X155750000Y-61750000D01*
X154625000Y-68625000D02*
X153875000Y-68625000D01*
X153875000Y-68625000D02*
X153750000Y-68500000D01*
X154625000Y-70125000D02*
X153875000Y-70125000D01*
X153875000Y-70125000D02*
X153750000Y-70250000D01*
X154625000Y-70900000D02*
X154600000Y-70900000D01*
X154600000Y-70900000D02*
X154000000Y-71500000D01*
X159063000Y-70875000D02*
X159063000Y-71313000D01*
X159875000Y-71375000D02*
X159500000Y-71750000D01*
X159875000Y-71375000D02*
X159875000Y-70900000D01*
X159063000Y-71313000D02*
X159500000Y-71750000D01*
X159875000Y-67125000D02*
X160625000Y-67125000D01*
X160625000Y-67125000D02*
X160750000Y-67250000D01*
X156887000Y-65625000D02*
X156887000Y-65113000D01*
X157613000Y-65113000D02*
X157250000Y-64750000D01*
X157613000Y-65113000D02*
X157613000Y-65625000D01*
X156887000Y-65113000D02*
X157250000Y-64750000D01*
X159500000Y-64750000D02*
X159063000Y-65187000D01*
X159063000Y-65187000D02*
X159063000Y-65625000D01*
X159875000Y-65600000D02*
X159900000Y-65600000D01*
X159900000Y-65600000D02*
X160500000Y-65000000D01*
X154625000Y-65600000D02*
X154600000Y-65600000D01*
X154600000Y-65600000D02*
X154000000Y-65000000D01*
D47*
X148050000Y-78000000D02*
X148050000Y-76950000D01*
X148050000Y-76950000D02*
X148100000Y-76900000D01*
D49*
X133700000Y-50600000D02*
X133030000Y-50600000D01*
X133030000Y-50600000D02*
X131930000Y-49500000D01*
X144900000Y-42900000D02*
X146380000Y-42900000D01*
X146380000Y-42900000D02*
X148000000Y-44520000D01*
X141650000Y-41200000D02*
X143200000Y-41200000D01*
X143200000Y-41200000D02*
X144900000Y-42900000D01*
X148800000Y-40500000D02*
X150295000Y-41995000D01*
X150295000Y-41995000D02*
X150295000Y-42225000D01*
X148000000Y-44520000D02*
X150295000Y-42225000D01*
X150295000Y-42225000D02*
X153460000Y-42225000D01*
X147520000Y-44520000D02*
X148000000Y-44520000D01*
X131930000Y-49500000D02*
X132930000Y-48500000D01*
X139800000Y-41200000D02*
X141650000Y-41200000D01*
X138500000Y-42500000D02*
X139800000Y-41200000D01*
X138500000Y-46500000D02*
X138500000Y-42500000D01*
X136500000Y-48500000D02*
X138500000Y-46500000D01*
X132930000Y-48500000D02*
X136500000Y-48500000D01*
D47*
X121550000Y-65500000D02*
X121550000Y-65450000D01*
X121550000Y-65450000D02*
X122250000Y-64750000D01*
X126700000Y-82000000D02*
X126700000Y-81100000D01*
X126700000Y-81100000D02*
X126600000Y-81000000D01*
X133500000Y-57900000D02*
X133500000Y-58450000D01*
X133500000Y-58450000D02*
X133000000Y-58950000D01*
X147500000Y-72500000D02*
X153300000Y-72500000D01*
X153300000Y-72500000D02*
X153900000Y-73100000D01*
X153900000Y-73100000D02*
X153900000Y-72350000D01*
X153900000Y-72350000D02*
X154000000Y-72250000D01*
X157250000Y-82050000D02*
X157250000Y-83050000D01*
X157250000Y-83050000D02*
X157300000Y-83100000D01*
X146050000Y-55150000D02*
X146050000Y-56250000D01*
X146050000Y-56250000D02*
X146100000Y-56300000D01*
X125050000Y-46040000D02*
X123160000Y-46040000D01*
X123160000Y-46040000D02*
X123100000Y-46100000D01*
X128200000Y-77500000D02*
X127100000Y-77500000D01*
X133000000Y-78500000D02*
X133000000Y-79400000D01*
X133000000Y-79400000D02*
X132900000Y-79500000D01*
X133000000Y-58950000D02*
X133000000Y-58000000D01*
X133000000Y-58000000D02*
X132900000Y-57900000D01*
X143800000Y-78000000D02*
X143800000Y-77000000D01*
X143800000Y-77000000D02*
X143900000Y-76900000D01*
X147500000Y-72500000D02*
X147500000Y-73300000D01*
X147500000Y-73300000D02*
X147700000Y-73500000D01*
X148500000Y-55300000D02*
X148500000Y-56300000D01*
X146050000Y-55150000D02*
X148350000Y-55150000D01*
X148350000Y-55150000D02*
X148500000Y-55300000D01*
X141650000Y-43500000D02*
X143100000Y-43500000D01*
X134550000Y-42700000D02*
X133900000Y-42700000D01*
X133900000Y-42700000D02*
X133000000Y-41800000D01*
X134550000Y-42700000D02*
X135350000Y-43500000D01*
X135150000Y-43300000D02*
X133900000Y-43300000D01*
X133900000Y-43300000D02*
X133000000Y-44200000D01*
X135150000Y-43300000D02*
X135350000Y-43500000D01*
X135900000Y-46300000D02*
X135900000Y-44050000D01*
X135900000Y-44050000D02*
X135350000Y-43500000D01*
X134900000Y-46300000D02*
X134900000Y-43950000D01*
X134900000Y-43950000D02*
X135350000Y-43500000D01*
X135900000Y-40700000D02*
X135900000Y-42950000D01*
X135900000Y-42950000D02*
X135350000Y-43500000D01*
X134900000Y-40700000D02*
X134900000Y-43050000D01*
X134900000Y-43050000D02*
X135350000Y-43500000D01*
X153900000Y-73100000D02*
X154700000Y-72300000D01*
X154700000Y-72300000D02*
X155150000Y-72300000D01*
X155150000Y-72300000D02*
X155437000Y-72013000D01*
X155437000Y-72013000D02*
X155437000Y-70875000D01*
X132375000Y-64225000D02*
X132375000Y-64775000D01*
X132500000Y-64900000D02*
X132500000Y-66220000D01*
X132375000Y-64775000D02*
X132500000Y-64900000D01*
X147900000Y-58300000D02*
X148900000Y-58300000D01*
X149900000Y-57300000D02*
X149900000Y-55500000D01*
X148900000Y-58300000D02*
X149900000Y-57300000D01*
X162300000Y-51700000D02*
X156325000Y-51700000D01*
X156900000Y-39300000D02*
X156900000Y-39700000D01*
X156900000Y-39700000D02*
X156000000Y-40600000D01*
X156000000Y-40600000D02*
X156000000Y-42225000D01*
X156100000Y-39300000D02*
X156000000Y-39400000D01*
X156000000Y-39400000D02*
X156000000Y-42225000D01*
X155300000Y-39300000D02*
X155300000Y-39900000D01*
X155300000Y-39900000D02*
X156000000Y-40600000D01*
X156000000Y-40600000D02*
X156000000Y-42225000D01*
X156000000Y-42225000D02*
X156975000Y-42225000D01*
X156975000Y-42225000D02*
X157100000Y-42100000D01*
X149900000Y-51500000D02*
X155875000Y-51500000D01*
X155875000Y-51500000D02*
X156000000Y-51375000D01*
X149900000Y-52500000D02*
X154875000Y-52500000D01*
X154875000Y-52500000D02*
X156000000Y-51375000D01*
X149900000Y-53500000D02*
X153875000Y-53500000D01*
X153875000Y-53500000D02*
X156000000Y-51375000D01*
X149900000Y-54500000D02*
X152875000Y-54500000D01*
X152875000Y-54500000D02*
X156000000Y-51375000D01*
X149900000Y-55500000D02*
X151875000Y-55500000D01*
X151875000Y-55500000D02*
X156000000Y-51375000D01*
X162300000Y-55700000D02*
X160325000Y-55700000D01*
X160325000Y-55700000D02*
X156000000Y-51375000D01*
X162300000Y-54700000D02*
X159325000Y-54700000D01*
X159325000Y-54700000D02*
X156000000Y-51375000D01*
X162300000Y-53700000D02*
X158325000Y-53700000D01*
X158325000Y-53700000D02*
X156000000Y-51375000D01*
X162300000Y-52700000D02*
X157325000Y-52700000D01*
X157325000Y-52700000D02*
X156000000Y-51375000D01*
X156325000Y-51700000D02*
X156000000Y-51375000D01*
X163000000Y-47800000D02*
X159575000Y-47800000D01*
X159575000Y-47800000D02*
X156000000Y-51375000D01*
X153500000Y-66500000D02*
X152800000Y-66500000D01*
X152800000Y-66500000D02*
X152550000Y-66250000D01*
X154625000Y-67125000D02*
X153725000Y-67125000D01*
X153500000Y-66900000D02*
X153500000Y-66500000D01*
X153725000Y-67125000D02*
X153500000Y-66900000D01*
X167250000Y-73800000D02*
X167250000Y-74850000D01*
X167250000Y-74850000D02*
X167300000Y-74900000D01*
X155100000Y-73100000D02*
X156300000Y-73100000D01*
X156162000Y-70875000D02*
X156162000Y-71638000D01*
X156100000Y-71700000D02*
X156100000Y-72100000D01*
X156162000Y-71638000D02*
X156100000Y-71700000D01*
X156300000Y-73100000D02*
X156100000Y-72900000D01*
X156100000Y-72900000D02*
X156100000Y-72100000D01*
X157700000Y-72100000D02*
X157613000Y-72013000D01*
X157613000Y-72013000D02*
X157613000Y-70875000D01*
X158500000Y-73100000D02*
X157700000Y-72300000D01*
X157700000Y-72300000D02*
X157700000Y-72100000D01*
X159700000Y-73300000D02*
X159500000Y-73100000D01*
X159500000Y-73100000D02*
X158500000Y-73100000D01*
X137600000Y-69587500D02*
X137600000Y-69600000D01*
X137600000Y-69600000D02*
X138000000Y-70000000D01*
X138000000Y-70000000D02*
X138812500Y-70000000D01*
X132000000Y-66220000D02*
X132000000Y-65400000D01*
X132000000Y-65400000D02*
X131900000Y-65300000D01*
X129800000Y-74400000D02*
X129800000Y-75500000D01*
X132200000Y-76350000D02*
X132050000Y-76500000D01*
X129800000Y-79500000D02*
X130750000Y-79500000D01*
X131250000Y-77300000D02*
X132050000Y-76500000D01*
X131250000Y-79000000D02*
X131250000Y-77300000D01*
X130750000Y-79500000D02*
X131250000Y-79000000D01*
X129800000Y-75500000D02*
X131050000Y-75500000D01*
X131050000Y-75500000D02*
X132050000Y-76500000D01*
X132000000Y-76450000D02*
X132050000Y-76500000D01*
X134280000Y-68500000D02*
X136500000Y-68500000D01*
X136500000Y-68500000D02*
X137412500Y-67587500D01*
X137412500Y-67587500D02*
X137600000Y-67587500D01*
X137600000Y-67587500D02*
X138800000Y-67587500D01*
X138800000Y-67587500D02*
X138812500Y-67600000D01*
X134280000Y-69000000D02*
X135500000Y-69000000D01*
X137187500Y-68812500D02*
X137600000Y-68812500D01*
X136600000Y-69400000D02*
X137187500Y-68812500D01*
X135900000Y-69400000D02*
X136600000Y-69400000D01*
X135500000Y-69000000D02*
X135900000Y-69400000D01*
X137600000Y-68812500D02*
X138800000Y-68812500D01*
X138800000Y-68812500D02*
X138812500Y-68800000D01*
D50*
X141012500Y-68500000D02*
X140500000Y-68500000D01*
X140200000Y-68800000D02*
X139587500Y-68800000D01*
X140500000Y-68500000D02*
X140200000Y-68800000D01*
X141012500Y-68500000D02*
X140487500Y-68500000D01*
X140487500Y-68500000D02*
X139587500Y-67600000D01*
X146300000Y-68500000D02*
X141787500Y-68500000D01*
D47*
X147500000Y-70900000D02*
X145900000Y-70900000D01*
X146300000Y-69150000D02*
X146300000Y-69700000D01*
X145900000Y-70100000D02*
X145900000Y-70900000D01*
X146300000Y-69700000D02*
X145900000Y-70100000D01*
D50*
X151862500Y-67750000D02*
X149250000Y-67750000D01*
X149150000Y-67850000D02*
X148200000Y-67850000D01*
X149250000Y-67750000D02*
X149150000Y-67850000D01*
X154625000Y-67875000D02*
X153875000Y-67875000D01*
X153750000Y-67750000D02*
X152637500Y-67750000D01*
X153875000Y-67875000D02*
X153750000Y-67750000D01*
X151862500Y-69250000D02*
X149000000Y-69250000D01*
X148900000Y-69150000D02*
X148200000Y-69150000D01*
X149000000Y-69250000D02*
X148900000Y-69150000D01*
X154625000Y-69375000D02*
X153625000Y-69375000D01*
X153500000Y-69250000D02*
X152637500Y-69250000D01*
X153625000Y-69375000D02*
X153500000Y-69250000D01*
D47*
X169250000Y-72200000D02*
X171250000Y-72200000D01*
X167250000Y-72200000D02*
X169250000Y-72200000D01*
X165250000Y-72200000D02*
X167250000Y-72200000D01*
X159875000Y-67875000D02*
X160875000Y-67875000D01*
X165250000Y-71250000D02*
X165250000Y-72200000D01*
X162700000Y-68700000D02*
X165250000Y-71250000D01*
X161700000Y-68700000D02*
X162700000Y-68700000D01*
X160875000Y-67875000D02*
X161700000Y-68700000D01*
D50*
X170720000Y-63500000D02*
X165250000Y-63500000D01*
X163250000Y-66250000D02*
X162387500Y-66250000D01*
X164500000Y-65000000D02*
X163250000Y-66250000D01*
X164500000Y-64250000D02*
X164500000Y-65000000D01*
X165250000Y-63500000D02*
X164500000Y-64250000D01*
X159875000Y-66375000D02*
X160625000Y-66375000D01*
X160750000Y-66250000D02*
X161612500Y-66250000D01*
X160625000Y-66375000D02*
X160750000Y-66250000D01*
D47*
X169950000Y-50500000D02*
X168300000Y-50500000D01*
X169950000Y-53500000D02*
X168300000Y-53500000D01*
D49*
X117000000Y-51500000D02*
X118500000Y-51500000D01*
X122250000Y-50150000D02*
X120900000Y-51500000D01*
X120900000Y-51500000D02*
X118500000Y-51500000D01*
X122250000Y-50150000D02*
X125100000Y-50150000D01*
X125100000Y-50150000D02*
X126850000Y-50150000D01*
X127500000Y-49500000D02*
X129070000Y-49500000D01*
X126850000Y-50150000D02*
X127500000Y-49500000D01*
D47*
X132500000Y-72600000D02*
X132900000Y-73000000D01*
X132500000Y-71780000D02*
X132500000Y-72600000D01*
X131480000Y-44770000D02*
X128950000Y-44770000D01*
X131500000Y-44750000D02*
X131480000Y-44770000D01*
X125050000Y-44770000D02*
X123230000Y-44770000D01*
X123230000Y-44770000D02*
X123200000Y-44800000D01*
X132000000Y-71780000D02*
X132000000Y-72750000D01*
X132000000Y-72750000D02*
X133000000Y-73750000D01*
X129800000Y-77500000D02*
X128800000Y-76500000D01*
X130730000Y-42230000D02*
X128950000Y-42230000D01*
X130750000Y-42250000D02*
X130730000Y-42230000D01*
X128800000Y-76500000D02*
X127000000Y-76500000D01*
X128200000Y-79500000D02*
X128200000Y-79100000D01*
X128200000Y-79100000D02*
X129800000Y-77500000D01*
X119950000Y-63000000D02*
X117040000Y-63000000D01*
X117040000Y-63000000D02*
X117000000Y-63040000D01*
X119950000Y-65500000D02*
X118500000Y-65500000D01*
X118420000Y-65580000D02*
X117000000Y-65580000D01*
X118500000Y-65500000D02*
X118420000Y-65580000D01*
X119950000Y-68250000D02*
X117130000Y-68250000D01*
X117130000Y-68250000D02*
X117000000Y-68120000D01*
X119950000Y-70750000D02*
X117090000Y-70750000D01*
X117090000Y-70750000D02*
X117000000Y-70660000D01*
X119950000Y-73500000D02*
X117300000Y-73500000D01*
X117300000Y-73500000D02*
X117000000Y-73200000D01*
X124500000Y-82050000D02*
X125750000Y-83300000D01*
X125750000Y-83710000D02*
X127040000Y-85000000D01*
X125750000Y-83300000D02*
X125750000Y-83710000D01*
X128300000Y-82000000D02*
X128300000Y-82700000D01*
X129580000Y-83980000D02*
X129580000Y-85000000D01*
X128300000Y-82700000D02*
X129580000Y-83980000D01*
X131800000Y-82000000D02*
X131800000Y-83400000D01*
X132120000Y-83720000D02*
X132120000Y-85000000D01*
X131800000Y-83400000D02*
X132120000Y-83720000D01*
X135300000Y-82000000D02*
X135300000Y-82800000D01*
X134660000Y-83440000D02*
X134660000Y-85000000D01*
X135300000Y-82800000D02*
X134660000Y-83440000D01*
X138800000Y-82000000D02*
X138800000Y-83400000D01*
X138800000Y-83400000D02*
X137200000Y-85000000D01*
X146250000Y-65000000D02*
X141650000Y-60400000D01*
X131500000Y-65600000D02*
X131400000Y-65500000D01*
X131400000Y-65500000D02*
X131400000Y-64900000D01*
X131500000Y-65600000D02*
X131500000Y-66220000D01*
X141650000Y-60400000D02*
X134200000Y-60400000D01*
X142200000Y-78000000D02*
X142200000Y-74200000D01*
X141500000Y-73500000D02*
X141500000Y-72750000D01*
X142200000Y-74200000D02*
X141500000Y-73500000D01*
X146300000Y-65050000D02*
X146300000Y-67850000D01*
X146250000Y-65000000D02*
X146300000Y-65050000D01*
X142200000Y-80000000D02*
X142200000Y-78000000D01*
X133200000Y-75400000D02*
X132400000Y-75400000D01*
X166700000Y-51500000D02*
X166400000Y-51800000D01*
X135000000Y-75800000D02*
X134600000Y-75400000D01*
X134600000Y-75400000D02*
X133200000Y-75400000D01*
X166700000Y-50500000D02*
X166700000Y-51500000D01*
X130500000Y-73500000D02*
X130500000Y-71780000D01*
X132400000Y-75400000D02*
X130500000Y-73500000D01*
X131000000Y-73200000D02*
X132800000Y-75000000D01*
X132800000Y-75000000D02*
X135000000Y-75000000D01*
X135000000Y-75000000D02*
X137000000Y-77000000D01*
X131000000Y-71780000D02*
X131000000Y-73200000D01*
X166700000Y-54700000D02*
X166700000Y-53500000D01*
X166600000Y-54800000D02*
X166700000Y-54700000D01*
X128720000Y-70000000D02*
X127200000Y-70000000D01*
X137200000Y-80000000D02*
X137200000Y-82000000D01*
X124800000Y-79000000D02*
X124600000Y-79200000D01*
X124800000Y-72400000D02*
X124800000Y-79000000D01*
X127200000Y-70000000D02*
X124800000Y-72400000D01*
X128720000Y-70500000D02*
X127300000Y-70500000D01*
X125200000Y-79750000D02*
X124500000Y-80450000D01*
X125200000Y-72600000D02*
X125200000Y-79750000D01*
X127300000Y-70500000D02*
X125200000Y-72600000D01*
X128720000Y-71000000D02*
X127400000Y-71000000D01*
X134800000Y-80800000D02*
X133700000Y-81900000D01*
X125600000Y-78600000D02*
X127800000Y-80800000D01*
X125600000Y-72800000D02*
X125600000Y-78600000D01*
X127400000Y-71000000D02*
X125600000Y-72800000D01*
X133700000Y-81900000D02*
X133700000Y-82000000D01*
X130000000Y-71780000D02*
X130000000Y-73800000D01*
X130200000Y-81400000D02*
X130200000Y-82000000D01*
X131000000Y-80600000D02*
X130200000Y-81400000D01*
X134000000Y-80600000D02*
X131000000Y-80600000D01*
X135600000Y-79000000D02*
X134000000Y-80600000D01*
X135600000Y-77000000D02*
X135600000Y-79000000D01*
X130000000Y-73800000D02*
X131000000Y-74800000D01*
X123500000Y-66250000D02*
X123400000Y-66350000D01*
X123500000Y-66250000D02*
X126500000Y-63250000D01*
X126500000Y-63250000D02*
X127250000Y-63250000D01*
X127250000Y-63250000D02*
X128000000Y-64000000D01*
X128000000Y-64000000D02*
X128000000Y-66750000D01*
X128000000Y-66750000D02*
X128250000Y-67000000D01*
X128720000Y-67000000D02*
X128250000Y-67000000D01*
X121600000Y-72000000D02*
X121600000Y-73450000D01*
X123400000Y-70200000D02*
X121600000Y-72000000D01*
X123400000Y-70000000D02*
X123400000Y-70200000D01*
X123400000Y-66350000D02*
X123400000Y-70000000D01*
X121600000Y-73450000D02*
X121550000Y-73500000D01*
X129500000Y-66220000D02*
X129500000Y-65500000D01*
X122750000Y-63000000D02*
X121550000Y-63000000D01*
X124000000Y-61750000D02*
X122750000Y-63000000D01*
X124750000Y-61750000D02*
X124000000Y-61750000D01*
X129000000Y-61750000D02*
X124750000Y-61750000D01*
X129500000Y-65500000D02*
X129000000Y-65000000D01*
X124250000Y-63750000D02*
X125750000Y-62250000D01*
X130000000Y-65000000D02*
X129500000Y-64500000D01*
X130000000Y-66220000D02*
X130000000Y-65000000D01*
X122250000Y-68250000D02*
X122500000Y-68000000D01*
X122500000Y-68000000D02*
X122500000Y-65500000D01*
X122500000Y-65500000D02*
X124250000Y-63750000D01*
X122250000Y-68250000D02*
X121550000Y-68250000D01*
X129250000Y-62250000D02*
X129500000Y-62500000D01*
X125750000Y-62250000D02*
X129250000Y-62250000D01*
X126250000Y-62750000D02*
X127500000Y-62750000D01*
X122100000Y-70750000D02*
X123000000Y-69850000D01*
X123000000Y-69850000D02*
X123000000Y-66000000D01*
X123000000Y-66000000D02*
X126250000Y-62750000D01*
X130250000Y-64250000D02*
X130250000Y-64750000D01*
X130250000Y-64750000D02*
X130500000Y-65000000D01*
X130500000Y-66220000D02*
X130500000Y-65000000D01*
X122100000Y-70750000D02*
X121550000Y-70750000D01*
X129750000Y-63750000D02*
X130250000Y-64250000D01*
X128500000Y-63750000D02*
X129750000Y-63750000D01*
X127500000Y-62750000D02*
X128500000Y-63750000D01*
X124025000Y-71375000D02*
X124025000Y-73375000D01*
X126900000Y-68500000D02*
X124025000Y-71375000D01*
X126900000Y-68500000D02*
X128720000Y-68500000D01*
X123800000Y-76550000D02*
X124000000Y-76800000D01*
X123800000Y-73600000D02*
X123800000Y-76550000D01*
X124025000Y-73375000D02*
X123800000Y-73600000D01*
X159875000Y-69375000D02*
X160875000Y-69375000D01*
X162000000Y-74750000D02*
X158750000Y-78000000D01*
X158750000Y-78000000D02*
X157250000Y-79500000D01*
X162000000Y-70500000D02*
X162000000Y-74750000D01*
X160875000Y-69375000D02*
X162000000Y-70500000D01*
X157250000Y-80450000D02*
X157250000Y-79500000D01*
X154250000Y-79250000D02*
X154250000Y-80450000D01*
X131500000Y-71780000D02*
X131500000Y-73100000D01*
X132800000Y-74400000D02*
X134400000Y-74400000D01*
X131500000Y-73100000D02*
X132800000Y-74400000D01*
X152450000Y-82050000D02*
X154250000Y-82050000D01*
X151900000Y-81500000D02*
X152450000Y-82050000D01*
X151900000Y-74300000D02*
X151900000Y-81500000D01*
X134280000Y-67000000D02*
X134800000Y-67000000D01*
X137800000Y-63600000D02*
X138500000Y-63600000D01*
X136900000Y-64500000D02*
X137800000Y-63600000D01*
X136900000Y-64900000D02*
X136900000Y-64500000D01*
X136600000Y-65200000D02*
X136900000Y-64900000D01*
X136100000Y-65200000D02*
X136600000Y-65200000D01*
X135100000Y-66200000D02*
X136100000Y-65200000D01*
X135100000Y-66700000D02*
X135100000Y-66200000D01*
X134800000Y-67000000D02*
X135100000Y-66700000D01*
X139500000Y-55300000D02*
X141800000Y-55300000D01*
X141800000Y-55300000D02*
X141950000Y-55150000D01*
X137900000Y-55300000D02*
X136700000Y-55300000D01*
X135000000Y-70000000D02*
X134280000Y-70000000D01*
X135000000Y-70000000D02*
X135400000Y-70400000D01*
X137950000Y-55350000D02*
X137900000Y-55300000D01*
X128720000Y-69000000D02*
X127200000Y-69000000D01*
X143200000Y-56800000D02*
X144700000Y-58300000D01*
X128400000Y-56800000D02*
X143200000Y-56800000D01*
X128000000Y-57200000D02*
X128400000Y-56800000D01*
X127200000Y-69000000D02*
X126800000Y-69400000D01*
X144700000Y-58300000D02*
X146300000Y-58300000D01*
X128720000Y-69500000D02*
X127600000Y-69500000D01*
X135300000Y-51700000D02*
X135300000Y-50600000D01*
X134900000Y-52100000D02*
X135300000Y-51700000D01*
X134300000Y-52100000D02*
X134900000Y-52100000D01*
X135300000Y-50600000D02*
X137200000Y-50600000D01*
X124250000Y-70250000D02*
X123400000Y-71100000D01*
X126500000Y-68000000D02*
X124250000Y-70250000D01*
X160250000Y-80450000D02*
X160250000Y-78500000D01*
X126500000Y-68000000D02*
X128720000Y-68000000D01*
X123200000Y-77450000D02*
X124250000Y-78500000D01*
X123200000Y-73600000D02*
X123200000Y-77450000D01*
X123400000Y-73400000D02*
X123200000Y-73600000D01*
X123400000Y-71100000D02*
X123400000Y-73400000D01*
X159875000Y-68625000D02*
X161025000Y-68625000D01*
X163300000Y-77400000D02*
X160250000Y-80450000D01*
X163300000Y-70900000D02*
X163300000Y-77400000D01*
X161025000Y-68625000D02*
X163300000Y-70900000D01*
D50*
X158338000Y-65625000D02*
X158338000Y-64412000D01*
X160500000Y-59750000D02*
X158750000Y-59750000D01*
X161250000Y-60500000D02*
X160500000Y-59750000D01*
X161250000Y-63000000D02*
X161250000Y-60500000D01*
X160500000Y-63750000D02*
X161250000Y-63000000D01*
X159000000Y-63750000D02*
X160500000Y-63750000D01*
X158338000Y-64412000D02*
X159000000Y-63750000D01*
D47*
X143800000Y-80000000D02*
X143800000Y-82000000D01*
X144040000Y-82240000D02*
X144040000Y-85000000D01*
X143800000Y-82000000D02*
X144040000Y-82240000D01*
X148050000Y-80000000D02*
X148050000Y-80750000D01*
X146580000Y-82220000D02*
X146580000Y-85000000D01*
X148050000Y-80750000D02*
X146580000Y-82220000D01*
X133000000Y-71780000D02*
X133000000Y-72250000D01*
X171250000Y-75750000D02*
X171250000Y-73800000D01*
X169500000Y-77500000D02*
X171250000Y-75750000D01*
X164250000Y-77500000D02*
X169500000Y-77500000D01*
X133000000Y-72250000D02*
X138250000Y-77500000D01*
D50*
X156162000Y-65625000D02*
X156162000Y-64412000D01*
X153250000Y-60500000D02*
X154000000Y-59750000D01*
X153250000Y-63000000D02*
X153250000Y-60500000D01*
X154000000Y-63750000D02*
X153250000Y-63000000D01*
X155500000Y-63750000D02*
X154000000Y-63750000D01*
X156162000Y-64412000D02*
X155500000Y-63750000D01*
X154000000Y-59750000D02*
X155750000Y-59750000D01*
D47*
X118700000Y-78500000D02*
X118500000Y-78700000D01*
X118500000Y-78700000D02*
X118500000Y-83500000D01*
X117800000Y-48000000D02*
X117800000Y-47950000D01*
X117800000Y-47950000D02*
X118500000Y-47250000D01*
X118500000Y-47250000D02*
X118500000Y-43500000D01*
X163000000Y-42700000D02*
X163700000Y-42700000D01*
X164500000Y-43500000D02*
X168500000Y-43500000D01*
X163700000Y-42700000D02*
X164500000Y-43500000D01*
X164300000Y-80000000D02*
X165000000Y-80000000D01*
X165000000Y-80000000D02*
X168500000Y-83500000D01*
X131000000Y-66220000D02*
X131000000Y-65300000D01*
X130900000Y-65200000D02*
X130900000Y-64500000D01*
X131000000Y-65300000D02*
X130900000Y-65200000D01*
X144650000Y-76200000D02*
X146450000Y-78000000D01*
X143800000Y-76200000D02*
X144650000Y-76200000D01*
X143000000Y-77000000D02*
X143800000Y-76200000D01*
X146500000Y-77950000D02*
X146450000Y-78000000D01*
X146250000Y-77800000D02*
X146450000Y-78000000D01*
X146450000Y-80000000D02*
X146450000Y-78000000D01*
X159875000Y-70125000D02*
X160525000Y-70125000D01*
X147550000Y-79100000D02*
X146450000Y-78000000D01*
X148900000Y-79100000D02*
X147550000Y-79100000D01*
X149700000Y-79900000D02*
X148900000Y-79100000D01*
X149700000Y-81300000D02*
X149700000Y-79900000D01*
X151700000Y-83300000D02*
X149700000Y-81300000D01*
X155300000Y-83300000D02*
X151700000Y-83300000D01*
X155700000Y-82900000D02*
X155300000Y-83300000D01*
X155700000Y-79500000D02*
X155700000Y-82900000D01*
X156500000Y-78700000D02*
X155700000Y-79500000D01*
X156500000Y-78700000D02*
X156500000Y-78700000D01*
X161100000Y-74100000D02*
X156500000Y-78700000D01*
X161100000Y-70700000D02*
X161100000Y-74100000D01*
X160525000Y-70125000D02*
X161100000Y-70700000D01*
D48*
G36*
X164636500Y-43043803D02*
G01*
X164010907Y-42418211D01*
X163997782Y-42402218D01*
X163933966Y-42349846D01*
X163861158Y-42310929D01*
X163819036Y-42298152D01*
X163819036Y-42290000D01*
X163812906Y-42227759D01*
X163794751Y-42167910D01*
X163765269Y-42112753D01*
X163725593Y-42064407D01*
X163677247Y-42024731D01*
X163622090Y-41995249D01*
X163562241Y-41977094D01*
X163500000Y-41970964D01*
X162500000Y-41970964D01*
X162437759Y-41977094D01*
X162377910Y-41995249D01*
X162322753Y-42024731D01*
X162274407Y-42064407D01*
X162234731Y-42112753D01*
X162205249Y-42167910D01*
X162187094Y-42227759D01*
X162180964Y-42290000D01*
X162180964Y-43110000D01*
X162187094Y-43172241D01*
X162205249Y-43232090D01*
X162234731Y-43287247D01*
X162274407Y-43335593D01*
X162322753Y-43375269D01*
X162377910Y-43404751D01*
X162437759Y-43422906D01*
X162500000Y-43429036D01*
X163500000Y-43429036D01*
X163562241Y-43422906D01*
X163622090Y-43404751D01*
X163677247Y-43375269D01*
X163725593Y-43335593D01*
X163733393Y-43326089D01*
X164189097Y-43781794D01*
X164202218Y-43797782D01*
X164266034Y-43850154D01*
X164338842Y-43889071D01*
X164417842Y-43913035D01*
X164500000Y-43921127D01*
X164520580Y-43919100D01*
X164636500Y-43919100D01*
X164636500Y-57236500D01*
X161180723Y-57236500D01*
X161124183Y-57151882D01*
X161048118Y-57075817D01*
X160958675Y-57016053D01*
X160859291Y-56974887D01*
X160753786Y-56953900D01*
X160646214Y-56953900D01*
X160540709Y-56974887D01*
X160441325Y-57016053D01*
X160351882Y-57075817D01*
X160275817Y-57151882D01*
X160225000Y-57227935D01*
X160174183Y-57151882D01*
X160098118Y-57075817D01*
X160008675Y-57016053D01*
X159909291Y-56974887D01*
X159803786Y-56953900D01*
X159696214Y-56953900D01*
X159590709Y-56974887D01*
X159491325Y-57016053D01*
X159401882Y-57075817D01*
X159325817Y-57151882D01*
X159269277Y-57236500D01*
X158937327Y-57236500D01*
X158909291Y-57224887D01*
X158803786Y-57203900D01*
X158696214Y-57203900D01*
X158590709Y-57224887D01*
X158562673Y-57236500D01*
X155937327Y-57236500D01*
X155909291Y-57224887D01*
X155803786Y-57203900D01*
X155696214Y-57203900D01*
X155590709Y-57224887D01*
X155562673Y-57236500D01*
X155180723Y-57236500D01*
X155124183Y-57151882D01*
X155048118Y-57075817D01*
X154958675Y-57016053D01*
X154859291Y-56974887D01*
X154753786Y-56953900D01*
X154646214Y-56953900D01*
X154540709Y-56974887D01*
X154441325Y-57016053D01*
X154351882Y-57075817D01*
X154275817Y-57151882D01*
X154219277Y-57236500D01*
X154180723Y-57236500D01*
X154124183Y-57151882D01*
X154048118Y-57075817D01*
X153958675Y-57016053D01*
X153859291Y-56974887D01*
X153753786Y-56953900D01*
X153646214Y-56953900D01*
X153540709Y-56974887D01*
X153441325Y-57016053D01*
X153351882Y-57075817D01*
X153275817Y-57151882D01*
X153219277Y-57236500D01*
X152989276Y-57236500D01*
X152958675Y-57216053D01*
X152859291Y-57174887D01*
X152753786Y-57153900D01*
X152646214Y-57153900D01*
X152540709Y-57174887D01*
X152441325Y-57216053D01*
X152410724Y-57236500D01*
X149163500Y-57236500D01*
X149163500Y-56075000D01*
X150280964Y-56075000D01*
X150287094Y-56137241D01*
X150305249Y-56197090D01*
X150334731Y-56252247D01*
X150374407Y-56300593D01*
X150422753Y-56340269D01*
X150477910Y-56369751D01*
X150537759Y-56387906D01*
X150600000Y-56394036D01*
X154714125Y-56392500D01*
X154793500Y-56313125D01*
X154793500Y-52581500D01*
X157206500Y-52581500D01*
X157206500Y-56313125D01*
X157285875Y-56392500D01*
X161400000Y-56394036D01*
X161462241Y-56387906D01*
X161522090Y-56369751D01*
X161577247Y-56340269D01*
X161625593Y-56300593D01*
X161665269Y-56252247D01*
X161694751Y-56197090D01*
X161712906Y-56137241D01*
X161719036Y-56075000D01*
X161717500Y-52660875D01*
X161638125Y-52581500D01*
X157206500Y-52581500D01*
X154793500Y-52581500D01*
X150361875Y-52581500D01*
X150282500Y-52660875D01*
X150280964Y-56075000D01*
X149163500Y-56075000D01*
X149163500Y-55982617D01*
X149177247Y-55975269D01*
X149225593Y-55935593D01*
X149265269Y-55887247D01*
X149294751Y-55832090D01*
X149312906Y-55772241D01*
X149319036Y-55710000D01*
X149319036Y-54890000D01*
X149312906Y-54827759D01*
X149294751Y-54767910D01*
X149265269Y-54712753D01*
X149225593Y-54664407D01*
X149177247Y-54624731D01*
X149163500Y-54617383D01*
X149163500Y-54382617D01*
X149177247Y-54375269D01*
X149225593Y-54335593D01*
X149265269Y-54287247D01*
X149294751Y-54232090D01*
X149312906Y-54172241D01*
X149319036Y-54110000D01*
X149319036Y-53290000D01*
X149312906Y-53227759D01*
X149294751Y-53167910D01*
X149265269Y-53112753D01*
X149225593Y-53064407D01*
X149177247Y-53024731D01*
X149163500Y-53017383D01*
X149163500Y-48529036D01*
X149200000Y-48529036D01*
X149262241Y-48522906D01*
X149322090Y-48504751D01*
X149377247Y-48475269D01*
X149425593Y-48435593D01*
X149465269Y-48387247D01*
X149494751Y-48332090D01*
X149512906Y-48272241D01*
X149519036Y-48210000D01*
X149519036Y-46750000D01*
X149512906Y-46687759D01*
X149509036Y-46675000D01*
X150280964Y-46675000D01*
X150282500Y-50089125D01*
X150361875Y-50168500D01*
X154793500Y-50168500D01*
X154793500Y-46436875D01*
X157206500Y-46436875D01*
X157206500Y-50168500D01*
X161638125Y-50168500D01*
X161717500Y-50089125D01*
X161718338Y-48225875D01*
X162182500Y-48225875D01*
X162187867Y-48276006D01*
X162206742Y-48335632D01*
X162236886Y-48390430D01*
X162277142Y-48438294D01*
X162325962Y-48477385D01*
X162381470Y-48506200D01*
X162441534Y-48523633D01*
X162484125Y-48527500D01*
X162563500Y-48448125D01*
X162563500Y-48146500D01*
X163436500Y-48146500D01*
X163436500Y-48448125D01*
X163515875Y-48527500D01*
X163558466Y-48523633D01*
X163618530Y-48506200D01*
X163674038Y-48477385D01*
X163722858Y-48438294D01*
X163763114Y-48390430D01*
X163793258Y-48335632D01*
X163812133Y-48276006D01*
X163817500Y-48225875D01*
X163738125Y-48146500D01*
X163436500Y-48146500D01*
X162563500Y-48146500D01*
X162261875Y-48146500D01*
X162182500Y-48225875D01*
X161718338Y-48225875D01*
X161718721Y-47374125D01*
X162182500Y-47374125D01*
X162261875Y-47453500D01*
X162563500Y-47453500D01*
X162563500Y-47151875D01*
X163436500Y-47151875D01*
X163436500Y-47453500D01*
X163738125Y-47453500D01*
X163817500Y-47374125D01*
X163812133Y-47323994D01*
X163793258Y-47264368D01*
X163763114Y-47209570D01*
X163722858Y-47161706D01*
X163674038Y-47122615D01*
X163618530Y-47093800D01*
X163558466Y-47076367D01*
X163515875Y-47072500D01*
X163436500Y-47151875D01*
X162563500Y-47151875D01*
X162484125Y-47072500D01*
X162441534Y-47076367D01*
X162381470Y-47093800D01*
X162325962Y-47122615D01*
X162277142Y-47161706D01*
X162236886Y-47209570D01*
X162206742Y-47264368D01*
X162187867Y-47323994D01*
X162182500Y-47374125D01*
X161718721Y-47374125D01*
X161719036Y-46675000D01*
X161712906Y-46612759D01*
X161694751Y-46552910D01*
X161665269Y-46497753D01*
X161625593Y-46449407D01*
X161577247Y-46409731D01*
X161522090Y-46380249D01*
X161462241Y-46362094D01*
X161400000Y-46355964D01*
X157285875Y-46357500D01*
X157206500Y-46436875D01*
X154793500Y-46436875D01*
X154714125Y-46357500D01*
X150600000Y-46355964D01*
X150537759Y-46362094D01*
X150477910Y-46380249D01*
X150422753Y-46409731D01*
X150374407Y-46449407D01*
X150334731Y-46497753D01*
X150305249Y-46552910D01*
X150287094Y-46612759D01*
X150280964Y-46675000D01*
X149509036Y-46675000D01*
X149494751Y-46627910D01*
X149465269Y-46572753D01*
X149425593Y-46524407D01*
X149377247Y-46484731D01*
X149322090Y-46455249D01*
X149262241Y-46437094D01*
X149200000Y-46430964D01*
X149163500Y-46430964D01*
X149163500Y-45569036D01*
X149200000Y-45569036D01*
X149262241Y-45562906D01*
X149322090Y-45544751D01*
X149377247Y-45515269D01*
X149425593Y-45475593D01*
X149465269Y-45427247D01*
X149494751Y-45372090D01*
X149512906Y-45312241D01*
X149519036Y-45250000D01*
X149519036Y-44168396D01*
X150636933Y-43050500D01*
X152590964Y-43050500D01*
X152590964Y-44525000D01*
X152597094Y-44587241D01*
X152615249Y-44647090D01*
X152644731Y-44702247D01*
X152684407Y-44750593D01*
X152732753Y-44790269D01*
X152787910Y-44819751D01*
X152847759Y-44837906D01*
X152910000Y-44844036D01*
X154010000Y-44844036D01*
X154072241Y-44837906D01*
X154132090Y-44819751D01*
X154187247Y-44790269D01*
X154235593Y-44750593D01*
X154275269Y-44702247D01*
X154304751Y-44647090D01*
X154322906Y-44587241D01*
X154329036Y-44525000D01*
X154329036Y-44523970D01*
X155130966Y-44523970D01*
X155136895Y-44586230D01*
X155154857Y-44646138D01*
X155184160Y-44701390D01*
X155223680Y-44749863D01*
X155271898Y-44789695D01*
X155326959Y-44819355D01*
X155386749Y-44837703D01*
X155434125Y-44842500D01*
X155513500Y-44763125D01*
X155513500Y-43431500D01*
X156486500Y-43431500D01*
X156486500Y-44763125D01*
X156565875Y-44842500D01*
X156613251Y-44837703D01*
X156673041Y-44819355D01*
X156728102Y-44789695D01*
X156776320Y-44749863D01*
X156815840Y-44701390D01*
X156845143Y-44646138D01*
X156863105Y-44586230D01*
X156869034Y-44523970D01*
X156867500Y-43510875D01*
X156788125Y-43431500D01*
X156486500Y-43431500D01*
X155513500Y-43431500D01*
X155211875Y-43431500D01*
X155132500Y-43510875D01*
X155130966Y-44523970D01*
X154329036Y-44523970D01*
X154329036Y-39926030D01*
X155130966Y-39926030D01*
X155132500Y-40939125D01*
X155211875Y-41018500D01*
X155513500Y-41018500D01*
X155513500Y-39686875D01*
X156486500Y-39686875D01*
X156486500Y-41018500D01*
X156788125Y-41018500D01*
X156867500Y-40939125D01*
X156869034Y-39926030D01*
X156868936Y-39925000D01*
X157670964Y-39925000D01*
X157670964Y-44525000D01*
X157677094Y-44587241D01*
X157695249Y-44647090D01*
X157724731Y-44702247D01*
X157764407Y-44750593D01*
X157812753Y-44790269D01*
X157867910Y-44819751D01*
X157927759Y-44837906D01*
X157990000Y-44844036D01*
X159090000Y-44844036D01*
X159152241Y-44837906D01*
X159212090Y-44819751D01*
X159267247Y-44790269D01*
X159315593Y-44750593D01*
X159355269Y-44702247D01*
X159384751Y-44647090D01*
X159402906Y-44587241D01*
X159409036Y-44525000D01*
X159409036Y-44319100D01*
X159546799Y-44319100D01*
X159551882Y-44324183D01*
X159641325Y-44383947D01*
X159740709Y-44425113D01*
X159846214Y-44446100D01*
X159953786Y-44446100D01*
X160059291Y-44425113D01*
X160158675Y-44383947D01*
X160248118Y-44324183D01*
X160324183Y-44248118D01*
X160383947Y-44158675D01*
X160425113Y-44059291D01*
X160446100Y-43953786D01*
X160446100Y-43890000D01*
X162180964Y-43890000D01*
X162180964Y-44710000D01*
X162187094Y-44772241D01*
X162205249Y-44832090D01*
X162234731Y-44887247D01*
X162274407Y-44935593D01*
X162322753Y-44975269D01*
X162377910Y-45004751D01*
X162437759Y-45022906D01*
X162500000Y-45029036D01*
X162500433Y-45029036D01*
X162474887Y-45090709D01*
X162453900Y-45196214D01*
X162453900Y-45303786D01*
X162474887Y-45409291D01*
X162500433Y-45470964D01*
X162500000Y-45470964D01*
X162437759Y-45477094D01*
X162377910Y-45495249D01*
X162322753Y-45524731D01*
X162274407Y-45564407D01*
X162234731Y-45612753D01*
X162205249Y-45667910D01*
X162187094Y-45727759D01*
X162180964Y-45790000D01*
X162180964Y-46610000D01*
X162187094Y-46672241D01*
X162205249Y-46732090D01*
X162234731Y-46787247D01*
X162274407Y-46835593D01*
X162322753Y-46875269D01*
X162377910Y-46904751D01*
X162437759Y-46922906D01*
X162500000Y-46929036D01*
X163500000Y-46929036D01*
X163562241Y-46922906D01*
X163622090Y-46904751D01*
X163677247Y-46875269D01*
X163725593Y-46835593D01*
X163765269Y-46787247D01*
X163794751Y-46732090D01*
X163812906Y-46672241D01*
X163819036Y-46610000D01*
X163819036Y-45790000D01*
X163812906Y-45727759D01*
X163794751Y-45667910D01*
X163765269Y-45612753D01*
X163725593Y-45564407D01*
X163677247Y-45524731D01*
X163622090Y-45495249D01*
X163562241Y-45477094D01*
X163500000Y-45470964D01*
X163499567Y-45470964D01*
X163525113Y-45409291D01*
X163546100Y-45303786D01*
X163546100Y-45196214D01*
X163525113Y-45090709D01*
X163499567Y-45029036D01*
X163500000Y-45029036D01*
X163562241Y-45022906D01*
X163622090Y-45004751D01*
X163677247Y-44975269D01*
X163725593Y-44935593D01*
X163765269Y-44887247D01*
X163794751Y-44832090D01*
X163812906Y-44772241D01*
X163819036Y-44710000D01*
X163819036Y-43890000D01*
X163812906Y-43827759D01*
X163794751Y-43767910D01*
X163765269Y-43712753D01*
X163725593Y-43664407D01*
X163677247Y-43624731D01*
X163622090Y-43595249D01*
X163562241Y-43577094D01*
X163500000Y-43570964D01*
X162500000Y-43570964D01*
X162437759Y-43577094D01*
X162377910Y-43595249D01*
X162322753Y-43624731D01*
X162274407Y-43664407D01*
X162234731Y-43712753D01*
X162205249Y-43767910D01*
X162187094Y-43827759D01*
X162180964Y-43890000D01*
X160446100Y-43890000D01*
X160446100Y-43846214D01*
X160425113Y-43740709D01*
X160383947Y-43641325D01*
X160324183Y-43551882D01*
X160272301Y-43500000D01*
X160324183Y-43448118D01*
X160383947Y-43358675D01*
X160425113Y-43259291D01*
X160446100Y-43153786D01*
X160446100Y-43046214D01*
X160425113Y-42940709D01*
X160383947Y-42841325D01*
X160324183Y-42751882D01*
X160272301Y-42700000D01*
X160324183Y-42648118D01*
X160383947Y-42558675D01*
X160425113Y-42459291D01*
X160446100Y-42353786D01*
X160446100Y-42246214D01*
X160425113Y-42140709D01*
X160383947Y-42041325D01*
X160324183Y-41951882D01*
X160272301Y-41900000D01*
X160324183Y-41848118D01*
X160383947Y-41758675D01*
X160425113Y-41659291D01*
X160446100Y-41553786D01*
X160446100Y-41446214D01*
X160425113Y-41340709D01*
X160383947Y-41241325D01*
X160324183Y-41151882D01*
X160272301Y-41100000D01*
X160324183Y-41048118D01*
X160383947Y-40958675D01*
X160425113Y-40859291D01*
X160446100Y-40753786D01*
X160446100Y-40646214D01*
X160425113Y-40540709D01*
X160383947Y-40441325D01*
X160324183Y-40351882D01*
X160248118Y-40275817D01*
X160158675Y-40216053D01*
X160059291Y-40174887D01*
X159953786Y-40153900D01*
X159846214Y-40153900D01*
X159740709Y-40174887D01*
X159641325Y-40216053D01*
X159551882Y-40275817D01*
X159546799Y-40280900D01*
X159409036Y-40280900D01*
X159409036Y-39925000D01*
X159402906Y-39862759D01*
X159384751Y-39802910D01*
X159355269Y-39747753D01*
X159315593Y-39699407D01*
X159267247Y-39659731D01*
X159212090Y-39630249D01*
X159152241Y-39612094D01*
X159090000Y-39605964D01*
X157990000Y-39605964D01*
X157927759Y-39612094D01*
X157867910Y-39630249D01*
X157812753Y-39659731D01*
X157764407Y-39699407D01*
X157724731Y-39747753D01*
X157695249Y-39802910D01*
X157677094Y-39862759D01*
X157670964Y-39925000D01*
X156868936Y-39925000D01*
X156863105Y-39863770D01*
X156845143Y-39803862D01*
X156815840Y-39748610D01*
X156776320Y-39700137D01*
X156728102Y-39660305D01*
X156673041Y-39630645D01*
X156613251Y-39612297D01*
X156565875Y-39607500D01*
X156486500Y-39686875D01*
X155513500Y-39686875D01*
X155434125Y-39607500D01*
X155386749Y-39612297D01*
X155326959Y-39630645D01*
X155271898Y-39660305D01*
X155223680Y-39700137D01*
X155184160Y-39748610D01*
X155154857Y-39803862D01*
X155136895Y-39863770D01*
X155130966Y-39926030D01*
X154329036Y-39926030D01*
X154329036Y-39925000D01*
X154322906Y-39862759D01*
X154304751Y-39802910D01*
X154275269Y-39747753D01*
X154235593Y-39699407D01*
X154187247Y-39659731D01*
X154132090Y-39630249D01*
X154072241Y-39612094D01*
X154010000Y-39605964D01*
X152910000Y-39605964D01*
X152847759Y-39612094D01*
X152787910Y-39630249D01*
X152732753Y-39659731D01*
X152684407Y-39699407D01*
X152644731Y-39747753D01*
X152615249Y-39802910D01*
X152597094Y-39862759D01*
X152590964Y-39925000D01*
X152590964Y-41399500D01*
X150870624Y-41399500D01*
X150850041Y-41382608D01*
X149529036Y-40061604D01*
X149529036Y-40000000D01*
X149522906Y-39937759D01*
X149504751Y-39877910D01*
X149475269Y-39822753D01*
X149435593Y-39774407D01*
X149387247Y-39734731D01*
X149332090Y-39705249D01*
X149272241Y-39687094D01*
X149210000Y-39680964D01*
X149163500Y-39680964D01*
X149163500Y-38830200D01*
X164636500Y-38830200D01*
X164636500Y-43043803D01*
X164636500Y-43043803D01*
G37*
X164636500Y-43043803D02*
X164010907Y-42418211D01*
X163997782Y-42402218D01*
X163933966Y-42349846D01*
X163861158Y-42310929D01*
X163819036Y-42298152D01*
X163819036Y-42290000D01*
X163812906Y-42227759D01*
X163794751Y-42167910D01*
X163765269Y-42112753D01*
X163725593Y-42064407D01*
X163677247Y-42024731D01*
X163622090Y-41995249D01*
X163562241Y-41977094D01*
X163500000Y-41970964D01*
X162500000Y-41970964D01*
X162437759Y-41977094D01*
X162377910Y-41995249D01*
X162322753Y-42024731D01*
X162274407Y-42064407D01*
X162234731Y-42112753D01*
X162205249Y-42167910D01*
X162187094Y-42227759D01*
X162180964Y-42290000D01*
X162180964Y-43110000D01*
X162187094Y-43172241D01*
X162205249Y-43232090D01*
X162234731Y-43287247D01*
X162274407Y-43335593D01*
X162322753Y-43375269D01*
X162377910Y-43404751D01*
X162437759Y-43422906D01*
X162500000Y-43429036D01*
X163500000Y-43429036D01*
X163562241Y-43422906D01*
X163622090Y-43404751D01*
X163677247Y-43375269D01*
X163725593Y-43335593D01*
X163733393Y-43326089D01*
X164189097Y-43781794D01*
X164202218Y-43797782D01*
X164266034Y-43850154D01*
X164338842Y-43889071D01*
X164417842Y-43913035D01*
X164500000Y-43921127D01*
X164520580Y-43919100D01*
X164636500Y-43919100D01*
X164636500Y-57236500D01*
X161180723Y-57236500D01*
X161124183Y-57151882D01*
X161048118Y-57075817D01*
X160958675Y-57016053D01*
X160859291Y-56974887D01*
X160753786Y-56953900D01*
X160646214Y-56953900D01*
X160540709Y-56974887D01*
X160441325Y-57016053D01*
X160351882Y-57075817D01*
X160275817Y-57151882D01*
X160225000Y-57227935D01*
X160174183Y-57151882D01*
X160098118Y-57075817D01*
X160008675Y-57016053D01*
X159909291Y-56974887D01*
X159803786Y-56953900D01*
X159696214Y-56953900D01*
X159590709Y-56974887D01*
X159491325Y-57016053D01*
X159401882Y-57075817D01*
X159325817Y-57151882D01*
X159269277Y-57236500D01*
X158937327Y-57236500D01*
X158909291Y-57224887D01*
X158803786Y-57203900D01*
X158696214Y-57203900D01*
X158590709Y-57224887D01*
X158562673Y-57236500D01*
X155937327Y-57236500D01*
X155909291Y-57224887D01*
X155803786Y-57203900D01*
X155696214Y-57203900D01*
X155590709Y-57224887D01*
X155562673Y-57236500D01*
X155180723Y-57236500D01*
X155124183Y-57151882D01*
X155048118Y-57075817D01*
X154958675Y-57016053D01*
X154859291Y-56974887D01*
X154753786Y-56953900D01*
X154646214Y-56953900D01*
X154540709Y-56974887D01*
X154441325Y-57016053D01*
X154351882Y-57075817D01*
X154275817Y-57151882D01*
X154219277Y-57236500D01*
X154180723Y-57236500D01*
X154124183Y-57151882D01*
X154048118Y-57075817D01*
X153958675Y-57016053D01*
X153859291Y-56974887D01*
X153753786Y-56953900D01*
X153646214Y-56953900D01*
X153540709Y-56974887D01*
X153441325Y-57016053D01*
X153351882Y-57075817D01*
X153275817Y-57151882D01*
X153219277Y-57236500D01*
X152989276Y-57236500D01*
X152958675Y-57216053D01*
X152859291Y-57174887D01*
X152753786Y-57153900D01*
X152646214Y-57153900D01*
X152540709Y-57174887D01*
X152441325Y-57216053D01*
X152410724Y-57236500D01*
X149163500Y-57236500D01*
X149163500Y-56075000D01*
X150280964Y-56075000D01*
X150287094Y-56137241D01*
X150305249Y-56197090D01*
X150334731Y-56252247D01*
X150374407Y-56300593D01*
X150422753Y-56340269D01*
X150477910Y-56369751D01*
X150537759Y-56387906D01*
X150600000Y-56394036D01*
X154714125Y-56392500D01*
X154793500Y-56313125D01*
X154793500Y-52581500D01*
X157206500Y-52581500D01*
X157206500Y-56313125D01*
X157285875Y-56392500D01*
X161400000Y-56394036D01*
X161462241Y-56387906D01*
X161522090Y-56369751D01*
X161577247Y-56340269D01*
X161625593Y-56300593D01*
X161665269Y-56252247D01*
X161694751Y-56197090D01*
X161712906Y-56137241D01*
X161719036Y-56075000D01*
X161717500Y-52660875D01*
X161638125Y-52581500D01*
X157206500Y-52581500D01*
X154793500Y-52581500D01*
X150361875Y-52581500D01*
X150282500Y-52660875D01*
X150280964Y-56075000D01*
X149163500Y-56075000D01*
X149163500Y-55982617D01*
X149177247Y-55975269D01*
X149225593Y-55935593D01*
X149265269Y-55887247D01*
X149294751Y-55832090D01*
X149312906Y-55772241D01*
X149319036Y-55710000D01*
X149319036Y-54890000D01*
X149312906Y-54827759D01*
X149294751Y-54767910D01*
X149265269Y-54712753D01*
X149225593Y-54664407D01*
X149177247Y-54624731D01*
X149163500Y-54617383D01*
X149163500Y-54382617D01*
X149177247Y-54375269D01*
X149225593Y-54335593D01*
X149265269Y-54287247D01*
X149294751Y-54232090D01*
X149312906Y-54172241D01*
X149319036Y-54110000D01*
X149319036Y-53290000D01*
X149312906Y-53227759D01*
X149294751Y-53167910D01*
X149265269Y-53112753D01*
X149225593Y-53064407D01*
X149177247Y-53024731D01*
X149163500Y-53017383D01*
X149163500Y-48529036D01*
X149200000Y-48529036D01*
X149262241Y-48522906D01*
X149322090Y-48504751D01*
X149377247Y-48475269D01*
X149425593Y-48435593D01*
X149465269Y-48387247D01*
X149494751Y-48332090D01*
X149512906Y-48272241D01*
X149519036Y-48210000D01*
X149519036Y-46750000D01*
X149512906Y-46687759D01*
X149509036Y-46675000D01*
X150280964Y-46675000D01*
X150282500Y-50089125D01*
X150361875Y-50168500D01*
X154793500Y-50168500D01*
X154793500Y-46436875D01*
X157206500Y-46436875D01*
X157206500Y-50168500D01*
X161638125Y-50168500D01*
X161717500Y-50089125D01*
X161718338Y-48225875D01*
X162182500Y-48225875D01*
X162187867Y-48276006D01*
X162206742Y-48335632D01*
X162236886Y-48390430D01*
X162277142Y-48438294D01*
X162325962Y-48477385D01*
X162381470Y-48506200D01*
X162441534Y-48523633D01*
X162484125Y-48527500D01*
X162563500Y-48448125D01*
X162563500Y-48146500D01*
X163436500Y-48146500D01*
X163436500Y-48448125D01*
X163515875Y-48527500D01*
X163558466Y-48523633D01*
X163618530Y-48506200D01*
X163674038Y-48477385D01*
X163722858Y-48438294D01*
X163763114Y-48390430D01*
X163793258Y-48335632D01*
X163812133Y-48276006D01*
X163817500Y-48225875D01*
X163738125Y-48146500D01*
X163436500Y-48146500D01*
X162563500Y-48146500D01*
X162261875Y-48146500D01*
X162182500Y-48225875D01*
X161718338Y-48225875D01*
X161718721Y-47374125D01*
X162182500Y-47374125D01*
X162261875Y-47453500D01*
X162563500Y-47453500D01*
X162563500Y-47151875D01*
X163436500Y-47151875D01*
X163436500Y-47453500D01*
X163738125Y-47453500D01*
X163817500Y-47374125D01*
X163812133Y-47323994D01*
X163793258Y-47264368D01*
X163763114Y-47209570D01*
X163722858Y-47161706D01*
X163674038Y-47122615D01*
X163618530Y-47093800D01*
X163558466Y-47076367D01*
X163515875Y-47072500D01*
X163436500Y-47151875D01*
X162563500Y-47151875D01*
X162484125Y-47072500D01*
X162441534Y-47076367D01*
X162381470Y-47093800D01*
X162325962Y-47122615D01*
X162277142Y-47161706D01*
X162236886Y-47209570D01*
X162206742Y-47264368D01*
X162187867Y-47323994D01*
X162182500Y-47374125D01*
X161718721Y-47374125D01*
X161719036Y-46675000D01*
X161712906Y-46612759D01*
X161694751Y-46552910D01*
X161665269Y-46497753D01*
X161625593Y-46449407D01*
X161577247Y-46409731D01*
X161522090Y-46380249D01*
X161462241Y-46362094D01*
X161400000Y-46355964D01*
X157285875Y-46357500D01*
X157206500Y-46436875D01*
X154793500Y-46436875D01*
X154714125Y-46357500D01*
X150600000Y-46355964D01*
X150537759Y-46362094D01*
X150477910Y-46380249D01*
X150422753Y-46409731D01*
X150374407Y-46449407D01*
X150334731Y-46497753D01*
X150305249Y-46552910D01*
X150287094Y-46612759D01*
X150280964Y-46675000D01*
X149509036Y-46675000D01*
X149494751Y-46627910D01*
X149465269Y-46572753D01*
X149425593Y-46524407D01*
X149377247Y-46484731D01*
X149322090Y-46455249D01*
X149262241Y-46437094D01*
X149200000Y-46430964D01*
X149163500Y-46430964D01*
X149163500Y-45569036D01*
X149200000Y-45569036D01*
X149262241Y-45562906D01*
X149322090Y-45544751D01*
X149377247Y-45515269D01*
X149425593Y-45475593D01*
X149465269Y-45427247D01*
X149494751Y-45372090D01*
X149512906Y-45312241D01*
X149519036Y-45250000D01*
X149519036Y-44168396D01*
X150636933Y-43050500D01*
X152590964Y-43050500D01*
X152590964Y-44525000D01*
X152597094Y-44587241D01*
X152615249Y-44647090D01*
X152644731Y-44702247D01*
X152684407Y-44750593D01*
X152732753Y-44790269D01*
X152787910Y-44819751D01*
X152847759Y-44837906D01*
X152910000Y-44844036D01*
X154010000Y-44844036D01*
X154072241Y-44837906D01*
X154132090Y-44819751D01*
X154187247Y-44790269D01*
X154235593Y-44750593D01*
X154275269Y-44702247D01*
X154304751Y-44647090D01*
X154322906Y-44587241D01*
X154329036Y-44525000D01*
X154329036Y-44523970D01*
X155130966Y-44523970D01*
X155136895Y-44586230D01*
X155154857Y-44646138D01*
X155184160Y-44701390D01*
X155223680Y-44749863D01*
X155271898Y-44789695D01*
X155326959Y-44819355D01*
X155386749Y-44837703D01*
X155434125Y-44842500D01*
X155513500Y-44763125D01*
X155513500Y-43431500D01*
X156486500Y-43431500D01*
X156486500Y-44763125D01*
X156565875Y-44842500D01*
X156613251Y-44837703D01*
X156673041Y-44819355D01*
X156728102Y-44789695D01*
X156776320Y-44749863D01*
X156815840Y-44701390D01*
X156845143Y-44646138D01*
X156863105Y-44586230D01*
X156869034Y-44523970D01*
X156867500Y-43510875D01*
X156788125Y-43431500D01*
X156486500Y-43431500D01*
X155513500Y-43431500D01*
X155211875Y-43431500D01*
X155132500Y-43510875D01*
X155130966Y-44523970D01*
X154329036Y-44523970D01*
X154329036Y-39926030D01*
X155130966Y-39926030D01*
X155132500Y-40939125D01*
X155211875Y-41018500D01*
X155513500Y-41018500D01*
X155513500Y-39686875D01*
X156486500Y-39686875D01*
X156486500Y-41018500D01*
X156788125Y-41018500D01*
X156867500Y-40939125D01*
X156869034Y-39926030D01*
X156868936Y-39925000D01*
X157670964Y-39925000D01*
X157670964Y-44525000D01*
X157677094Y-44587241D01*
X157695249Y-44647090D01*
X157724731Y-44702247D01*
X157764407Y-44750593D01*
X157812753Y-44790269D01*
X157867910Y-44819751D01*
X157927759Y-44837906D01*
X157990000Y-44844036D01*
X159090000Y-44844036D01*
X159152241Y-44837906D01*
X159212090Y-44819751D01*
X159267247Y-44790269D01*
X159315593Y-44750593D01*
X159355269Y-44702247D01*
X159384751Y-44647090D01*
X159402906Y-44587241D01*
X159409036Y-44525000D01*
X159409036Y-44319100D01*
X159546799Y-44319100D01*
X159551882Y-44324183D01*
X159641325Y-44383947D01*
X159740709Y-44425113D01*
X159846214Y-44446100D01*
X159953786Y-44446100D01*
X160059291Y-44425113D01*
X160158675Y-44383947D01*
X160248118Y-44324183D01*
X160324183Y-44248118D01*
X160383947Y-44158675D01*
X160425113Y-44059291D01*
X160446100Y-43953786D01*
X160446100Y-43890000D01*
X162180964Y-43890000D01*
X162180964Y-44710000D01*
X162187094Y-44772241D01*
X162205249Y-44832090D01*
X162234731Y-44887247D01*
X162274407Y-44935593D01*
X162322753Y-44975269D01*
X162377910Y-45004751D01*
X162437759Y-45022906D01*
X162500000Y-45029036D01*
X162500433Y-45029036D01*
X162474887Y-45090709D01*
X162453900Y-45196214D01*
X162453900Y-45303786D01*
X162474887Y-45409291D01*
X162500433Y-45470964D01*
X162500000Y-45470964D01*
X162437759Y-45477094D01*
X162377910Y-45495249D01*
X162322753Y-45524731D01*
X162274407Y-45564407D01*
X162234731Y-45612753D01*
X162205249Y-45667910D01*
X162187094Y-45727759D01*
X162180964Y-45790000D01*
X162180964Y-46610000D01*
X162187094Y-46672241D01*
X162205249Y-46732090D01*
X162234731Y-46787247D01*
X162274407Y-46835593D01*
X162322753Y-46875269D01*
X162377910Y-46904751D01*
X162437759Y-46922906D01*
X162500000Y-46929036D01*
X163500000Y-46929036D01*
X163562241Y-46922906D01*
X163622090Y-46904751D01*
X163677247Y-46875269D01*
X163725593Y-46835593D01*
X163765269Y-46787247D01*
X163794751Y-46732090D01*
X163812906Y-46672241D01*
X163819036Y-46610000D01*
X163819036Y-45790000D01*
X163812906Y-45727759D01*
X163794751Y-45667910D01*
X163765269Y-45612753D01*
X163725593Y-45564407D01*
X163677247Y-45524731D01*
X163622090Y-45495249D01*
X163562241Y-45477094D01*
X163500000Y-45470964D01*
X163499567Y-45470964D01*
X163525113Y-45409291D01*
X163546100Y-45303786D01*
X163546100Y-45196214D01*
X163525113Y-45090709D01*
X163499567Y-45029036D01*
X163500000Y-45029036D01*
X163562241Y-45022906D01*
X163622090Y-45004751D01*
X163677247Y-44975269D01*
X163725593Y-44935593D01*
X163765269Y-44887247D01*
X163794751Y-44832090D01*
X163812906Y-44772241D01*
X163819036Y-44710000D01*
X163819036Y-43890000D01*
X163812906Y-43827759D01*
X163794751Y-43767910D01*
X163765269Y-43712753D01*
X163725593Y-43664407D01*
X163677247Y-43624731D01*
X163622090Y-43595249D01*
X163562241Y-43577094D01*
X163500000Y-43570964D01*
X162500000Y-43570964D01*
X162437759Y-43577094D01*
X162377910Y-43595249D01*
X162322753Y-43624731D01*
X162274407Y-43664407D01*
X162234731Y-43712753D01*
X162205249Y-43767910D01*
X162187094Y-43827759D01*
X162180964Y-43890000D01*
X160446100Y-43890000D01*
X160446100Y-43846214D01*
X160425113Y-43740709D01*
X160383947Y-43641325D01*
X160324183Y-43551882D01*
X160272301Y-43500000D01*
X160324183Y-43448118D01*
X160383947Y-43358675D01*
X160425113Y-43259291D01*
X160446100Y-43153786D01*
X160446100Y-43046214D01*
X160425113Y-42940709D01*
X160383947Y-42841325D01*
X160324183Y-42751882D01*
X160272301Y-42700000D01*
X160324183Y-42648118D01*
X160383947Y-42558675D01*
X160425113Y-42459291D01*
X160446100Y-42353786D01*
X160446100Y-42246214D01*
X160425113Y-42140709D01*
X160383947Y-42041325D01*
X160324183Y-41951882D01*
X160272301Y-41900000D01*
X160324183Y-41848118D01*
X160383947Y-41758675D01*
X160425113Y-41659291D01*
X160446100Y-41553786D01*
X160446100Y-41446214D01*
X160425113Y-41340709D01*
X160383947Y-41241325D01*
X160324183Y-41151882D01*
X160272301Y-41100000D01*
X160324183Y-41048118D01*
X160383947Y-40958675D01*
X160425113Y-40859291D01*
X160446100Y-40753786D01*
X160446100Y-40646214D01*
X160425113Y-40540709D01*
X160383947Y-40441325D01*
X160324183Y-40351882D01*
X160248118Y-40275817D01*
X160158675Y-40216053D01*
X160059291Y-40174887D01*
X159953786Y-40153900D01*
X159846214Y-40153900D01*
X159740709Y-40174887D01*
X159641325Y-40216053D01*
X159551882Y-40275817D01*
X159546799Y-40280900D01*
X159409036Y-40280900D01*
X159409036Y-39925000D01*
X159402906Y-39862759D01*
X159384751Y-39802910D01*
X159355269Y-39747753D01*
X159315593Y-39699407D01*
X159267247Y-39659731D01*
X159212090Y-39630249D01*
X159152241Y-39612094D01*
X159090000Y-39605964D01*
X157990000Y-39605964D01*
X157927759Y-39612094D01*
X157867910Y-39630249D01*
X157812753Y-39659731D01*
X157764407Y-39699407D01*
X157724731Y-39747753D01*
X157695249Y-39802910D01*
X157677094Y-39862759D01*
X157670964Y-39925000D01*
X156868936Y-39925000D01*
X156863105Y-39863770D01*
X156845143Y-39803862D01*
X156815840Y-39748610D01*
X156776320Y-39700137D01*
X156728102Y-39660305D01*
X156673041Y-39630645D01*
X156613251Y-39612297D01*
X156565875Y-39607500D01*
X156486500Y-39686875D01*
X155513500Y-39686875D01*
X155434125Y-39607500D01*
X155386749Y-39612297D01*
X155326959Y-39630645D01*
X155271898Y-39660305D01*
X155223680Y-39700137D01*
X155184160Y-39748610D01*
X155154857Y-39803862D01*
X155136895Y-39863770D01*
X155130966Y-39926030D01*
X154329036Y-39926030D01*
X154329036Y-39925000D01*
X154322906Y-39862759D01*
X154304751Y-39802910D01*
X154275269Y-39747753D01*
X154235593Y-39699407D01*
X154187247Y-39659731D01*
X154132090Y-39630249D01*
X154072241Y-39612094D01*
X154010000Y-39605964D01*
X152910000Y-39605964D01*
X152847759Y-39612094D01*
X152787910Y-39630249D01*
X152732753Y-39659731D01*
X152684407Y-39699407D01*
X152644731Y-39747753D01*
X152615249Y-39802910D01*
X152597094Y-39862759D01*
X152590964Y-39925000D01*
X152590964Y-41399500D01*
X150870624Y-41399500D01*
X150850041Y-41382608D01*
X149529036Y-40061604D01*
X149529036Y-40000000D01*
X149522906Y-39937759D01*
X149504751Y-39877910D01*
X149475269Y-39822753D01*
X149435593Y-39774407D01*
X149387247Y-39734731D01*
X149332090Y-39705249D01*
X149272241Y-39687094D01*
X149210000Y-39680964D01*
X149163500Y-39680964D01*
X149163500Y-38830200D01*
X164636500Y-38830200D01*
X164636500Y-43043803D01*
G36*
X140355249Y-42072090D02*
G01*
X140384731Y-42127247D01*
X140424407Y-42175593D01*
X140472753Y-42215269D01*
X140527910Y-42244751D01*
X140587759Y-42262906D01*
X140650000Y-42269036D01*
X142650000Y-42269036D01*
X142712241Y-42262906D01*
X142772090Y-42244751D01*
X142827247Y-42215269D01*
X142875593Y-42175593D01*
X142915269Y-42127247D01*
X142930785Y-42098218D01*
X144080964Y-43248397D01*
X144080964Y-43310000D01*
X144087094Y-43372241D01*
X144105249Y-43432090D01*
X144134731Y-43487247D01*
X144174407Y-43535593D01*
X144222753Y-43575269D01*
X144236500Y-43582617D01*
X144236500Y-43817383D01*
X144222753Y-43824731D01*
X144174407Y-43864407D01*
X144134731Y-43912753D01*
X144105249Y-43967910D01*
X144087094Y-44027759D01*
X144080964Y-44090000D01*
X144080964Y-44910000D01*
X144087094Y-44972241D01*
X144105249Y-45032090D01*
X144134731Y-45087247D01*
X144174407Y-45135593D01*
X144222753Y-45175269D01*
X144236500Y-45182617D01*
X144236500Y-45312673D01*
X144224887Y-45340709D01*
X144203900Y-45446214D01*
X144203900Y-45553786D01*
X144224887Y-45659291D01*
X144236500Y-45687327D01*
X144236500Y-51436500D01*
X142756210Y-51436500D01*
X142700000Y-51430964D01*
X142369100Y-51430964D01*
X142369100Y-51180895D01*
X142383947Y-51158675D01*
X142425113Y-51059291D01*
X142446100Y-50953786D01*
X142446100Y-50846214D01*
X142425113Y-50740709D01*
X142383947Y-50641325D01*
X142324183Y-50551882D01*
X142248118Y-50475817D01*
X142158675Y-50416053D01*
X142059291Y-50374887D01*
X141953786Y-50353900D01*
X141846214Y-50353900D01*
X141740709Y-50374887D01*
X141641325Y-50416053D01*
X141551882Y-50475817D01*
X141475817Y-50551882D01*
X141416053Y-50641325D01*
X141374887Y-50740709D01*
X141353900Y-50846214D01*
X141353900Y-50953786D01*
X141374887Y-51059291D01*
X141416053Y-51158675D01*
X141475817Y-51248118D01*
X141530901Y-51303202D01*
X141530901Y-51430964D01*
X141200000Y-51430964D01*
X141143790Y-51436500D01*
X135719100Y-51436500D01*
X135719100Y-51418140D01*
X135772241Y-51412906D01*
X135832090Y-51394751D01*
X135887247Y-51365269D01*
X135935593Y-51325593D01*
X135975269Y-51277247D01*
X136004751Y-51222090D01*
X136022906Y-51162241D01*
X136029036Y-51100000D01*
X136029036Y-51019100D01*
X136470964Y-51019100D01*
X136470964Y-51100000D01*
X136477094Y-51162241D01*
X136495249Y-51222090D01*
X136524731Y-51277247D01*
X136564407Y-51325593D01*
X136612753Y-51365269D01*
X136667910Y-51394751D01*
X136727759Y-51412906D01*
X136790000Y-51419036D01*
X137610000Y-51419036D01*
X137672241Y-51412906D01*
X137732090Y-51394751D01*
X137787247Y-51365269D01*
X137835593Y-51325593D01*
X137875269Y-51277247D01*
X137904751Y-51222090D01*
X137922906Y-51162241D01*
X137929036Y-51100000D01*
X137929036Y-50100000D01*
X138070964Y-50100000D01*
X138070964Y-51100000D01*
X138077094Y-51162241D01*
X138095249Y-51222090D01*
X138124731Y-51277247D01*
X138164407Y-51325593D01*
X138212753Y-51365269D01*
X138267910Y-51394751D01*
X138327759Y-51412906D01*
X138390000Y-51419036D01*
X139210000Y-51419036D01*
X139272241Y-51412906D01*
X139332090Y-51394751D01*
X139387247Y-51365269D01*
X139435593Y-51325593D01*
X139475269Y-51277247D01*
X139504751Y-51222090D01*
X139522906Y-51162241D01*
X139529036Y-51100000D01*
X139529036Y-51020278D01*
X139540709Y-51025113D01*
X139646214Y-51046100D01*
X139753786Y-51046100D01*
X139859291Y-51025113D01*
X139958675Y-50983947D01*
X140048118Y-50924183D01*
X140124183Y-50848118D01*
X140183947Y-50758675D01*
X140225113Y-50659291D01*
X140246100Y-50553786D01*
X140246100Y-50446214D01*
X140225113Y-50340709D01*
X140183947Y-50241325D01*
X140124183Y-50151882D01*
X140048118Y-50075817D01*
X139958675Y-50016053D01*
X139859291Y-49974887D01*
X139753786Y-49953900D01*
X139646214Y-49953900D01*
X139540709Y-49974887D01*
X139507950Y-49988456D01*
X139504751Y-49977910D01*
X139475269Y-49922753D01*
X139435593Y-49874407D01*
X139387247Y-49834731D01*
X139332090Y-49805249D01*
X139272241Y-49787094D01*
X139210000Y-49780964D01*
X138390000Y-49780964D01*
X138327759Y-49787094D01*
X138267910Y-49805249D01*
X138212753Y-49834731D01*
X138164407Y-49874407D01*
X138124731Y-49922753D01*
X138095249Y-49977910D01*
X138077094Y-50037759D01*
X138070964Y-50100000D01*
X137929036Y-50100000D01*
X137922906Y-50037759D01*
X137904751Y-49977910D01*
X137875269Y-49922753D01*
X137835593Y-49874407D01*
X137787247Y-49834731D01*
X137732090Y-49805249D01*
X137672241Y-49787094D01*
X137610000Y-49780964D01*
X136790000Y-49780964D01*
X136727759Y-49787094D01*
X136667910Y-49805249D01*
X136612753Y-49834731D01*
X136564407Y-49874407D01*
X136524731Y-49922753D01*
X136495249Y-49977910D01*
X136477094Y-50037759D01*
X136470964Y-50100000D01*
X136470964Y-50180900D01*
X136029036Y-50180900D01*
X136029036Y-50100000D01*
X136022906Y-50037759D01*
X136004751Y-49977910D01*
X135975269Y-49922753D01*
X135935593Y-49874407D01*
X135887247Y-49834731D01*
X135832090Y-49805249D01*
X135772241Y-49787094D01*
X135710000Y-49780964D01*
X134890000Y-49780964D01*
X134827759Y-49787094D01*
X134767910Y-49805249D01*
X134712753Y-49834731D01*
X134664407Y-49874407D01*
X134624731Y-49922753D01*
X134595249Y-49977910D01*
X134577094Y-50037759D01*
X134570964Y-50100000D01*
X134570964Y-51100000D01*
X134577094Y-51162241D01*
X134595249Y-51222090D01*
X134624731Y-51277247D01*
X134664407Y-51325593D01*
X134712753Y-51365269D01*
X134767910Y-51394751D01*
X134827759Y-51412906D01*
X134880900Y-51418140D01*
X134880900Y-51436500D01*
X131763500Y-51436500D01*
X131763500Y-50719036D01*
X131981603Y-50719036D01*
X132417611Y-51155045D01*
X132443459Y-51186541D01*
X132474955Y-51212389D01*
X132474958Y-51212392D01*
X132569157Y-51289699D01*
X132710538Y-51365269D01*
X132712566Y-51366353D01*
X132868174Y-51413556D01*
X132989447Y-51425500D01*
X132989449Y-51425500D01*
X133030000Y-51429494D01*
X133070550Y-51425500D01*
X133740553Y-51425500D01*
X133806185Y-51419036D01*
X134110000Y-51419036D01*
X134172241Y-51412906D01*
X134232090Y-51394751D01*
X134287247Y-51365269D01*
X134335593Y-51325593D01*
X134375269Y-51277247D01*
X134404751Y-51222090D01*
X134422906Y-51162241D01*
X134429036Y-51100000D01*
X134429036Y-50987248D01*
X134466353Y-50917434D01*
X134513556Y-50761826D01*
X134529494Y-50600000D01*
X134513556Y-50438174D01*
X134466353Y-50282566D01*
X134429036Y-50212752D01*
X134429036Y-50100000D01*
X134422906Y-50037759D01*
X134404751Y-49977910D01*
X134375269Y-49922753D01*
X134335593Y-49874407D01*
X134287247Y-49834731D01*
X134232090Y-49805249D01*
X134172241Y-49787094D01*
X134110000Y-49780964D01*
X133806185Y-49780964D01*
X133740553Y-49774500D01*
X133371934Y-49774500D01*
X133097433Y-49500000D01*
X133271933Y-49325500D01*
X136459450Y-49325500D01*
X136500000Y-49329494D01*
X136540550Y-49325500D01*
X136540553Y-49325500D01*
X136661826Y-49313556D01*
X136817434Y-49266353D01*
X136960842Y-49189699D01*
X137086541Y-49086541D01*
X137112398Y-49055034D01*
X139055041Y-47112392D01*
X139086541Y-47086541D01*
X139159384Y-46997781D01*
X139189699Y-46960843D01*
X139266353Y-46817434D01*
X139291673Y-46733965D01*
X139313556Y-46661826D01*
X139325500Y-46540553D01*
X139325500Y-46540551D01*
X139329494Y-46500001D01*
X139325500Y-46459450D01*
X139325500Y-45050000D01*
X140330964Y-45050000D01*
X140330964Y-46550000D01*
X140337094Y-46612241D01*
X140355249Y-46672090D01*
X140384731Y-46727247D01*
X140424407Y-46775593D01*
X140472753Y-46815269D01*
X140527910Y-46844751D01*
X140587759Y-46862906D01*
X140650000Y-46869036D01*
X140880900Y-46869036D01*
X140880900Y-47146799D01*
X140875817Y-47151882D01*
X140816053Y-47241325D01*
X140774887Y-47340709D01*
X140753900Y-47446214D01*
X140753900Y-47553786D01*
X140774887Y-47659291D01*
X140816053Y-47758675D01*
X140875817Y-47848118D01*
X140951882Y-47924183D01*
X141041325Y-47983947D01*
X141140709Y-48025113D01*
X141246214Y-48046100D01*
X141353786Y-48046100D01*
X141459291Y-48025113D01*
X141558675Y-47983947D01*
X141648118Y-47924183D01*
X141700000Y-47872301D01*
X141751882Y-47924183D01*
X141841325Y-47983947D01*
X141940709Y-48025113D01*
X142046214Y-48046100D01*
X142153786Y-48046100D01*
X142259291Y-48025113D01*
X142358675Y-47983947D01*
X142448118Y-47924183D01*
X142524183Y-47848118D01*
X142583947Y-47758675D01*
X142625113Y-47659291D01*
X142646100Y-47553786D01*
X142646100Y-47446214D01*
X142625113Y-47340709D01*
X142583947Y-47241325D01*
X142524183Y-47151882D01*
X142519100Y-47146799D01*
X142519100Y-46869036D01*
X142650000Y-46869036D01*
X142712241Y-46862906D01*
X142772090Y-46844751D01*
X142827247Y-46815269D01*
X142844440Y-46801159D01*
X142875817Y-46848118D01*
X142951882Y-46924183D01*
X143041325Y-46983947D01*
X143140709Y-47025113D01*
X143246214Y-47046100D01*
X143353786Y-47046100D01*
X143459291Y-47025113D01*
X143558675Y-46983947D01*
X143648118Y-46924183D01*
X143724183Y-46848118D01*
X143783947Y-46758675D01*
X143825113Y-46659291D01*
X143846100Y-46553786D01*
X143846100Y-46446214D01*
X143825113Y-46340709D01*
X143783947Y-46241325D01*
X143724183Y-46151882D01*
X143648118Y-46075817D01*
X143558675Y-46016053D01*
X143519919Y-46000000D01*
X143558675Y-45983947D01*
X143648118Y-45924183D01*
X143724183Y-45848118D01*
X143783947Y-45758675D01*
X143825113Y-45659291D01*
X143846100Y-45553786D01*
X143846100Y-45446214D01*
X143825113Y-45340709D01*
X143783947Y-45241325D01*
X143724183Y-45151882D01*
X143648118Y-45075817D01*
X143558675Y-45016053D01*
X143459291Y-44974887D01*
X143353786Y-44953900D01*
X143246214Y-44953900D01*
X143140709Y-44974887D01*
X143041325Y-45016053D01*
X142969036Y-45064355D01*
X142969036Y-45050000D01*
X142962906Y-44987759D01*
X142944751Y-44927910D01*
X142915269Y-44872753D01*
X142875593Y-44824407D01*
X142827247Y-44784731D01*
X142772090Y-44755249D01*
X142712241Y-44737094D01*
X142650000Y-44730964D01*
X140650000Y-44730964D01*
X140587759Y-44737094D01*
X140527910Y-44755249D01*
X140472753Y-44784731D01*
X140424407Y-44824407D01*
X140384731Y-44872753D01*
X140355249Y-44927910D01*
X140337094Y-44987759D01*
X140330964Y-45050000D01*
X139325500Y-45050000D01*
X139325500Y-44250000D01*
X140330964Y-44250000D01*
X140337094Y-44312241D01*
X140355249Y-44372090D01*
X140384731Y-44427247D01*
X140424407Y-44475593D01*
X140472753Y-44515269D01*
X140527910Y-44544751D01*
X140587759Y-44562906D01*
X140650000Y-44569036D01*
X140999125Y-44567500D01*
X141078500Y-44488125D01*
X141078500Y-44071500D01*
X142221500Y-44071500D01*
X142221500Y-44488125D01*
X142300875Y-44567500D01*
X142650000Y-44569036D01*
X142712241Y-44562906D01*
X142772090Y-44544751D01*
X142827247Y-44515269D01*
X142875593Y-44475593D01*
X142915269Y-44427247D01*
X142944751Y-44372090D01*
X142962906Y-44312241D01*
X142969036Y-44250000D01*
X142967500Y-44150875D01*
X142888125Y-44071500D01*
X142221500Y-44071500D01*
X141078500Y-44071500D01*
X140411875Y-44071500D01*
X140332500Y-44150875D01*
X140330964Y-44250000D01*
X139325500Y-44250000D01*
X139325500Y-42841932D01*
X139417432Y-42750000D01*
X140330964Y-42750000D01*
X140332500Y-42849125D01*
X140411875Y-42928500D01*
X141078500Y-42928500D01*
X141078500Y-42511875D01*
X142221500Y-42511875D01*
X142221500Y-42928500D01*
X142888125Y-42928500D01*
X142967500Y-42849125D01*
X142969036Y-42750000D01*
X142962906Y-42687759D01*
X142944751Y-42627910D01*
X142915269Y-42572753D01*
X142875593Y-42524407D01*
X142827247Y-42484731D01*
X142772090Y-42455249D01*
X142712241Y-42437094D01*
X142650000Y-42430964D01*
X142300875Y-42432500D01*
X142221500Y-42511875D01*
X141078500Y-42511875D01*
X140999125Y-42432500D01*
X140650000Y-42430964D01*
X140587759Y-42437094D01*
X140527910Y-42455249D01*
X140472753Y-42484731D01*
X140424407Y-42524407D01*
X140384731Y-42572753D01*
X140355249Y-42627910D01*
X140337094Y-42687759D01*
X140330964Y-42750000D01*
X139417432Y-42750000D01*
X140141934Y-42025500D01*
X140341116Y-42025500D01*
X140355249Y-42072090D01*
X140355249Y-42072090D01*
G37*
X140355249Y-42072090D02*
X140384731Y-42127247D01*
X140424407Y-42175593D01*
X140472753Y-42215269D01*
X140527910Y-42244751D01*
X140587759Y-42262906D01*
X140650000Y-42269036D01*
X142650000Y-42269036D01*
X142712241Y-42262906D01*
X142772090Y-42244751D01*
X142827247Y-42215269D01*
X142875593Y-42175593D01*
X142915269Y-42127247D01*
X142930785Y-42098218D01*
X144080964Y-43248397D01*
X144080964Y-43310000D01*
X144087094Y-43372241D01*
X144105249Y-43432090D01*
X144134731Y-43487247D01*
X144174407Y-43535593D01*
X144222753Y-43575269D01*
X144236500Y-43582617D01*
X144236500Y-43817383D01*
X144222753Y-43824731D01*
X144174407Y-43864407D01*
X144134731Y-43912753D01*
X144105249Y-43967910D01*
X144087094Y-44027759D01*
X144080964Y-44090000D01*
X144080964Y-44910000D01*
X144087094Y-44972241D01*
X144105249Y-45032090D01*
X144134731Y-45087247D01*
X144174407Y-45135593D01*
X144222753Y-45175269D01*
X144236500Y-45182617D01*
X144236500Y-45312673D01*
X144224887Y-45340709D01*
X144203900Y-45446214D01*
X144203900Y-45553786D01*
X144224887Y-45659291D01*
X144236500Y-45687327D01*
X144236500Y-51436500D01*
X142756210Y-51436500D01*
X142700000Y-51430964D01*
X142369100Y-51430964D01*
X142369100Y-51180895D01*
X142383947Y-51158675D01*
X142425113Y-51059291D01*
X142446100Y-50953786D01*
X142446100Y-50846214D01*
X142425113Y-50740709D01*
X142383947Y-50641325D01*
X142324183Y-50551882D01*
X142248118Y-50475817D01*
X142158675Y-50416053D01*
X142059291Y-50374887D01*
X141953786Y-50353900D01*
X141846214Y-50353900D01*
X141740709Y-50374887D01*
X141641325Y-50416053D01*
X141551882Y-50475817D01*
X141475817Y-50551882D01*
X141416053Y-50641325D01*
X141374887Y-50740709D01*
X141353900Y-50846214D01*
X141353900Y-50953786D01*
X141374887Y-51059291D01*
X141416053Y-51158675D01*
X141475817Y-51248118D01*
X141530901Y-51303202D01*
X141530901Y-51430964D01*
X141200000Y-51430964D01*
X141143790Y-51436500D01*
X135719100Y-51436500D01*
X135719100Y-51418140D01*
X135772241Y-51412906D01*
X135832090Y-51394751D01*
X135887247Y-51365269D01*
X135935593Y-51325593D01*
X135975269Y-51277247D01*
X136004751Y-51222090D01*
X136022906Y-51162241D01*
X136029036Y-51100000D01*
X136029036Y-51019100D01*
X136470964Y-51019100D01*
X136470964Y-51100000D01*
X136477094Y-51162241D01*
X136495249Y-51222090D01*
X136524731Y-51277247D01*
X136564407Y-51325593D01*
X136612753Y-51365269D01*
X136667910Y-51394751D01*
X136727759Y-51412906D01*
X136790000Y-51419036D01*
X137610000Y-51419036D01*
X137672241Y-51412906D01*
X137732090Y-51394751D01*
X137787247Y-51365269D01*
X137835593Y-51325593D01*
X137875269Y-51277247D01*
X137904751Y-51222090D01*
X137922906Y-51162241D01*
X137929036Y-51100000D01*
X137929036Y-50100000D01*
X138070964Y-50100000D01*
X138070964Y-51100000D01*
X138077094Y-51162241D01*
X138095249Y-51222090D01*
X138124731Y-51277247D01*
X138164407Y-51325593D01*
X138212753Y-51365269D01*
X138267910Y-51394751D01*
X138327759Y-51412906D01*
X138390000Y-51419036D01*
X139210000Y-51419036D01*
X139272241Y-51412906D01*
X139332090Y-51394751D01*
X139387247Y-51365269D01*
X139435593Y-51325593D01*
X139475269Y-51277247D01*
X139504751Y-51222090D01*
X139522906Y-51162241D01*
X139529036Y-51100000D01*
X139529036Y-51020278D01*
X139540709Y-51025113D01*
X139646214Y-51046100D01*
X139753786Y-51046100D01*
X139859291Y-51025113D01*
X139958675Y-50983947D01*
X140048118Y-50924183D01*
X140124183Y-50848118D01*
X140183947Y-50758675D01*
X140225113Y-50659291D01*
X140246100Y-50553786D01*
X140246100Y-50446214D01*
X140225113Y-50340709D01*
X140183947Y-50241325D01*
X140124183Y-50151882D01*
X140048118Y-50075817D01*
X139958675Y-50016053D01*
X139859291Y-49974887D01*
X139753786Y-49953900D01*
X139646214Y-49953900D01*
X139540709Y-49974887D01*
X139507950Y-49988456D01*
X139504751Y-49977910D01*
X139475269Y-49922753D01*
X139435593Y-49874407D01*
X139387247Y-49834731D01*
X139332090Y-49805249D01*
X139272241Y-49787094D01*
X139210000Y-49780964D01*
X138390000Y-49780964D01*
X138327759Y-49787094D01*
X138267910Y-49805249D01*
X138212753Y-49834731D01*
X138164407Y-49874407D01*
X138124731Y-49922753D01*
X138095249Y-49977910D01*
X138077094Y-50037759D01*
X138070964Y-50100000D01*
X137929036Y-50100000D01*
X137922906Y-50037759D01*
X137904751Y-49977910D01*
X137875269Y-49922753D01*
X137835593Y-49874407D01*
X137787247Y-49834731D01*
X137732090Y-49805249D01*
X137672241Y-49787094D01*
X137610000Y-49780964D01*
X136790000Y-49780964D01*
X136727759Y-49787094D01*
X136667910Y-49805249D01*
X136612753Y-49834731D01*
X136564407Y-49874407D01*
X136524731Y-49922753D01*
X136495249Y-49977910D01*
X136477094Y-50037759D01*
X136470964Y-50100000D01*
X136470964Y-50180900D01*
X136029036Y-50180900D01*
X136029036Y-50100000D01*
X136022906Y-50037759D01*
X136004751Y-49977910D01*
X135975269Y-49922753D01*
X135935593Y-49874407D01*
X135887247Y-49834731D01*
X135832090Y-49805249D01*
X135772241Y-49787094D01*
X135710000Y-49780964D01*
X134890000Y-49780964D01*
X134827759Y-49787094D01*
X134767910Y-49805249D01*
X134712753Y-49834731D01*
X134664407Y-49874407D01*
X134624731Y-49922753D01*
X134595249Y-49977910D01*
X134577094Y-50037759D01*
X134570964Y-50100000D01*
X134570964Y-51100000D01*
X134577094Y-51162241D01*
X134595249Y-51222090D01*
X134624731Y-51277247D01*
X134664407Y-51325593D01*
X134712753Y-51365269D01*
X134767910Y-51394751D01*
X134827759Y-51412906D01*
X134880900Y-51418140D01*
X134880900Y-51436500D01*
X131763500Y-51436500D01*
X131763500Y-50719036D01*
X131981603Y-50719036D01*
X132417611Y-51155045D01*
X132443459Y-51186541D01*
X132474955Y-51212389D01*
X132474958Y-51212392D01*
X132569157Y-51289699D01*
X132710538Y-51365269D01*
X132712566Y-51366353D01*
X132868174Y-51413556D01*
X132989447Y-51425500D01*
X132989449Y-51425500D01*
X133030000Y-51429494D01*
X133070550Y-51425500D01*
X133740553Y-51425500D01*
X133806185Y-51419036D01*
X134110000Y-51419036D01*
X134172241Y-51412906D01*
X134232090Y-51394751D01*
X134287247Y-51365269D01*
X134335593Y-51325593D01*
X134375269Y-51277247D01*
X134404751Y-51222090D01*
X134422906Y-51162241D01*
X134429036Y-51100000D01*
X134429036Y-50987248D01*
X134466353Y-50917434D01*
X134513556Y-50761826D01*
X134529494Y-50600000D01*
X134513556Y-50438174D01*
X134466353Y-50282566D01*
X134429036Y-50212752D01*
X134429036Y-50100000D01*
X134422906Y-50037759D01*
X134404751Y-49977910D01*
X134375269Y-49922753D01*
X134335593Y-49874407D01*
X134287247Y-49834731D01*
X134232090Y-49805249D01*
X134172241Y-49787094D01*
X134110000Y-49780964D01*
X133806185Y-49780964D01*
X133740553Y-49774500D01*
X133371934Y-49774500D01*
X133097433Y-49500000D01*
X133271933Y-49325500D01*
X136459450Y-49325500D01*
X136500000Y-49329494D01*
X136540550Y-49325500D01*
X136540553Y-49325500D01*
X136661826Y-49313556D01*
X136817434Y-49266353D01*
X136960842Y-49189699D01*
X137086541Y-49086541D01*
X137112398Y-49055034D01*
X139055041Y-47112392D01*
X139086541Y-47086541D01*
X139159384Y-46997781D01*
X139189699Y-46960843D01*
X139266353Y-46817434D01*
X139291673Y-46733965D01*
X139313556Y-46661826D01*
X139325500Y-46540553D01*
X139325500Y-46540551D01*
X139329494Y-46500001D01*
X139325500Y-46459450D01*
X139325500Y-45050000D01*
X140330964Y-45050000D01*
X140330964Y-46550000D01*
X140337094Y-46612241D01*
X140355249Y-46672090D01*
X140384731Y-46727247D01*
X140424407Y-46775593D01*
X140472753Y-46815269D01*
X140527910Y-46844751D01*
X140587759Y-46862906D01*
X140650000Y-46869036D01*
X140880900Y-46869036D01*
X140880900Y-47146799D01*
X140875817Y-47151882D01*
X140816053Y-47241325D01*
X140774887Y-47340709D01*
X140753900Y-47446214D01*
X140753900Y-47553786D01*
X140774887Y-47659291D01*
X140816053Y-47758675D01*
X140875817Y-47848118D01*
X140951882Y-47924183D01*
X141041325Y-47983947D01*
X141140709Y-48025113D01*
X141246214Y-48046100D01*
X141353786Y-48046100D01*
X141459291Y-48025113D01*
X141558675Y-47983947D01*
X141648118Y-47924183D01*
X141700000Y-47872301D01*
X141751882Y-47924183D01*
X141841325Y-47983947D01*
X141940709Y-48025113D01*
X142046214Y-48046100D01*
X142153786Y-48046100D01*
X142259291Y-48025113D01*
X142358675Y-47983947D01*
X142448118Y-47924183D01*
X142524183Y-47848118D01*
X142583947Y-47758675D01*
X142625113Y-47659291D01*
X142646100Y-47553786D01*
X142646100Y-47446214D01*
X142625113Y-47340709D01*
X142583947Y-47241325D01*
X142524183Y-47151882D01*
X142519100Y-47146799D01*
X142519100Y-46869036D01*
X142650000Y-46869036D01*
X142712241Y-46862906D01*
X142772090Y-46844751D01*
X142827247Y-46815269D01*
X142844440Y-46801159D01*
X142875817Y-46848118D01*
X142951882Y-46924183D01*
X143041325Y-46983947D01*
X143140709Y-47025113D01*
X143246214Y-47046100D01*
X143353786Y-47046100D01*
X143459291Y-47025113D01*
X143558675Y-46983947D01*
X143648118Y-46924183D01*
X143724183Y-46848118D01*
X143783947Y-46758675D01*
X143825113Y-46659291D01*
X143846100Y-46553786D01*
X143846100Y-46446214D01*
X143825113Y-46340709D01*
X143783947Y-46241325D01*
X143724183Y-46151882D01*
X143648118Y-46075817D01*
X143558675Y-46016053D01*
X143519919Y-46000000D01*
X143558675Y-45983947D01*
X143648118Y-45924183D01*
X143724183Y-45848118D01*
X143783947Y-45758675D01*
X143825113Y-45659291D01*
X143846100Y-45553786D01*
X143846100Y-45446214D01*
X143825113Y-45340709D01*
X143783947Y-45241325D01*
X143724183Y-45151882D01*
X143648118Y-45075817D01*
X143558675Y-45016053D01*
X143459291Y-44974887D01*
X143353786Y-44953900D01*
X143246214Y-44953900D01*
X143140709Y-44974887D01*
X143041325Y-45016053D01*
X142969036Y-45064355D01*
X142969036Y-45050000D01*
X142962906Y-44987759D01*
X142944751Y-44927910D01*
X142915269Y-44872753D01*
X142875593Y-44824407D01*
X142827247Y-44784731D01*
X142772090Y-44755249D01*
X142712241Y-44737094D01*
X142650000Y-44730964D01*
X140650000Y-44730964D01*
X140587759Y-44737094D01*
X140527910Y-44755249D01*
X140472753Y-44784731D01*
X140424407Y-44824407D01*
X140384731Y-44872753D01*
X140355249Y-44927910D01*
X140337094Y-44987759D01*
X140330964Y-45050000D01*
X139325500Y-45050000D01*
X139325500Y-44250000D01*
X140330964Y-44250000D01*
X140337094Y-44312241D01*
X140355249Y-44372090D01*
X140384731Y-44427247D01*
X140424407Y-44475593D01*
X140472753Y-44515269D01*
X140527910Y-44544751D01*
X140587759Y-44562906D01*
X140650000Y-44569036D01*
X140999125Y-44567500D01*
X141078500Y-44488125D01*
X141078500Y-44071500D01*
X142221500Y-44071500D01*
X142221500Y-44488125D01*
X142300875Y-44567500D01*
X142650000Y-44569036D01*
X142712241Y-44562906D01*
X142772090Y-44544751D01*
X142827247Y-44515269D01*
X142875593Y-44475593D01*
X142915269Y-44427247D01*
X142944751Y-44372090D01*
X142962906Y-44312241D01*
X142969036Y-44250000D01*
X142967500Y-44150875D01*
X142888125Y-44071500D01*
X142221500Y-44071500D01*
X141078500Y-44071500D01*
X140411875Y-44071500D01*
X140332500Y-44150875D01*
X140330964Y-44250000D01*
X139325500Y-44250000D01*
X139325500Y-42841932D01*
X139417432Y-42750000D01*
X140330964Y-42750000D01*
X140332500Y-42849125D01*
X140411875Y-42928500D01*
X141078500Y-42928500D01*
X141078500Y-42511875D01*
X142221500Y-42511875D01*
X142221500Y-42928500D01*
X142888125Y-42928500D01*
X142967500Y-42849125D01*
X142969036Y-42750000D01*
X142962906Y-42687759D01*
X142944751Y-42627910D01*
X142915269Y-42572753D01*
X142875593Y-42524407D01*
X142827247Y-42484731D01*
X142772090Y-42455249D01*
X142712241Y-42437094D01*
X142650000Y-42430964D01*
X142300875Y-42432500D01*
X142221500Y-42511875D01*
X141078500Y-42511875D01*
X140999125Y-42432500D01*
X140650000Y-42430964D01*
X140587759Y-42437094D01*
X140527910Y-42455249D01*
X140472753Y-42484731D01*
X140424407Y-42524407D01*
X140384731Y-42572753D01*
X140355249Y-42627910D01*
X140337094Y-42687759D01*
X140330964Y-42750000D01*
X139417432Y-42750000D01*
X140141934Y-42025500D01*
X140341116Y-42025500D01*
X140355249Y-42072090D01*
G36*
X132616053Y-39241325D02*
G01*
X132574887Y-39340709D01*
X132553900Y-39446214D01*
X132553900Y-39470964D01*
X132500000Y-39470964D01*
X132437759Y-39477094D01*
X132377910Y-39495249D01*
X132322753Y-39524731D01*
X132274407Y-39564407D01*
X132234731Y-39612753D01*
X132205249Y-39667910D01*
X132187094Y-39727759D01*
X132180964Y-39790000D01*
X132180964Y-40610000D01*
X132187094Y-40672241D01*
X132205249Y-40732090D01*
X132234731Y-40787247D01*
X132274407Y-40835593D01*
X132322753Y-40875269D01*
X132377910Y-40904751D01*
X132437759Y-40922906D01*
X132500000Y-40929036D01*
X133500000Y-40929036D01*
X133562241Y-40922906D01*
X133622090Y-40904751D01*
X133677247Y-40875269D01*
X133725593Y-40835593D01*
X133765269Y-40787247D01*
X133794751Y-40732090D01*
X133812906Y-40672241D01*
X133819036Y-40610000D01*
X133819036Y-39790000D01*
X133812906Y-39727759D01*
X133794751Y-39667910D01*
X133765269Y-39612753D01*
X133725593Y-39564407D01*
X133677247Y-39524731D01*
X133646100Y-39508083D01*
X133646100Y-39446214D01*
X133625113Y-39340709D01*
X133583947Y-39241325D01*
X133531946Y-39163500D01*
X144236500Y-39163500D01*
X144236500Y-41069068D01*
X143812398Y-40644966D01*
X143786541Y-40613459D01*
X143660842Y-40510301D01*
X143517434Y-40433647D01*
X143361826Y-40386444D01*
X143240553Y-40374500D01*
X143240550Y-40374500D01*
X143200000Y-40370506D01*
X143159450Y-40374500D01*
X142958884Y-40374500D01*
X142944751Y-40327910D01*
X142915269Y-40272753D01*
X142875593Y-40224407D01*
X142827247Y-40184731D01*
X142772090Y-40155249D01*
X142712241Y-40137094D01*
X142650000Y-40130964D01*
X140650000Y-40130964D01*
X140587759Y-40137094D01*
X140527910Y-40155249D01*
X140472753Y-40184731D01*
X140424407Y-40224407D01*
X140384731Y-40272753D01*
X140355249Y-40327910D01*
X140341116Y-40374500D01*
X139840550Y-40374500D01*
X139800000Y-40370506D01*
X139759449Y-40374500D01*
X139759447Y-40374500D01*
X139638174Y-40386444D01*
X139482566Y-40433647D01*
X139339157Y-40510301D01*
X139244958Y-40587608D01*
X139244957Y-40587609D01*
X139213459Y-40613459D01*
X139187611Y-40644955D01*
X137944961Y-41887607D01*
X137913460Y-41913459D01*
X137887609Y-41944959D01*
X137810301Y-42039158D01*
X137733647Y-42182567D01*
X137686445Y-42338174D01*
X137670506Y-42500000D01*
X137674501Y-42540560D01*
X137674500Y-46158067D01*
X136158068Y-47674500D01*
X132970550Y-47674500D01*
X132930000Y-47670506D01*
X132889449Y-47674500D01*
X132889447Y-47674500D01*
X132768174Y-47686444D01*
X132612566Y-47733647D01*
X132469157Y-47810301D01*
X132374958Y-47887608D01*
X132374955Y-47887611D01*
X132343459Y-47913459D01*
X132317611Y-47944955D01*
X131981603Y-48280964D01*
X131763500Y-48280964D01*
X131763500Y-45390000D01*
X132180964Y-45390000D01*
X132180964Y-46210000D01*
X132187094Y-46272241D01*
X132205249Y-46332090D01*
X132234731Y-46387247D01*
X132274407Y-46435593D01*
X132322753Y-46475269D01*
X132377910Y-46504751D01*
X132437759Y-46522906D01*
X132500000Y-46529036D01*
X132579722Y-46529036D01*
X132574887Y-46540709D01*
X132553900Y-46646214D01*
X132553900Y-46753786D01*
X132574887Y-46859291D01*
X132616053Y-46958675D01*
X132675817Y-47048118D01*
X132751882Y-47124183D01*
X132841325Y-47183947D01*
X132940709Y-47225113D01*
X133046214Y-47246100D01*
X133153786Y-47246100D01*
X133259291Y-47225113D01*
X133358675Y-47183947D01*
X133448118Y-47124183D01*
X133524183Y-47048118D01*
X133583947Y-46958675D01*
X133625113Y-46859291D01*
X133646100Y-46753786D01*
X133646100Y-46646214D01*
X133625113Y-46540709D01*
X133611544Y-46507950D01*
X133622090Y-46504751D01*
X133677247Y-46475269D01*
X133725593Y-46435593D01*
X133765269Y-46387247D01*
X133794751Y-46332090D01*
X133812906Y-46272241D01*
X133819036Y-46210000D01*
X133819036Y-45400000D01*
X134030964Y-45400000D01*
X134037094Y-45462241D01*
X134055249Y-45522090D01*
X134084731Y-45577247D01*
X134124407Y-45625593D01*
X134172753Y-45665269D01*
X134227910Y-45694751D01*
X134287759Y-45712906D01*
X134350000Y-45719036D01*
X134699125Y-45717500D01*
X134778500Y-45638125D01*
X134778500Y-44071500D01*
X135921500Y-44071500D01*
X135921500Y-45638125D01*
X136000875Y-45717500D01*
X136350000Y-45719036D01*
X136412241Y-45712906D01*
X136472090Y-45694751D01*
X136527247Y-45665269D01*
X136575593Y-45625593D01*
X136615269Y-45577247D01*
X136644751Y-45522090D01*
X136662906Y-45462241D01*
X136669036Y-45400000D01*
X136667500Y-44150875D01*
X136588125Y-44071500D01*
X135921500Y-44071500D01*
X134778500Y-44071500D01*
X134111875Y-44071500D01*
X134032500Y-44150875D01*
X134030964Y-45400000D01*
X133819036Y-45400000D01*
X133819036Y-45390000D01*
X133812906Y-45327759D01*
X133794751Y-45267910D01*
X133765269Y-45212753D01*
X133725593Y-45164407D01*
X133677247Y-45124731D01*
X133622090Y-45095249D01*
X133562241Y-45077094D01*
X133500000Y-45070964D01*
X132500000Y-45070964D01*
X132437759Y-45077094D01*
X132377910Y-45095249D01*
X132322753Y-45124731D01*
X132274407Y-45164407D01*
X132234731Y-45212753D01*
X132205249Y-45267910D01*
X132187094Y-45327759D01*
X132180964Y-45390000D01*
X131763500Y-45390000D01*
X131763500Y-45230723D01*
X131848118Y-45174183D01*
X131924183Y-45098118D01*
X131983947Y-45008675D01*
X132025113Y-44909291D01*
X132046100Y-44803786D01*
X132046100Y-44696214D01*
X132032109Y-44625875D01*
X132182500Y-44625875D01*
X132187867Y-44676006D01*
X132206742Y-44735632D01*
X132236886Y-44790430D01*
X132277142Y-44838294D01*
X132325962Y-44877385D01*
X132381470Y-44906200D01*
X132441534Y-44923633D01*
X132484125Y-44927500D01*
X132563500Y-44848125D01*
X132563500Y-44546500D01*
X133436500Y-44546500D01*
X133436500Y-44848125D01*
X133515875Y-44927500D01*
X133558466Y-44923633D01*
X133618530Y-44906200D01*
X133674038Y-44877385D01*
X133722858Y-44838294D01*
X133763114Y-44790430D01*
X133793258Y-44735632D01*
X133812133Y-44676006D01*
X133817500Y-44625875D01*
X133738125Y-44546500D01*
X133436500Y-44546500D01*
X132563500Y-44546500D01*
X132261875Y-44546500D01*
X132182500Y-44625875D01*
X132032109Y-44625875D01*
X132025113Y-44590709D01*
X131983947Y-44491325D01*
X131924183Y-44401882D01*
X131848118Y-44325817D01*
X131763500Y-44269277D01*
X131763500Y-43774125D01*
X132182500Y-43774125D01*
X132261875Y-43853500D01*
X132563500Y-43853500D01*
X132563500Y-43551875D01*
X133436500Y-43551875D01*
X133436500Y-43853500D01*
X133738125Y-43853500D01*
X133817500Y-43774125D01*
X133812133Y-43723994D01*
X133793258Y-43664368D01*
X133763114Y-43609570D01*
X133722858Y-43561706D01*
X133674038Y-43522615D01*
X133618530Y-43493800D01*
X133558466Y-43476367D01*
X133515875Y-43472500D01*
X133436500Y-43551875D01*
X132563500Y-43551875D01*
X132484125Y-43472500D01*
X132441534Y-43476367D01*
X132381470Y-43493800D01*
X132325962Y-43522615D01*
X132277142Y-43561706D01*
X132236886Y-43609570D01*
X132206742Y-43664368D01*
X132187867Y-43723994D01*
X132182500Y-43774125D01*
X131763500Y-43774125D01*
X131763500Y-42225875D01*
X132182500Y-42225875D01*
X132187867Y-42276006D01*
X132206742Y-42335632D01*
X132236886Y-42390430D01*
X132277142Y-42438294D01*
X132325962Y-42477385D01*
X132381470Y-42506200D01*
X132441534Y-42523633D01*
X132484125Y-42527500D01*
X132563500Y-42448125D01*
X132563500Y-42146500D01*
X133436500Y-42146500D01*
X133436500Y-42448125D01*
X133515875Y-42527500D01*
X133558466Y-42523633D01*
X133618530Y-42506200D01*
X133674038Y-42477385D01*
X133722858Y-42438294D01*
X133763114Y-42390430D01*
X133793258Y-42335632D01*
X133812133Y-42276006D01*
X133817500Y-42225875D01*
X133738125Y-42146500D01*
X133436500Y-42146500D01*
X132563500Y-42146500D01*
X132261875Y-42146500D01*
X132182500Y-42225875D01*
X131763500Y-42225875D01*
X131763500Y-41600000D01*
X134030964Y-41600000D01*
X134032500Y-42849125D01*
X134111875Y-42928500D01*
X134778500Y-42928500D01*
X134778500Y-41361875D01*
X135921500Y-41361875D01*
X135921500Y-42928500D01*
X136588125Y-42928500D01*
X136667500Y-42849125D01*
X136669036Y-41600000D01*
X136662906Y-41537759D01*
X136644751Y-41477910D01*
X136615269Y-41422753D01*
X136575593Y-41374407D01*
X136527247Y-41334731D01*
X136472090Y-41305249D01*
X136412241Y-41287094D01*
X136350000Y-41280964D01*
X136000875Y-41282500D01*
X135921500Y-41361875D01*
X134778500Y-41361875D01*
X134699125Y-41282500D01*
X134350000Y-41280964D01*
X134287759Y-41287094D01*
X134227910Y-41305249D01*
X134172753Y-41334731D01*
X134124407Y-41374407D01*
X134084731Y-41422753D01*
X134055249Y-41477910D01*
X134037094Y-41537759D01*
X134030964Y-41600000D01*
X131763500Y-41600000D01*
X131763500Y-41374125D01*
X132182500Y-41374125D01*
X132261875Y-41453500D01*
X132563500Y-41453500D01*
X132563500Y-41151875D01*
X133436500Y-41151875D01*
X133436500Y-41453500D01*
X133738125Y-41453500D01*
X133817500Y-41374125D01*
X133812133Y-41323994D01*
X133793258Y-41264368D01*
X133763114Y-41209570D01*
X133722858Y-41161706D01*
X133674038Y-41122615D01*
X133618530Y-41093800D01*
X133558466Y-41076367D01*
X133515875Y-41072500D01*
X133436500Y-41151875D01*
X132563500Y-41151875D01*
X132484125Y-41072500D01*
X132441534Y-41076367D01*
X132381470Y-41093800D01*
X132325962Y-41122615D01*
X132277142Y-41161706D01*
X132236886Y-41209570D01*
X132206742Y-41264368D01*
X132187867Y-41323994D01*
X132182500Y-41374125D01*
X131763500Y-41374125D01*
X131763500Y-39163500D01*
X132668054Y-39163500D01*
X132616053Y-39241325D01*
X132616053Y-39241325D01*
G37*
X132616053Y-39241325D02*
X132574887Y-39340709D01*
X132553900Y-39446214D01*
X132553900Y-39470964D01*
X132500000Y-39470964D01*
X132437759Y-39477094D01*
X132377910Y-39495249D01*
X132322753Y-39524731D01*
X132274407Y-39564407D01*
X132234731Y-39612753D01*
X132205249Y-39667910D01*
X132187094Y-39727759D01*
X132180964Y-39790000D01*
X132180964Y-40610000D01*
X132187094Y-40672241D01*
X132205249Y-40732090D01*
X132234731Y-40787247D01*
X132274407Y-40835593D01*
X132322753Y-40875269D01*
X132377910Y-40904751D01*
X132437759Y-40922906D01*
X132500000Y-40929036D01*
X133500000Y-40929036D01*
X133562241Y-40922906D01*
X133622090Y-40904751D01*
X133677247Y-40875269D01*
X133725593Y-40835593D01*
X133765269Y-40787247D01*
X133794751Y-40732090D01*
X133812906Y-40672241D01*
X133819036Y-40610000D01*
X133819036Y-39790000D01*
X133812906Y-39727759D01*
X133794751Y-39667910D01*
X133765269Y-39612753D01*
X133725593Y-39564407D01*
X133677247Y-39524731D01*
X133646100Y-39508083D01*
X133646100Y-39446214D01*
X133625113Y-39340709D01*
X133583947Y-39241325D01*
X133531946Y-39163500D01*
X144236500Y-39163500D01*
X144236500Y-41069068D01*
X143812398Y-40644966D01*
X143786541Y-40613459D01*
X143660842Y-40510301D01*
X143517434Y-40433647D01*
X143361826Y-40386444D01*
X143240553Y-40374500D01*
X143240550Y-40374500D01*
X143200000Y-40370506D01*
X143159450Y-40374500D01*
X142958884Y-40374500D01*
X142944751Y-40327910D01*
X142915269Y-40272753D01*
X142875593Y-40224407D01*
X142827247Y-40184731D01*
X142772090Y-40155249D01*
X142712241Y-40137094D01*
X142650000Y-40130964D01*
X140650000Y-40130964D01*
X140587759Y-40137094D01*
X140527910Y-40155249D01*
X140472753Y-40184731D01*
X140424407Y-40224407D01*
X140384731Y-40272753D01*
X140355249Y-40327910D01*
X140341116Y-40374500D01*
X139840550Y-40374500D01*
X139800000Y-40370506D01*
X139759449Y-40374500D01*
X139759447Y-40374500D01*
X139638174Y-40386444D01*
X139482566Y-40433647D01*
X139339157Y-40510301D01*
X139244958Y-40587608D01*
X139244957Y-40587609D01*
X139213459Y-40613459D01*
X139187611Y-40644955D01*
X137944961Y-41887607D01*
X137913460Y-41913459D01*
X137887609Y-41944959D01*
X137810301Y-42039158D01*
X137733647Y-42182567D01*
X137686445Y-42338174D01*
X137670506Y-42500000D01*
X137674501Y-42540560D01*
X137674500Y-46158067D01*
X136158068Y-47674500D01*
X132970550Y-47674500D01*
X132930000Y-47670506D01*
X132889449Y-47674500D01*
X132889447Y-47674500D01*
X132768174Y-47686444D01*
X132612566Y-47733647D01*
X132469157Y-47810301D01*
X132374958Y-47887608D01*
X132374955Y-47887611D01*
X132343459Y-47913459D01*
X132317611Y-47944955D01*
X131981603Y-48280964D01*
X131763500Y-48280964D01*
X131763500Y-45390000D01*
X132180964Y-45390000D01*
X132180964Y-46210000D01*
X132187094Y-46272241D01*
X132205249Y-46332090D01*
X132234731Y-46387247D01*
X132274407Y-46435593D01*
X132322753Y-46475269D01*
X132377910Y-46504751D01*
X132437759Y-46522906D01*
X132500000Y-46529036D01*
X132579722Y-46529036D01*
X132574887Y-46540709D01*
X132553900Y-46646214D01*
X132553900Y-46753786D01*
X132574887Y-46859291D01*
X132616053Y-46958675D01*
X132675817Y-47048118D01*
X132751882Y-47124183D01*
X132841325Y-47183947D01*
X132940709Y-47225113D01*
X133046214Y-47246100D01*
X133153786Y-47246100D01*
X133259291Y-47225113D01*
X133358675Y-47183947D01*
X133448118Y-47124183D01*
X133524183Y-47048118D01*
X133583947Y-46958675D01*
X133625113Y-46859291D01*
X133646100Y-46753786D01*
X133646100Y-46646214D01*
X133625113Y-46540709D01*
X133611544Y-46507950D01*
X133622090Y-46504751D01*
X133677247Y-46475269D01*
X133725593Y-46435593D01*
X133765269Y-46387247D01*
X133794751Y-46332090D01*
X133812906Y-46272241D01*
X133819036Y-46210000D01*
X133819036Y-45400000D01*
X134030964Y-45400000D01*
X134037094Y-45462241D01*
X134055249Y-45522090D01*
X134084731Y-45577247D01*
X134124407Y-45625593D01*
X134172753Y-45665269D01*
X134227910Y-45694751D01*
X134287759Y-45712906D01*
X134350000Y-45719036D01*
X134699125Y-45717500D01*
X134778500Y-45638125D01*
X134778500Y-44071500D01*
X135921500Y-44071500D01*
X135921500Y-45638125D01*
X136000875Y-45717500D01*
X136350000Y-45719036D01*
X136412241Y-45712906D01*
X136472090Y-45694751D01*
X136527247Y-45665269D01*
X136575593Y-45625593D01*
X136615269Y-45577247D01*
X136644751Y-45522090D01*
X136662906Y-45462241D01*
X136669036Y-45400000D01*
X136667500Y-44150875D01*
X136588125Y-44071500D01*
X135921500Y-44071500D01*
X134778500Y-44071500D01*
X134111875Y-44071500D01*
X134032500Y-44150875D01*
X134030964Y-45400000D01*
X133819036Y-45400000D01*
X133819036Y-45390000D01*
X133812906Y-45327759D01*
X133794751Y-45267910D01*
X133765269Y-45212753D01*
X133725593Y-45164407D01*
X133677247Y-45124731D01*
X133622090Y-45095249D01*
X133562241Y-45077094D01*
X133500000Y-45070964D01*
X132500000Y-45070964D01*
X132437759Y-45077094D01*
X132377910Y-45095249D01*
X132322753Y-45124731D01*
X132274407Y-45164407D01*
X132234731Y-45212753D01*
X132205249Y-45267910D01*
X132187094Y-45327759D01*
X132180964Y-45390000D01*
X131763500Y-45390000D01*
X131763500Y-45230723D01*
X131848118Y-45174183D01*
X131924183Y-45098118D01*
X131983947Y-45008675D01*
X132025113Y-44909291D01*
X132046100Y-44803786D01*
X132046100Y-44696214D01*
X132032109Y-44625875D01*
X132182500Y-44625875D01*
X132187867Y-44676006D01*
X132206742Y-44735632D01*
X132236886Y-44790430D01*
X132277142Y-44838294D01*
X132325962Y-44877385D01*
X132381470Y-44906200D01*
X132441534Y-44923633D01*
X132484125Y-44927500D01*
X132563500Y-44848125D01*
X132563500Y-44546500D01*
X133436500Y-44546500D01*
X133436500Y-44848125D01*
X133515875Y-44927500D01*
X133558466Y-44923633D01*
X133618530Y-44906200D01*
X133674038Y-44877385D01*
X133722858Y-44838294D01*
X133763114Y-44790430D01*
X133793258Y-44735632D01*
X133812133Y-44676006D01*
X133817500Y-44625875D01*
X133738125Y-44546500D01*
X133436500Y-44546500D01*
X132563500Y-44546500D01*
X132261875Y-44546500D01*
X132182500Y-44625875D01*
X132032109Y-44625875D01*
X132025113Y-44590709D01*
X131983947Y-44491325D01*
X131924183Y-44401882D01*
X131848118Y-44325817D01*
X131763500Y-44269277D01*
X131763500Y-43774125D01*
X132182500Y-43774125D01*
X132261875Y-43853500D01*
X132563500Y-43853500D01*
X132563500Y-43551875D01*
X133436500Y-43551875D01*
X133436500Y-43853500D01*
X133738125Y-43853500D01*
X133817500Y-43774125D01*
X133812133Y-43723994D01*
X133793258Y-43664368D01*
X133763114Y-43609570D01*
X133722858Y-43561706D01*
X133674038Y-43522615D01*
X133618530Y-43493800D01*
X133558466Y-43476367D01*
X133515875Y-43472500D01*
X133436500Y-43551875D01*
X132563500Y-43551875D01*
X132484125Y-43472500D01*
X132441534Y-43476367D01*
X132381470Y-43493800D01*
X132325962Y-43522615D01*
X132277142Y-43561706D01*
X132236886Y-43609570D01*
X132206742Y-43664368D01*
X132187867Y-43723994D01*
X132182500Y-43774125D01*
X131763500Y-43774125D01*
X131763500Y-42225875D01*
X132182500Y-42225875D01*
X132187867Y-42276006D01*
X132206742Y-42335632D01*
X132236886Y-42390430D01*
X132277142Y-42438294D01*
X132325962Y-42477385D01*
X132381470Y-42506200D01*
X132441534Y-42523633D01*
X132484125Y-42527500D01*
X132563500Y-42448125D01*
X132563500Y-42146500D01*
X133436500Y-42146500D01*
X133436500Y-42448125D01*
X133515875Y-42527500D01*
X133558466Y-42523633D01*
X133618530Y-42506200D01*
X133674038Y-42477385D01*
X133722858Y-42438294D01*
X133763114Y-42390430D01*
X133793258Y-42335632D01*
X133812133Y-42276006D01*
X133817500Y-42225875D01*
X133738125Y-42146500D01*
X133436500Y-42146500D01*
X132563500Y-42146500D01*
X132261875Y-42146500D01*
X132182500Y-42225875D01*
X131763500Y-42225875D01*
X131763500Y-41600000D01*
X134030964Y-41600000D01*
X134032500Y-42849125D01*
X134111875Y-42928500D01*
X134778500Y-42928500D01*
X134778500Y-41361875D01*
X135921500Y-41361875D01*
X135921500Y-42928500D01*
X136588125Y-42928500D01*
X136667500Y-42849125D01*
X136669036Y-41600000D01*
X136662906Y-41537759D01*
X136644751Y-41477910D01*
X136615269Y-41422753D01*
X136575593Y-41374407D01*
X136527247Y-41334731D01*
X136472090Y-41305249D01*
X136412241Y-41287094D01*
X136350000Y-41280964D01*
X136000875Y-41282500D01*
X135921500Y-41361875D01*
X134778500Y-41361875D01*
X134699125Y-41282500D01*
X134350000Y-41280964D01*
X134287759Y-41287094D01*
X134227910Y-41305249D01*
X134172753Y-41334731D01*
X134124407Y-41374407D01*
X134084731Y-41422753D01*
X134055249Y-41477910D01*
X134037094Y-41537759D01*
X134030964Y-41600000D01*
X131763500Y-41600000D01*
X131763500Y-41374125D01*
X132182500Y-41374125D01*
X132261875Y-41453500D01*
X132563500Y-41453500D01*
X132563500Y-41151875D01*
X133436500Y-41151875D01*
X133436500Y-41453500D01*
X133738125Y-41453500D01*
X133817500Y-41374125D01*
X133812133Y-41323994D01*
X133793258Y-41264368D01*
X133763114Y-41209570D01*
X133722858Y-41161706D01*
X133674038Y-41122615D01*
X133618530Y-41093800D01*
X133558466Y-41076367D01*
X133515875Y-41072500D01*
X133436500Y-41151875D01*
X132563500Y-41151875D01*
X132484125Y-41072500D01*
X132441534Y-41076367D01*
X132381470Y-41093800D01*
X132325962Y-41122615D01*
X132277142Y-41161706D01*
X132236886Y-41209570D01*
X132206742Y-41264368D01*
X132187867Y-41323994D01*
X132182500Y-41374125D01*
X131763500Y-41374125D01*
X131763500Y-39163500D01*
X132668054Y-39163500D01*
X132616053Y-39241325D01*
M02*
