G04 #@! TF.GenerationSoftware,KiCad,Pcbnew,(5.1.0-0)*
G04 #@! TF.CreationDate,2019-09-18T13:26:03-04:00*
G04 #@! TF.ProjectId,openlst-hw,6f70656e-6c73-4742-9d68-772e6b696361,1*
G04 #@! TF.SameCoordinates,Original*
G04 #@! TF.FileFunction,Legend,Top*
G04 #@! TF.FilePolarity,Positive*
%FSLAX46Y46*%
G04 Gerber Fmt 4.6, Leading zero omitted, Abs format (unit mm)*
G04 Created by KiCad (PCBNEW (5.1.0-0)) date 2019-09-18 13:26:03*
%MOMM*%
%LPD*%
G04 APERTURE LIST*
%ADD10C,0.200000*%
%ADD11C,0.150000*%
%ADD12C,0.450000*%
%ADD13C,0.120000*%
%ADD14C,0.300000*%
%ADD15C,0.100000*%
%ADD16C,0.250000*%
G04 APERTURE END LIST*
D10*
X148800000Y-56050000D02*
X148800000Y-56000000D01*
X149500000Y-56750000D02*
X148800000Y-56050000D01*
X131250000Y-56550000D02*
X131250000Y-57650000D01*
X130800000Y-62800000D02*
X131300000Y-63300000D01*
X134200000Y-62000000D02*
X134200000Y-61900000D01*
X134200000Y-61400000D02*
X134200000Y-62000000D01*
X135000000Y-60600000D02*
X134200000Y-61400000D01*
X135000000Y-60200000D02*
X135000000Y-60600000D01*
X137600000Y-60300000D02*
X136200000Y-61700000D01*
X141200000Y-65500000D02*
X139800000Y-66900000D01*
X151000000Y-70300000D02*
X151400000Y-69900000D01*
X151000000Y-71200000D02*
X151000000Y-70300000D01*
X149800000Y-67300000D02*
X151200000Y-67300000D01*
X148900000Y-66400000D02*
X149800000Y-67300000D01*
X148900000Y-65500000D02*
X148900000Y-66400000D01*
X138900000Y-66300000D02*
X138300000Y-66900000D01*
X136900000Y-69300000D02*
X137100000Y-69300000D01*
X139100000Y-71300000D02*
X139100000Y-70700000D01*
X140100000Y-69300000D02*
X140700000Y-69900000D01*
D11*
X148580952Y-87952380D02*
X148580952Y-87285714D01*
X148580952Y-87476190D02*
X148628571Y-87380952D01*
X148676190Y-87333333D01*
X148771428Y-87285714D01*
X148866666Y-87285714D01*
X149580952Y-87904761D02*
X149485714Y-87952380D01*
X149295238Y-87952380D01*
X149200000Y-87904761D01*
X149152380Y-87809523D01*
X149152380Y-87428571D01*
X149200000Y-87333333D01*
X149295238Y-87285714D01*
X149485714Y-87285714D01*
X149580952Y-87333333D01*
X149628571Y-87428571D01*
X149628571Y-87523809D01*
X149152380Y-87619047D01*
X149961904Y-87285714D02*
X150200000Y-87952380D01*
X150438095Y-87285714D01*
X151533333Y-87047619D02*
X151580952Y-87000000D01*
X151676190Y-86952380D01*
X151914285Y-86952380D01*
X152009523Y-87000000D01*
X152057142Y-87047619D01*
X152104761Y-87142857D01*
X152104761Y-87238095D01*
X152057142Y-87380952D01*
X151485714Y-87952380D01*
X152104761Y-87952380D01*
X152533333Y-87857142D02*
X152580952Y-87904761D01*
X152533333Y-87952380D01*
X152485714Y-87904761D01*
X152533333Y-87857142D01*
X152533333Y-87952380D01*
X153533333Y-87952380D02*
X152961904Y-87952380D01*
X153247619Y-87952380D02*
X153247619Y-86952380D01*
X153152380Y-87095238D01*
X153057142Y-87190476D01*
X152961904Y-87238095D01*
X154009523Y-87904761D02*
X154009523Y-87952380D01*
X153961904Y-88047619D01*
X153914285Y-88095238D01*
X155152380Y-87047619D02*
X155200000Y-87000000D01*
X155295238Y-86952380D01*
X155533333Y-86952380D01*
X155628571Y-87000000D01*
X155676190Y-87047619D01*
X155723809Y-87142857D01*
X155723809Y-87238095D01*
X155676190Y-87380952D01*
X155104761Y-87952380D01*
X155723809Y-87952380D01*
X156342857Y-86952380D02*
X156438095Y-86952380D01*
X156533333Y-87000000D01*
X156580952Y-87047619D01*
X156628571Y-87142857D01*
X156676190Y-87333333D01*
X156676190Y-87571428D01*
X156628571Y-87761904D01*
X156580952Y-87857142D01*
X156533333Y-87904761D01*
X156438095Y-87952380D01*
X156342857Y-87952380D01*
X156247619Y-87904761D01*
X156200000Y-87857142D01*
X156152380Y-87761904D01*
X156104761Y-87571428D01*
X156104761Y-87333333D01*
X156152380Y-87142857D01*
X156200000Y-87047619D01*
X156247619Y-87000000D01*
X156342857Y-86952380D01*
X157628571Y-87952380D02*
X157057142Y-87952380D01*
X157342857Y-87952380D02*
X157342857Y-86952380D01*
X157247619Y-87095238D01*
X157152380Y-87190476D01*
X157057142Y-87238095D01*
X158200000Y-87380952D02*
X158104761Y-87333333D01*
X158057142Y-87285714D01*
X158009523Y-87190476D01*
X158009523Y-87142857D01*
X158057142Y-87047619D01*
X158104761Y-87000000D01*
X158200000Y-86952380D01*
X158390476Y-86952380D01*
X158485714Y-87000000D01*
X158533333Y-87047619D01*
X158580952Y-87142857D01*
X158580952Y-87190476D01*
X158533333Y-87285714D01*
X158485714Y-87333333D01*
X158390476Y-87380952D01*
X158200000Y-87380952D01*
X158104761Y-87428571D01*
X158057142Y-87476190D01*
X158009523Y-87571428D01*
X158009523Y-87761904D01*
X158057142Y-87857142D01*
X158104761Y-87904761D01*
X158200000Y-87952380D01*
X158390476Y-87952380D01*
X158485714Y-87904761D01*
X158533333Y-87857142D01*
X158580952Y-87761904D01*
X158580952Y-87571428D01*
X158533333Y-87476190D01*
X158485714Y-87428571D01*
X158390476Y-87380952D01*
X159009523Y-87571428D02*
X159771428Y-87571428D01*
X160438095Y-86952380D02*
X160533333Y-86952380D01*
X160628571Y-87000000D01*
X160676190Y-87047619D01*
X160723809Y-87142857D01*
X160771428Y-87333333D01*
X160771428Y-87571428D01*
X160723809Y-87761904D01*
X160676190Y-87857142D01*
X160628571Y-87904761D01*
X160533333Y-87952380D01*
X160438095Y-87952380D01*
X160342857Y-87904761D01*
X160295238Y-87857142D01*
X160247619Y-87761904D01*
X160200000Y-87571428D01*
X160200000Y-87333333D01*
X160247619Y-87142857D01*
X160295238Y-87047619D01*
X160342857Y-87000000D01*
X160438095Y-86952380D01*
X161342857Y-87380952D02*
X161247619Y-87333333D01*
X161200000Y-87285714D01*
X161152380Y-87190476D01*
X161152380Y-87142857D01*
X161200000Y-87047619D01*
X161247619Y-87000000D01*
X161342857Y-86952380D01*
X161533333Y-86952380D01*
X161628571Y-87000000D01*
X161676190Y-87047619D01*
X161723809Y-87142857D01*
X161723809Y-87190476D01*
X161676190Y-87285714D01*
X161628571Y-87333333D01*
X161533333Y-87380952D01*
X161342857Y-87380952D01*
X161247619Y-87428571D01*
X161200000Y-87476190D01*
X161152380Y-87571428D01*
X161152380Y-87761904D01*
X161200000Y-87857142D01*
X161247619Y-87904761D01*
X161342857Y-87952380D01*
X161533333Y-87952380D01*
X161628571Y-87904761D01*
X161676190Y-87857142D01*
X161723809Y-87761904D01*
X161723809Y-87571428D01*
X161676190Y-87476190D01*
X161628571Y-87428571D01*
X161533333Y-87380952D01*
X162152380Y-87571428D02*
X162914285Y-87571428D01*
X163580952Y-86952380D02*
X163676190Y-86952380D01*
X163771428Y-87000000D01*
X163819047Y-87047619D01*
X163866666Y-87142857D01*
X163914285Y-87333333D01*
X163914285Y-87571428D01*
X163866666Y-87761904D01*
X163819047Y-87857142D01*
X163771428Y-87904761D01*
X163676190Y-87952380D01*
X163580952Y-87952380D01*
X163485714Y-87904761D01*
X163438095Y-87857142D01*
X163390476Y-87761904D01*
X163342857Y-87571428D01*
X163342857Y-87333333D01*
X163390476Y-87142857D01*
X163438095Y-87047619D01*
X163485714Y-87000000D01*
X163580952Y-86952380D01*
X164295238Y-87047619D02*
X164342857Y-87000000D01*
X164438095Y-86952380D01*
X164676190Y-86952380D01*
X164771428Y-87000000D01*
X164819047Y-87047619D01*
X164866666Y-87142857D01*
X164866666Y-87238095D01*
X164819047Y-87380952D01*
X164247619Y-87952380D01*
X164866666Y-87952380D01*
X144204761Y-87666666D02*
X144680952Y-87666666D01*
X144109523Y-87952380D02*
X144442857Y-86952380D01*
X144776190Y-87952380D01*
X145538095Y-87285714D02*
X145538095Y-87952380D01*
X145109523Y-87285714D02*
X145109523Y-87809523D01*
X145157142Y-87904761D01*
X145252380Y-87952380D01*
X145395238Y-87952380D01*
X145490476Y-87904761D01*
X145538095Y-87857142D01*
X145919047Y-87952380D02*
X146442857Y-87285714D01*
X145919047Y-87285714D02*
X146442857Y-87952380D01*
X114047619Y-50923809D02*
X115047619Y-50923809D01*
X115047619Y-51304761D01*
X115000000Y-51400000D01*
X114952380Y-51447619D01*
X114857142Y-51495238D01*
X114714285Y-51495238D01*
X114619047Y-51447619D01*
X114571428Y-51400000D01*
X114523809Y-51304761D01*
X114523809Y-50923809D01*
X114047619Y-52066666D02*
X114095238Y-51971428D01*
X114142857Y-51923809D01*
X114238095Y-51876190D01*
X114523809Y-51876190D01*
X114619047Y-51923809D01*
X114666666Y-51971428D01*
X114714285Y-52066666D01*
X114714285Y-52209523D01*
X114666666Y-52304761D01*
X114619047Y-52352380D01*
X114523809Y-52400000D01*
X114238095Y-52400000D01*
X114142857Y-52352380D01*
X114095238Y-52304761D01*
X114047619Y-52209523D01*
X114047619Y-52066666D01*
X114714285Y-52733333D02*
X114047619Y-52923809D01*
X114523809Y-53114285D01*
X114047619Y-53304761D01*
X114714285Y-53495238D01*
X114095238Y-54257142D02*
X114047619Y-54161904D01*
X114047619Y-53971428D01*
X114095238Y-53876190D01*
X114190476Y-53828571D01*
X114571428Y-53828571D01*
X114666666Y-53876190D01*
X114714285Y-53971428D01*
X114714285Y-54161904D01*
X114666666Y-54257142D01*
X114571428Y-54304761D01*
X114476190Y-54304761D01*
X114380952Y-53828571D01*
X114047619Y-54733333D02*
X114714285Y-54733333D01*
X114523809Y-54733333D02*
X114619047Y-54780952D01*
X114666666Y-54828571D01*
X114714285Y-54923809D01*
X114714285Y-55019047D01*
X115047619Y-66428571D02*
X114238095Y-66428571D01*
X114142857Y-66476190D01*
X114095238Y-66523809D01*
X114047619Y-66619047D01*
X114047619Y-66809523D01*
X114095238Y-66904761D01*
X114142857Y-66952380D01*
X114238095Y-67000000D01*
X115047619Y-67000000D01*
X114333333Y-67428571D02*
X114333333Y-67904761D01*
X114047619Y-67333333D02*
X115047619Y-67666666D01*
X114047619Y-68000000D01*
X114047619Y-68904761D02*
X114523809Y-68571428D01*
X114047619Y-68333333D02*
X115047619Y-68333333D01*
X115047619Y-68714285D01*
X115000000Y-68809523D01*
X114952380Y-68857142D01*
X114857142Y-68904761D01*
X114714285Y-68904761D01*
X114619047Y-68857142D01*
X114571428Y-68809523D01*
X114523809Y-68714285D01*
X114523809Y-68333333D01*
X115047619Y-69190476D02*
X115047619Y-69761904D01*
X114047619Y-69476190D02*
X115047619Y-69476190D01*
X115047619Y-70285714D02*
X115047619Y-70380952D01*
X115000000Y-70476190D01*
X114952380Y-70523809D01*
X114857142Y-70571428D01*
X114666666Y-70619047D01*
X114428571Y-70619047D01*
X114238095Y-70571428D01*
X114142857Y-70523809D01*
X114095238Y-70476190D01*
X114047619Y-70380952D01*
X114047619Y-70285714D01*
X114095238Y-70190476D01*
X114142857Y-70142857D01*
X114238095Y-70095238D01*
X114428571Y-70047619D01*
X114666666Y-70047619D01*
X114857142Y-70095238D01*
X114952380Y-70142857D01*
X115000000Y-70190476D01*
X115047619Y-70285714D01*
X128928571Y-86952380D02*
X128928571Y-87761904D01*
X128976190Y-87857142D01*
X129023809Y-87904761D01*
X129119047Y-87952380D01*
X129309523Y-87952380D01*
X129404761Y-87904761D01*
X129452380Y-87857142D01*
X129500000Y-87761904D01*
X129500000Y-86952380D01*
X129928571Y-87666666D02*
X130404761Y-87666666D01*
X129833333Y-87952380D02*
X130166666Y-86952380D01*
X130500000Y-87952380D01*
X131404761Y-87952380D02*
X131071428Y-87476190D01*
X130833333Y-87952380D02*
X130833333Y-86952380D01*
X131214285Y-86952380D01*
X131309523Y-87000000D01*
X131357142Y-87047619D01*
X131404761Y-87142857D01*
X131404761Y-87285714D01*
X131357142Y-87380952D01*
X131309523Y-87428571D01*
X131214285Y-87476190D01*
X130833333Y-87476190D01*
X131690476Y-86952380D02*
X132261904Y-86952380D01*
X131976190Y-87952380D02*
X131976190Y-86952380D01*
X133119047Y-87952380D02*
X132547619Y-87952380D01*
X132833333Y-87952380D02*
X132833333Y-86952380D01*
X132738095Y-87095238D01*
X132642857Y-87190476D01*
X132547619Y-87238095D01*
X119800000Y-53738095D02*
X119847619Y-53642857D01*
X119847619Y-53500000D01*
X119800000Y-53357142D01*
X119704761Y-53261904D01*
X119609523Y-53214285D01*
X119419047Y-53166666D01*
X119276190Y-53166666D01*
X119085714Y-53214285D01*
X118990476Y-53261904D01*
X118895238Y-53357142D01*
X118847619Y-53500000D01*
X118847619Y-53595238D01*
X118895238Y-53738095D01*
X118942857Y-53785714D01*
X119276190Y-53785714D01*
X119276190Y-53595238D01*
X118847619Y-54214285D02*
X119847619Y-54214285D01*
X118847619Y-54785714D01*
X119847619Y-54785714D01*
X118847619Y-55261904D02*
X119847619Y-55261904D01*
X119847619Y-55500000D01*
X119800000Y-55642857D01*
X119704761Y-55738095D01*
X119609523Y-55785714D01*
X119419047Y-55833333D01*
X119276190Y-55833333D01*
X119085714Y-55785714D01*
X118990476Y-55738095D01*
X118895238Y-55642857D01*
X118847619Y-55500000D01*
X118847619Y-55261904D01*
X119228571Y-49614285D02*
X119228571Y-50376190D01*
X118847619Y-49995238D02*
X119609523Y-49995238D01*
X119847619Y-51328571D02*
X119847619Y-50852380D01*
X119371428Y-50804761D01*
X119419047Y-50852380D01*
X119466666Y-50947619D01*
X119466666Y-51185714D01*
X119419047Y-51280952D01*
X119371428Y-51328571D01*
X119276190Y-51376190D01*
X119038095Y-51376190D01*
X118942857Y-51328571D01*
X118895238Y-51280952D01*
X118847619Y-51185714D01*
X118847619Y-50947619D01*
X118895238Y-50852380D01*
X118942857Y-50804761D01*
X119847619Y-51661904D02*
X118847619Y-51995238D01*
X119847619Y-52328571D01*
X145738095Y-82352380D02*
X146309523Y-82352380D01*
X146023809Y-83352380D02*
X146023809Y-82352380D01*
X146547619Y-82352380D02*
X147214285Y-83352380D01*
X147214285Y-82352380D02*
X146547619Y-83352380D01*
X142923809Y-81985000D02*
X143923809Y-81985000D01*
X143733333Y-83352380D02*
X143400000Y-82876190D01*
X143161904Y-83352380D02*
X143161904Y-82352380D01*
X143542857Y-82352380D01*
X143638095Y-82400000D01*
X143685714Y-82447619D01*
X143733333Y-82542857D01*
X143733333Y-82685714D01*
X143685714Y-82780952D01*
X143638095Y-82828571D01*
X143542857Y-82876190D01*
X143161904Y-82876190D01*
X143923809Y-81985000D02*
X144876190Y-81985000D01*
X144066666Y-82352380D02*
X144733333Y-83352380D01*
X144733333Y-82352380D02*
X144066666Y-83352380D01*
D12*
X149830252Y-83130952D02*
X150306443Y-83130952D01*
X150529657Y-83250000D01*
X150737991Y-83488095D01*
X150797514Y-83964285D01*
X150693348Y-84797619D01*
X150514776Y-85273809D01*
X150246919Y-85511904D01*
X149993943Y-85630952D01*
X149517752Y-85630952D01*
X149294538Y-85511904D01*
X149086205Y-85273809D01*
X149026681Y-84797619D01*
X149130848Y-83964285D01*
X149309419Y-83488095D01*
X149577276Y-83250000D01*
X149830252Y-83130952D01*
X151868943Y-83964285D02*
X151556443Y-86464285D01*
X151854062Y-84083333D02*
X152107038Y-83964285D01*
X152583229Y-83964285D01*
X152806443Y-84083333D01*
X152910610Y-84202380D01*
X152999895Y-84440476D01*
X152910610Y-85154761D01*
X152761800Y-85392857D01*
X152627872Y-85511904D01*
X152374895Y-85630952D01*
X151898705Y-85630952D01*
X151675491Y-85511904D01*
X154889776Y-85511904D02*
X154636800Y-85630952D01*
X154160610Y-85630952D01*
X153937395Y-85511904D01*
X153848110Y-85273809D01*
X153967157Y-84321428D01*
X154115967Y-84083333D01*
X154368943Y-83964285D01*
X154845133Y-83964285D01*
X155068348Y-84083333D01*
X155157633Y-84321428D01*
X155127872Y-84559523D01*
X153907633Y-84797619D01*
X156273705Y-83964285D02*
X156065372Y-85630952D01*
X156243943Y-84202380D02*
X156377872Y-84083333D01*
X156630848Y-83964285D01*
X156987991Y-83964285D01*
X157211205Y-84083333D01*
X157300491Y-84321428D01*
X157136800Y-85630952D01*
X159517752Y-85630952D02*
X158327276Y-85630952D01*
X158639776Y-83130952D01*
X160246919Y-85511904D02*
X160589181Y-85630952D01*
X161184419Y-85630952D01*
X161437395Y-85511904D01*
X161571324Y-85392857D01*
X161720133Y-85154761D01*
X161749895Y-84916666D01*
X161660610Y-84678571D01*
X161556443Y-84559523D01*
X161333229Y-84440476D01*
X160871919Y-84321428D01*
X160648705Y-84202380D01*
X160544538Y-84083333D01*
X160455252Y-83845238D01*
X160485014Y-83607142D01*
X160633824Y-83369047D01*
X160767752Y-83250000D01*
X161020729Y-83130952D01*
X161615967Y-83130952D01*
X161958229Y-83250000D01*
X162687395Y-83130952D02*
X164115967Y-83130952D01*
X163089181Y-85630952D02*
X163401681Y-83130952D01*
D13*
X155750000Y-61250000D02*
X155750000Y-58250000D01*
X158750000Y-58250000D02*
X155750000Y-58250000D01*
X158750000Y-61250000D02*
X155750000Y-61250000D01*
X158750000Y-61250000D02*
X158750000Y-58250000D01*
D10*
X159448821Y-61566100D02*
G75*
G03X159448821Y-61566100I-141421J0D01*
G01*
D13*
X115670000Y-74530000D02*
X118330000Y-74530000D01*
X115670000Y-61770000D02*
X115670000Y-74530000D01*
X118330000Y-61770000D02*
X118330000Y-74530000D01*
X115670000Y-61770000D02*
X118330000Y-61770000D01*
X115670000Y-60500000D02*
X115670000Y-59170000D01*
X115670000Y-59170000D02*
X117000000Y-59170000D01*
D11*
X129050000Y-65950000D02*
X128450000Y-66550000D01*
D14*
X127750000Y-67000000D02*
G75*
G03X127750000Y-67000000I-150000J0D01*
G01*
D11*
X134550000Y-72050000D02*
X133950000Y-72050000D01*
X134550000Y-72050000D02*
X134550000Y-71450000D01*
X128450000Y-72050000D02*
X129050000Y-72050000D01*
X128450000Y-72050000D02*
X128450000Y-71450000D01*
X133950000Y-65950000D02*
X134550000Y-65950000D01*
X134550000Y-65950000D02*
X134550000Y-66550000D01*
D15*
X160500000Y-71000000D02*
X160000000Y-71500000D01*
X160000000Y-71500000D02*
X154000000Y-71500000D01*
X154000000Y-71500000D02*
X154000000Y-65000000D01*
X154000000Y-65000000D02*
X160500000Y-65000000D01*
X160500000Y-65000000D02*
X160500000Y-71000000D01*
D16*
X160850000Y-71750000D02*
G75*
G03X160850000Y-71750000I-100000J0D01*
G01*
D13*
X149660000Y-47750000D02*
X149660000Y-43530000D01*
X149660000Y-43530000D02*
X146340000Y-43530000D01*
X146340000Y-43530000D02*
X146340000Y-47750000D01*
X169950000Y-51260000D02*
X172220000Y-51260000D01*
X172220000Y-51260000D02*
X172220000Y-49740000D01*
X172220000Y-49740000D02*
X169950000Y-49740000D01*
X169950000Y-54260000D02*
X172220000Y-54260000D01*
X172220000Y-54260000D02*
X172220000Y-52740000D01*
X172220000Y-52740000D02*
X169950000Y-52740000D01*
X127250000Y-48750000D02*
X122950000Y-48750000D01*
X122950000Y-48750000D02*
X122950000Y-54450000D01*
X127250000Y-48750000D02*
X127250000Y-54450000D01*
X115670000Y-55370000D02*
X118330000Y-55370000D01*
X115670000Y-52770000D02*
X115670000Y-55370000D01*
X118330000Y-52770000D02*
X118330000Y-55370000D01*
X115670000Y-52770000D02*
X118330000Y-52770000D01*
X115670000Y-51500000D02*
X115670000Y-50170000D01*
X115670000Y-50170000D02*
X117000000Y-50170000D01*
X128765000Y-46735000D02*
X125235000Y-46735000D01*
X128765000Y-40265000D02*
X125235000Y-40265000D01*
X130090000Y-46670000D02*
X128765000Y-46670000D01*
X128765000Y-46735000D02*
X128765000Y-46670000D01*
X125235000Y-46735000D02*
X125235000Y-46670000D01*
X128765000Y-40330000D02*
X128765000Y-40265000D01*
X125235000Y-40330000D02*
X125235000Y-40265000D01*
X138530000Y-86330000D02*
X138530000Y-83670000D01*
X125770000Y-86330000D02*
X138530000Y-86330000D01*
X125770000Y-83670000D02*
X138530000Y-83670000D01*
X125770000Y-86330000D02*
X125770000Y-83670000D01*
X124500000Y-86330000D02*
X123170000Y-86330000D01*
X123170000Y-86330000D02*
X123170000Y-85000000D01*
X147910000Y-86330000D02*
X147910000Y-83670000D01*
X142770000Y-86330000D02*
X147910000Y-86330000D01*
X142770000Y-83670000D02*
X147910000Y-83670000D01*
X142770000Y-86330000D02*
X142770000Y-83670000D01*
X141500000Y-86330000D02*
X140170000Y-86330000D01*
X140170000Y-86330000D02*
X140170000Y-85000000D01*
X166500000Y-63250000D02*
X167000000Y-63500000D01*
X166500000Y-63750000D02*
X166500000Y-63250000D01*
X167000000Y-63500000D02*
X166500000Y-63750000D01*
X131000000Y-50410000D02*
X130000000Y-50410000D01*
X131000000Y-48590000D02*
X130000000Y-48590000D01*
X136590000Y-40090000D02*
X136590000Y-41350000D01*
X136590000Y-46910000D02*
X136590000Y-45650000D01*
X140350000Y-40090000D02*
X136590000Y-40090000D01*
X142600000Y-46910000D02*
X136590000Y-46910000D01*
X161200000Y-46550000D02*
X161200000Y-45050000D01*
X161200000Y-45050000D02*
X159390000Y-45050000D01*
X159390000Y-45050000D02*
X159390000Y-39925000D01*
X150800000Y-46550000D02*
X150800000Y-45050000D01*
X150800000Y-45050000D02*
X152610000Y-45050000D01*
X152610000Y-45050000D02*
X152610000Y-43950000D01*
X147000000Y-53150000D02*
X146700000Y-53150000D01*
X146700000Y-53150000D02*
X146700000Y-54350000D01*
X141300000Y-54350000D02*
X141300000Y-53150000D01*
X145100000Y-55550000D02*
X142900000Y-55550000D01*
X142900000Y-51950000D02*
X145100000Y-51950000D01*
X145100000Y-51950000D02*
X145100000Y-51550000D01*
X131420000Y-78260000D02*
X132350000Y-78260000D01*
X134580000Y-78260000D02*
X133650000Y-78260000D01*
X134580000Y-78260000D02*
X134580000Y-76100000D01*
X131420000Y-78260000D02*
X131420000Y-76800000D01*
X146550000Y-69660000D02*
X148450000Y-69660000D01*
X147950000Y-67340000D02*
X146550000Y-67340000D01*
D11*
X156488095Y-61952380D02*
X156488095Y-62761904D01*
X156535714Y-62857142D01*
X156583333Y-62904761D01*
X156678571Y-62952380D01*
X156869047Y-62952380D01*
X156964285Y-62904761D01*
X157011904Y-62857142D01*
X157059523Y-62761904D01*
X157059523Y-61952380D01*
X157678571Y-62380952D02*
X157583333Y-62333333D01*
X157535714Y-62285714D01*
X157488095Y-62190476D01*
X157488095Y-62142857D01*
X157535714Y-62047619D01*
X157583333Y-62000000D01*
X157678571Y-61952380D01*
X157869047Y-61952380D01*
X157964285Y-62000000D01*
X158011904Y-62047619D01*
X158059523Y-62142857D01*
X158059523Y-62190476D01*
X158011904Y-62285714D01*
X157964285Y-62333333D01*
X157869047Y-62380952D01*
X157678571Y-62380952D01*
X157583333Y-62428571D01*
X157535714Y-62476190D01*
X157488095Y-62571428D01*
X157488095Y-62761904D01*
X157535714Y-62857142D01*
X157583333Y-62904761D01*
X157678571Y-62952380D01*
X157869047Y-62952380D01*
X157964285Y-62904761D01*
X158011904Y-62857142D01*
X158059523Y-62761904D01*
X158059523Y-62571428D01*
X158011904Y-62476190D01*
X157964285Y-62428571D01*
X157869047Y-62380952D01*
X119466666Y-59452380D02*
X119466666Y-60166666D01*
X119419047Y-60309523D01*
X119323809Y-60404761D01*
X119180952Y-60452380D01*
X119085714Y-60452380D01*
X119847619Y-59452380D02*
X120466666Y-59452380D01*
X120133333Y-59833333D01*
X120276190Y-59833333D01*
X120371428Y-59880952D01*
X120419047Y-59928571D01*
X120466666Y-60023809D01*
X120466666Y-60261904D01*
X120419047Y-60357142D01*
X120371428Y-60404761D01*
X120276190Y-60452380D01*
X119990476Y-60452380D01*
X119895238Y-60404761D01*
X119847619Y-60357142D01*
X128338095Y-64252380D02*
X128338095Y-65061904D01*
X128385714Y-65157142D01*
X128433333Y-65204761D01*
X128528571Y-65252380D01*
X128719047Y-65252380D01*
X128814285Y-65204761D01*
X128861904Y-65157142D01*
X128909523Y-65061904D01*
X128909523Y-64252380D01*
X129338095Y-64347619D02*
X129385714Y-64300000D01*
X129480952Y-64252380D01*
X129719047Y-64252380D01*
X129814285Y-64300000D01*
X129861904Y-64347619D01*
X129909523Y-64442857D01*
X129909523Y-64538095D01*
X129861904Y-64680952D01*
X129290476Y-65252380D01*
X129909523Y-65252380D01*
X160938095Y-70352380D02*
X160938095Y-71161904D01*
X160985714Y-71257142D01*
X161033333Y-71304761D01*
X161128571Y-71352380D01*
X161319047Y-71352380D01*
X161414285Y-71304761D01*
X161461904Y-71257142D01*
X161509523Y-71161904D01*
X161509523Y-70352380D01*
X162033333Y-71352380D02*
X162223809Y-71352380D01*
X162319047Y-71304761D01*
X162366666Y-71257142D01*
X162461904Y-71114285D01*
X162509523Y-70923809D01*
X162509523Y-70542857D01*
X162461904Y-70447619D01*
X162414285Y-70400000D01*
X162319047Y-70352380D01*
X162128571Y-70352380D01*
X162033333Y-70400000D01*
X161985714Y-70447619D01*
X161938095Y-70542857D01*
X161938095Y-70780952D01*
X161985714Y-70876190D01*
X162033333Y-70923809D01*
X162128571Y-70971428D01*
X162319047Y-70971428D01*
X162414285Y-70923809D01*
X162461904Y-70876190D01*
X162509523Y-70780952D01*
X126633333Y-72557142D02*
X126585714Y-72604761D01*
X126442857Y-72652380D01*
X126347619Y-72652380D01*
X126204761Y-72604761D01*
X126109523Y-72509523D01*
X126061904Y-72414285D01*
X126014285Y-72223809D01*
X126014285Y-72080952D01*
X126061904Y-71890476D01*
X126109523Y-71795238D01*
X126204761Y-71700000D01*
X126347619Y-71652380D01*
X126442857Y-71652380D01*
X126585714Y-71700000D01*
X126633333Y-71747619D01*
X127585714Y-72652380D02*
X127014285Y-72652380D01*
X127300000Y-72652380D02*
X127300000Y-71652380D01*
X127204761Y-71795238D01*
X127109523Y-71890476D01*
X127014285Y-71938095D01*
X135933333Y-66057142D02*
X135885714Y-66104761D01*
X135742857Y-66152380D01*
X135647619Y-66152380D01*
X135504761Y-66104761D01*
X135409523Y-66009523D01*
X135361904Y-65914285D01*
X135314285Y-65723809D01*
X135314285Y-65580952D01*
X135361904Y-65390476D01*
X135409523Y-65295238D01*
X135504761Y-65200000D01*
X135647619Y-65152380D01*
X135742857Y-65152380D01*
X135885714Y-65200000D01*
X135933333Y-65247619D01*
X136314285Y-65247619D02*
X136361904Y-65200000D01*
X136457142Y-65152380D01*
X136695238Y-65152380D01*
X136790476Y-65200000D01*
X136838095Y-65247619D01*
X136885714Y-65342857D01*
X136885714Y-65438095D01*
X136838095Y-65580952D01*
X136266666Y-66152380D01*
X136885714Y-66152380D01*
X137433333Y-59957142D02*
X137385714Y-60004761D01*
X137242857Y-60052380D01*
X137147619Y-60052380D01*
X137004761Y-60004761D01*
X136909523Y-59909523D01*
X136861904Y-59814285D01*
X136814285Y-59623809D01*
X136814285Y-59480952D01*
X136861904Y-59290476D01*
X136909523Y-59195238D01*
X137004761Y-59100000D01*
X137147619Y-59052380D01*
X137242857Y-59052380D01*
X137385714Y-59100000D01*
X137433333Y-59147619D01*
X137766666Y-59052380D02*
X138385714Y-59052380D01*
X138052380Y-59433333D01*
X138195238Y-59433333D01*
X138290476Y-59480952D01*
X138338095Y-59528571D01*
X138385714Y-59623809D01*
X138385714Y-59861904D01*
X138338095Y-59957142D01*
X138290476Y-60004761D01*
X138195238Y-60052380D01*
X137909523Y-60052380D01*
X137814285Y-60004761D01*
X137766666Y-59957142D01*
X144683333Y-41907142D02*
X144635714Y-41954761D01*
X144492857Y-42002380D01*
X144397619Y-42002380D01*
X144254761Y-41954761D01*
X144159523Y-41859523D01*
X144111904Y-41764285D01*
X144064285Y-41573809D01*
X144064285Y-41430952D01*
X144111904Y-41240476D01*
X144159523Y-41145238D01*
X144254761Y-41050000D01*
X144397619Y-41002380D01*
X144492857Y-41002380D01*
X144635714Y-41050000D01*
X144683333Y-41097619D01*
X145540476Y-41335714D02*
X145540476Y-42002380D01*
X145302380Y-40954761D02*
X145064285Y-41669047D01*
X145683333Y-41669047D01*
X134933333Y-59857142D02*
X134885714Y-59904761D01*
X134742857Y-59952380D01*
X134647619Y-59952380D01*
X134504761Y-59904761D01*
X134409523Y-59809523D01*
X134361904Y-59714285D01*
X134314285Y-59523809D01*
X134314285Y-59380952D01*
X134361904Y-59190476D01*
X134409523Y-59095238D01*
X134504761Y-59000000D01*
X134647619Y-58952380D01*
X134742857Y-58952380D01*
X134885714Y-59000000D01*
X134933333Y-59047619D01*
X135838095Y-58952380D02*
X135361904Y-58952380D01*
X135314285Y-59428571D01*
X135361904Y-59380952D01*
X135457142Y-59333333D01*
X135695238Y-59333333D01*
X135790476Y-59380952D01*
X135838095Y-59428571D01*
X135885714Y-59523809D01*
X135885714Y-59761904D01*
X135838095Y-59857142D01*
X135790476Y-59904761D01*
X135695238Y-59952380D01*
X135457142Y-59952380D01*
X135361904Y-59904761D01*
X135314285Y-59857142D01*
X164933333Y-71057142D02*
X164885714Y-71104761D01*
X164742857Y-71152380D01*
X164647619Y-71152380D01*
X164504761Y-71104761D01*
X164409523Y-71009523D01*
X164361904Y-70914285D01*
X164314285Y-70723809D01*
X164314285Y-70580952D01*
X164361904Y-70390476D01*
X164409523Y-70295238D01*
X164504761Y-70200000D01*
X164647619Y-70152380D01*
X164742857Y-70152380D01*
X164885714Y-70200000D01*
X164933333Y-70247619D01*
X165790476Y-70152380D02*
X165600000Y-70152380D01*
X165504761Y-70200000D01*
X165457142Y-70247619D01*
X165361904Y-70390476D01*
X165314285Y-70580952D01*
X165314285Y-70961904D01*
X165361904Y-71057142D01*
X165409523Y-71104761D01*
X165504761Y-71152380D01*
X165695238Y-71152380D01*
X165790476Y-71104761D01*
X165838095Y-71057142D01*
X165885714Y-70961904D01*
X165885714Y-70723809D01*
X165838095Y-70628571D01*
X165790476Y-70580952D01*
X165695238Y-70533333D01*
X165504761Y-70533333D01*
X165409523Y-70580952D01*
X165361904Y-70628571D01*
X165314285Y-70723809D01*
X135833333Y-73607142D02*
X135785714Y-73654761D01*
X135642857Y-73702380D01*
X135547619Y-73702380D01*
X135404761Y-73654761D01*
X135309523Y-73559523D01*
X135261904Y-73464285D01*
X135214285Y-73273809D01*
X135214285Y-73130952D01*
X135261904Y-72940476D01*
X135309523Y-72845238D01*
X135404761Y-72750000D01*
X135547619Y-72702380D01*
X135642857Y-72702380D01*
X135785714Y-72750000D01*
X135833333Y-72797619D01*
X136166666Y-72702380D02*
X136833333Y-72702380D01*
X136404761Y-73702380D01*
X151433333Y-65157142D02*
X151385714Y-65204761D01*
X151242857Y-65252380D01*
X151147619Y-65252380D01*
X151004761Y-65204761D01*
X150909523Y-65109523D01*
X150861904Y-65014285D01*
X150814285Y-64823809D01*
X150814285Y-64680952D01*
X150861904Y-64490476D01*
X150909523Y-64395238D01*
X151004761Y-64300000D01*
X151147619Y-64252380D01*
X151242857Y-64252380D01*
X151385714Y-64300000D01*
X151433333Y-64347619D01*
X152004761Y-64680952D02*
X151909523Y-64633333D01*
X151861904Y-64585714D01*
X151814285Y-64490476D01*
X151814285Y-64442857D01*
X151861904Y-64347619D01*
X151909523Y-64300000D01*
X152004761Y-64252380D01*
X152195238Y-64252380D01*
X152290476Y-64300000D01*
X152338095Y-64347619D01*
X152385714Y-64442857D01*
X152385714Y-64490476D01*
X152338095Y-64585714D01*
X152290476Y-64633333D01*
X152195238Y-64680952D01*
X152004761Y-64680952D01*
X151909523Y-64728571D01*
X151861904Y-64776190D01*
X151814285Y-64871428D01*
X151814285Y-65061904D01*
X151861904Y-65157142D01*
X151909523Y-65204761D01*
X152004761Y-65252380D01*
X152195238Y-65252380D01*
X152290476Y-65204761D01*
X152338095Y-65157142D01*
X152385714Y-65061904D01*
X152385714Y-64871428D01*
X152338095Y-64776190D01*
X152290476Y-64728571D01*
X152195238Y-64680952D01*
X127283333Y-60057142D02*
X127235714Y-60104761D01*
X127092857Y-60152380D01*
X126997619Y-60152380D01*
X126854761Y-60104761D01*
X126759523Y-60009523D01*
X126711904Y-59914285D01*
X126664285Y-59723809D01*
X126664285Y-59580952D01*
X126711904Y-59390476D01*
X126759523Y-59295238D01*
X126854761Y-59200000D01*
X126997619Y-59152380D01*
X127092857Y-59152380D01*
X127235714Y-59200000D01*
X127283333Y-59247619D01*
X127759523Y-60152380D02*
X127950000Y-60152380D01*
X128045238Y-60104761D01*
X128092857Y-60057142D01*
X128188095Y-59914285D01*
X128235714Y-59723809D01*
X128235714Y-59342857D01*
X128188095Y-59247619D01*
X128140476Y-59200000D01*
X128045238Y-59152380D01*
X127854761Y-59152380D01*
X127759523Y-59200000D01*
X127711904Y-59247619D01*
X127664285Y-59342857D01*
X127664285Y-59580952D01*
X127711904Y-59676190D01*
X127759523Y-59723809D01*
X127854761Y-59771428D01*
X128045238Y-59771428D01*
X128140476Y-59723809D01*
X128188095Y-59676190D01*
X128235714Y-59580952D01*
X127107142Y-69392857D02*
X127154761Y-69440476D01*
X127202380Y-69583333D01*
X127202380Y-69678571D01*
X127154761Y-69821428D01*
X127059523Y-69916666D01*
X126964285Y-69964285D01*
X126773809Y-70011904D01*
X126630952Y-70011904D01*
X126440476Y-69964285D01*
X126345238Y-69916666D01*
X126250000Y-69821428D01*
X126202380Y-69678571D01*
X126202380Y-69583333D01*
X126250000Y-69440476D01*
X126297619Y-69392857D01*
X127202380Y-68440476D02*
X127202380Y-69011904D01*
X127202380Y-68726190D02*
X126202380Y-68726190D01*
X126345238Y-68821428D01*
X126440476Y-68916666D01*
X126488095Y-69011904D01*
X126202380Y-67821428D02*
X126202380Y-67726190D01*
X126250000Y-67630952D01*
X126297619Y-67583333D01*
X126392857Y-67535714D01*
X126583333Y-67488095D01*
X126821428Y-67488095D01*
X127011904Y-67535714D01*
X127107142Y-67583333D01*
X127154761Y-67630952D01*
X127202380Y-67726190D01*
X127202380Y-67821428D01*
X127154761Y-67916666D01*
X127107142Y-67964285D01*
X127011904Y-68011904D01*
X126821428Y-68059523D01*
X126583333Y-68059523D01*
X126392857Y-68011904D01*
X126297619Y-67964285D01*
X126250000Y-67916666D01*
X126202380Y-67821428D01*
X132107142Y-45642857D02*
X132154761Y-45690476D01*
X132202380Y-45833333D01*
X132202380Y-45928571D01*
X132154761Y-46071428D01*
X132059523Y-46166666D01*
X131964285Y-46214285D01*
X131773809Y-46261904D01*
X131630952Y-46261904D01*
X131440476Y-46214285D01*
X131345238Y-46166666D01*
X131250000Y-46071428D01*
X131202380Y-45928571D01*
X131202380Y-45833333D01*
X131250000Y-45690476D01*
X131297619Y-45642857D01*
X132202380Y-44690476D02*
X132202380Y-45261904D01*
X132202380Y-44976190D02*
X131202380Y-44976190D01*
X131345238Y-45071428D01*
X131440476Y-45166666D01*
X131488095Y-45261904D01*
X131202380Y-44357142D02*
X131202380Y-43738095D01*
X131583333Y-44071428D01*
X131583333Y-43928571D01*
X131630952Y-43833333D01*
X131678571Y-43785714D01*
X131773809Y-43738095D01*
X132011904Y-43738095D01*
X132107142Y-43785714D01*
X132154761Y-43833333D01*
X132202380Y-43928571D01*
X132202380Y-44214285D01*
X132154761Y-44309523D01*
X132107142Y-44357142D01*
X147357142Y-49607142D02*
X147309523Y-49654761D01*
X147166666Y-49702380D01*
X147071428Y-49702380D01*
X146928571Y-49654761D01*
X146833333Y-49559523D01*
X146785714Y-49464285D01*
X146738095Y-49273809D01*
X146738095Y-49130952D01*
X146785714Y-48940476D01*
X146833333Y-48845238D01*
X146928571Y-48750000D01*
X147071428Y-48702380D01*
X147166666Y-48702380D01*
X147309523Y-48750000D01*
X147357142Y-48797619D01*
X148309523Y-49702380D02*
X147738095Y-49702380D01*
X148023809Y-49702380D02*
X148023809Y-48702380D01*
X147928571Y-48845238D01*
X147833333Y-48940476D01*
X147738095Y-48988095D01*
X149166666Y-49035714D02*
X149166666Y-49702380D01*
X148928571Y-48654761D02*
X148690476Y-49369047D01*
X149309523Y-49369047D01*
X132107142Y-41642857D02*
X132154761Y-41690476D01*
X132202380Y-41833333D01*
X132202380Y-41928571D01*
X132154761Y-42071428D01*
X132059523Y-42166666D01*
X131964285Y-42214285D01*
X131773809Y-42261904D01*
X131630952Y-42261904D01*
X131440476Y-42214285D01*
X131345238Y-42166666D01*
X131250000Y-42071428D01*
X131202380Y-41928571D01*
X131202380Y-41833333D01*
X131250000Y-41690476D01*
X131297619Y-41642857D01*
X132202380Y-40690476D02*
X132202380Y-41261904D01*
X132202380Y-40976190D02*
X131202380Y-40976190D01*
X131345238Y-41071428D01*
X131440476Y-41166666D01*
X131488095Y-41261904D01*
X131202380Y-39785714D02*
X131202380Y-40261904D01*
X131678571Y-40309523D01*
X131630952Y-40261904D01*
X131583333Y-40166666D01*
X131583333Y-39928571D01*
X131630952Y-39833333D01*
X131678571Y-39785714D01*
X131773809Y-39738095D01*
X132011904Y-39738095D01*
X132107142Y-39785714D01*
X132154761Y-39833333D01*
X132202380Y-39928571D01*
X132202380Y-40166666D01*
X132154761Y-40261904D01*
X132107142Y-40309523D01*
X147357142Y-42357142D02*
X147309523Y-42404761D01*
X147166666Y-42452380D01*
X147071428Y-42452380D01*
X146928571Y-42404761D01*
X146833333Y-42309523D01*
X146785714Y-42214285D01*
X146738095Y-42023809D01*
X146738095Y-41880952D01*
X146785714Y-41690476D01*
X146833333Y-41595238D01*
X146928571Y-41500000D01*
X147071428Y-41452380D01*
X147166666Y-41452380D01*
X147309523Y-41500000D01*
X147357142Y-41547619D01*
X148309523Y-42452380D02*
X147738095Y-42452380D01*
X148023809Y-42452380D02*
X148023809Y-41452380D01*
X147928571Y-41595238D01*
X147833333Y-41690476D01*
X147738095Y-41738095D01*
X148880952Y-41880952D02*
X148785714Y-41833333D01*
X148738095Y-41785714D01*
X148690476Y-41690476D01*
X148690476Y-41642857D01*
X148738095Y-41547619D01*
X148785714Y-41500000D01*
X148880952Y-41452380D01*
X149071428Y-41452380D01*
X149166666Y-41500000D01*
X149214285Y-41547619D01*
X149261904Y-41642857D01*
X149261904Y-41690476D01*
X149214285Y-41785714D01*
X149166666Y-41833333D01*
X149071428Y-41880952D01*
X148880952Y-41880952D01*
X148785714Y-41928571D01*
X148738095Y-41976190D01*
X148690476Y-42071428D01*
X148690476Y-42261904D01*
X148738095Y-42357142D01*
X148785714Y-42404761D01*
X148880952Y-42452380D01*
X149071428Y-42452380D01*
X149166666Y-42404761D01*
X149214285Y-42357142D01*
X149261904Y-42261904D01*
X149261904Y-42071428D01*
X149214285Y-41976190D01*
X149166666Y-41928571D01*
X149071428Y-41880952D01*
X128457142Y-63257142D02*
X128409523Y-63304761D01*
X128266666Y-63352380D01*
X128171428Y-63352380D01*
X128028571Y-63304761D01*
X127933333Y-63209523D01*
X127885714Y-63114285D01*
X127838095Y-62923809D01*
X127838095Y-62780952D01*
X127885714Y-62590476D01*
X127933333Y-62495238D01*
X128028571Y-62400000D01*
X128171428Y-62352380D01*
X128266666Y-62352380D01*
X128409523Y-62400000D01*
X128457142Y-62447619D01*
X129409523Y-63352380D02*
X128838095Y-63352380D01*
X129123809Y-63352380D02*
X129123809Y-62352380D01*
X129028571Y-62495238D01*
X128933333Y-62590476D01*
X128838095Y-62638095D01*
X129885714Y-63352380D02*
X130076190Y-63352380D01*
X130171428Y-63304761D01*
X130219047Y-63257142D01*
X130314285Y-63114285D01*
X130361904Y-62923809D01*
X130361904Y-62542857D01*
X130314285Y-62447619D01*
X130266666Y-62400000D01*
X130171428Y-62352380D01*
X129980952Y-62352380D01*
X129885714Y-62400000D01*
X129838095Y-62447619D01*
X129790476Y-62542857D01*
X129790476Y-62780952D01*
X129838095Y-62876190D01*
X129885714Y-62923809D01*
X129980952Y-62971428D01*
X130171428Y-62971428D01*
X130266666Y-62923809D01*
X130314285Y-62876190D01*
X130361904Y-62780952D01*
X164957142Y-47942857D02*
X165004761Y-47990476D01*
X165052380Y-48133333D01*
X165052380Y-48228571D01*
X165004761Y-48371428D01*
X164909523Y-48466666D01*
X164814285Y-48514285D01*
X164623809Y-48561904D01*
X164480952Y-48561904D01*
X164290476Y-48514285D01*
X164195238Y-48466666D01*
X164100000Y-48371428D01*
X164052380Y-48228571D01*
X164052380Y-48133333D01*
X164100000Y-47990476D01*
X164147619Y-47942857D01*
X164147619Y-47561904D02*
X164100000Y-47514285D01*
X164052380Y-47419047D01*
X164052380Y-47180952D01*
X164100000Y-47085714D01*
X164147619Y-47038095D01*
X164242857Y-46990476D01*
X164338095Y-46990476D01*
X164480952Y-47038095D01*
X165052380Y-47609523D01*
X165052380Y-46990476D01*
X164052380Y-46371428D02*
X164052380Y-46276190D01*
X164100000Y-46180952D01*
X164147619Y-46133333D01*
X164242857Y-46085714D01*
X164433333Y-46038095D01*
X164671428Y-46038095D01*
X164861904Y-46085714D01*
X164957142Y-46133333D01*
X165004761Y-46180952D01*
X165052380Y-46276190D01*
X165052380Y-46371428D01*
X165004761Y-46466666D01*
X164957142Y-46514285D01*
X164861904Y-46561904D01*
X164671428Y-46609523D01*
X164433333Y-46609523D01*
X164242857Y-46561904D01*
X164147619Y-46514285D01*
X164100000Y-46466666D01*
X164052380Y-46371428D01*
X138657142Y-72657142D02*
X138609523Y-72704761D01*
X138466666Y-72752380D01*
X138371428Y-72752380D01*
X138228571Y-72704761D01*
X138133333Y-72609523D01*
X138085714Y-72514285D01*
X138038095Y-72323809D01*
X138038095Y-72180952D01*
X138085714Y-71990476D01*
X138133333Y-71895238D01*
X138228571Y-71800000D01*
X138371428Y-71752380D01*
X138466666Y-71752380D01*
X138609523Y-71800000D01*
X138657142Y-71847619D01*
X139038095Y-71847619D02*
X139085714Y-71800000D01*
X139180952Y-71752380D01*
X139419047Y-71752380D01*
X139514285Y-71800000D01*
X139561904Y-71847619D01*
X139609523Y-71942857D01*
X139609523Y-72038095D01*
X139561904Y-72180952D01*
X138990476Y-72752380D01*
X139609523Y-72752380D01*
X140561904Y-72752380D02*
X139990476Y-72752380D01*
X140276190Y-72752380D02*
X140276190Y-71752380D01*
X140180952Y-71895238D01*
X140085714Y-71990476D01*
X139990476Y-72038095D01*
X125357142Y-75857142D02*
X125309523Y-75904761D01*
X125166666Y-75952380D01*
X125071428Y-75952380D01*
X124928571Y-75904761D01*
X124833333Y-75809523D01*
X124785714Y-75714285D01*
X124738095Y-75523809D01*
X124738095Y-75380952D01*
X124785714Y-75190476D01*
X124833333Y-75095238D01*
X124928571Y-75000000D01*
X125071428Y-74952380D01*
X125166666Y-74952380D01*
X125309523Y-75000000D01*
X125357142Y-75047619D01*
X125738095Y-75047619D02*
X125785714Y-75000000D01*
X125880952Y-74952380D01*
X126119047Y-74952380D01*
X126214285Y-75000000D01*
X126261904Y-75047619D01*
X126309523Y-75142857D01*
X126309523Y-75238095D01*
X126261904Y-75380952D01*
X125690476Y-75952380D01*
X126309523Y-75952380D01*
X126690476Y-75047619D02*
X126738095Y-75000000D01*
X126833333Y-74952380D01*
X127071428Y-74952380D01*
X127166666Y-75000000D01*
X127214285Y-75047619D01*
X127261904Y-75142857D01*
X127261904Y-75238095D01*
X127214285Y-75380952D01*
X126642857Y-75952380D01*
X127261904Y-75952380D01*
X138107142Y-65857142D02*
X138059523Y-65904761D01*
X137916666Y-65952380D01*
X137821428Y-65952380D01*
X137678571Y-65904761D01*
X137583333Y-65809523D01*
X137535714Y-65714285D01*
X137488095Y-65523809D01*
X137488095Y-65380952D01*
X137535714Y-65190476D01*
X137583333Y-65095238D01*
X137678571Y-65000000D01*
X137821428Y-64952380D01*
X137916666Y-64952380D01*
X138059523Y-65000000D01*
X138107142Y-65047619D01*
X138488095Y-65047619D02*
X138535714Y-65000000D01*
X138630952Y-64952380D01*
X138869047Y-64952380D01*
X138964285Y-65000000D01*
X139011904Y-65047619D01*
X139059523Y-65142857D01*
X139059523Y-65238095D01*
X139011904Y-65380952D01*
X138440476Y-65952380D01*
X139059523Y-65952380D01*
X139392857Y-64952380D02*
X140011904Y-64952380D01*
X139678571Y-65333333D01*
X139821428Y-65333333D01*
X139916666Y-65380952D01*
X139964285Y-65428571D01*
X140011904Y-65523809D01*
X140011904Y-65761904D01*
X139964285Y-65857142D01*
X139916666Y-65904761D01*
X139821428Y-65952380D01*
X139535714Y-65952380D01*
X139440476Y-65904761D01*
X139392857Y-65857142D01*
X141657142Y-70257142D02*
X141609523Y-70304761D01*
X141466666Y-70352380D01*
X141371428Y-70352380D01*
X141228571Y-70304761D01*
X141133333Y-70209523D01*
X141085714Y-70114285D01*
X141038095Y-69923809D01*
X141038095Y-69780952D01*
X141085714Y-69590476D01*
X141133333Y-69495238D01*
X141228571Y-69400000D01*
X141371428Y-69352380D01*
X141466666Y-69352380D01*
X141609523Y-69400000D01*
X141657142Y-69447619D01*
X142038095Y-69447619D02*
X142085714Y-69400000D01*
X142180952Y-69352380D01*
X142419047Y-69352380D01*
X142514285Y-69400000D01*
X142561904Y-69447619D01*
X142609523Y-69542857D01*
X142609523Y-69638095D01*
X142561904Y-69780952D01*
X141990476Y-70352380D01*
X142609523Y-70352380D01*
X143466666Y-69685714D02*
X143466666Y-70352380D01*
X143228571Y-69304761D02*
X142990476Y-70019047D01*
X143609523Y-70019047D01*
X143107142Y-68857142D02*
X143059523Y-68904761D01*
X142916666Y-68952380D01*
X142821428Y-68952380D01*
X142678571Y-68904761D01*
X142583333Y-68809523D01*
X142535714Y-68714285D01*
X142488095Y-68523809D01*
X142488095Y-68380952D01*
X142535714Y-68190476D01*
X142583333Y-68095238D01*
X142678571Y-68000000D01*
X142821428Y-67952380D01*
X142916666Y-67952380D01*
X143059523Y-68000000D01*
X143107142Y-68047619D01*
X143488095Y-68047619D02*
X143535714Y-68000000D01*
X143630952Y-67952380D01*
X143869047Y-67952380D01*
X143964285Y-68000000D01*
X144011904Y-68047619D01*
X144059523Y-68142857D01*
X144059523Y-68238095D01*
X144011904Y-68380952D01*
X143440476Y-68952380D01*
X144059523Y-68952380D01*
X144964285Y-67952380D02*
X144488095Y-67952380D01*
X144440476Y-68428571D01*
X144488095Y-68380952D01*
X144583333Y-68333333D01*
X144821428Y-68333333D01*
X144916666Y-68380952D01*
X144964285Y-68428571D01*
X145011904Y-68523809D01*
X145011904Y-68761904D01*
X144964285Y-68857142D01*
X144916666Y-68904761D01*
X144821428Y-68952380D01*
X144583333Y-68952380D01*
X144488095Y-68904761D01*
X144440476Y-68857142D01*
X144457142Y-72857142D02*
X144409523Y-72904761D01*
X144266666Y-72952380D01*
X144171428Y-72952380D01*
X144028571Y-72904761D01*
X143933333Y-72809523D01*
X143885714Y-72714285D01*
X143838095Y-72523809D01*
X143838095Y-72380952D01*
X143885714Y-72190476D01*
X143933333Y-72095238D01*
X144028571Y-72000000D01*
X144171428Y-71952380D01*
X144266666Y-71952380D01*
X144409523Y-72000000D01*
X144457142Y-72047619D01*
X144838095Y-72047619D02*
X144885714Y-72000000D01*
X144980952Y-71952380D01*
X145219047Y-71952380D01*
X145314285Y-72000000D01*
X145361904Y-72047619D01*
X145409523Y-72142857D01*
X145409523Y-72238095D01*
X145361904Y-72380952D01*
X144790476Y-72952380D01*
X145409523Y-72952380D01*
X146266666Y-71952380D02*
X146076190Y-71952380D01*
X145980952Y-72000000D01*
X145933333Y-72047619D01*
X145838095Y-72190476D01*
X145790476Y-72380952D01*
X145790476Y-72761904D01*
X145838095Y-72857142D01*
X145885714Y-72904761D01*
X145980952Y-72952380D01*
X146171428Y-72952380D01*
X146266666Y-72904761D01*
X146314285Y-72857142D01*
X146361904Y-72761904D01*
X146361904Y-72523809D01*
X146314285Y-72428571D01*
X146266666Y-72380952D01*
X146171428Y-72333333D01*
X145980952Y-72333333D01*
X145885714Y-72380952D01*
X145838095Y-72428571D01*
X145790476Y-72523809D01*
X150107142Y-57757142D02*
X150059523Y-57804761D01*
X149916666Y-57852380D01*
X149821428Y-57852380D01*
X149678571Y-57804761D01*
X149583333Y-57709523D01*
X149535714Y-57614285D01*
X149488095Y-57423809D01*
X149488095Y-57280952D01*
X149535714Y-57090476D01*
X149583333Y-56995238D01*
X149678571Y-56900000D01*
X149821428Y-56852380D01*
X149916666Y-56852380D01*
X150059523Y-56900000D01*
X150107142Y-56947619D01*
X150488095Y-56947619D02*
X150535714Y-56900000D01*
X150630952Y-56852380D01*
X150869047Y-56852380D01*
X150964285Y-56900000D01*
X151011904Y-56947619D01*
X151059523Y-57042857D01*
X151059523Y-57138095D01*
X151011904Y-57280952D01*
X150440476Y-57852380D01*
X151059523Y-57852380D01*
X151392857Y-56852380D02*
X152059523Y-56852380D01*
X151630952Y-57852380D01*
X152157142Y-76657142D02*
X152109523Y-76704761D01*
X151966666Y-76752380D01*
X151871428Y-76752380D01*
X151728571Y-76704761D01*
X151633333Y-76609523D01*
X151585714Y-76514285D01*
X151538095Y-76323809D01*
X151538095Y-76180952D01*
X151585714Y-75990476D01*
X151633333Y-75895238D01*
X151728571Y-75800000D01*
X151871428Y-75752380D01*
X151966666Y-75752380D01*
X152109523Y-75800000D01*
X152157142Y-75847619D01*
X152490476Y-75752380D02*
X153109523Y-75752380D01*
X152776190Y-76133333D01*
X152919047Y-76133333D01*
X153014285Y-76180952D01*
X153061904Y-76228571D01*
X153109523Y-76323809D01*
X153109523Y-76561904D01*
X153061904Y-76657142D01*
X153014285Y-76704761D01*
X152919047Y-76752380D01*
X152633333Y-76752380D01*
X152538095Y-76704761D01*
X152490476Y-76657142D01*
X154061904Y-76752380D02*
X153490476Y-76752380D01*
X153776190Y-76752380D02*
X153776190Y-75752380D01*
X153680952Y-75895238D01*
X153585714Y-75990476D01*
X153490476Y-76038095D01*
X147857142Y-65057142D02*
X147809523Y-65104761D01*
X147666666Y-65152380D01*
X147571428Y-65152380D01*
X147428571Y-65104761D01*
X147333333Y-65009523D01*
X147285714Y-64914285D01*
X147238095Y-64723809D01*
X147238095Y-64580952D01*
X147285714Y-64390476D01*
X147333333Y-64295238D01*
X147428571Y-64200000D01*
X147571428Y-64152380D01*
X147666666Y-64152380D01*
X147809523Y-64200000D01*
X147857142Y-64247619D01*
X148190476Y-64152380D02*
X148809523Y-64152380D01*
X148476190Y-64533333D01*
X148619047Y-64533333D01*
X148714285Y-64580952D01*
X148761904Y-64628571D01*
X148809523Y-64723809D01*
X148809523Y-64961904D01*
X148761904Y-65057142D01*
X148714285Y-65104761D01*
X148619047Y-65152380D01*
X148333333Y-65152380D01*
X148238095Y-65104761D01*
X148190476Y-65057142D01*
X149380952Y-64580952D02*
X149285714Y-64533333D01*
X149238095Y-64485714D01*
X149190476Y-64390476D01*
X149190476Y-64342857D01*
X149238095Y-64247619D01*
X149285714Y-64200000D01*
X149380952Y-64152380D01*
X149571428Y-64152380D01*
X149666666Y-64200000D01*
X149714285Y-64247619D01*
X149761904Y-64342857D01*
X149761904Y-64390476D01*
X149714285Y-64485714D01*
X149666666Y-64533333D01*
X149571428Y-64580952D01*
X149380952Y-64580952D01*
X149285714Y-64628571D01*
X149238095Y-64676190D01*
X149190476Y-64771428D01*
X149190476Y-64961904D01*
X149238095Y-65057142D01*
X149285714Y-65104761D01*
X149380952Y-65152380D01*
X149571428Y-65152380D01*
X149666666Y-65104761D01*
X149714285Y-65057142D01*
X149761904Y-64961904D01*
X149761904Y-64771428D01*
X149714285Y-64676190D01*
X149666666Y-64628571D01*
X149571428Y-64580952D01*
X151157142Y-72457142D02*
X151109523Y-72504761D01*
X150966666Y-72552380D01*
X150871428Y-72552380D01*
X150728571Y-72504761D01*
X150633333Y-72409523D01*
X150585714Y-72314285D01*
X150538095Y-72123809D01*
X150538095Y-71980952D01*
X150585714Y-71790476D01*
X150633333Y-71695238D01*
X150728571Y-71600000D01*
X150871428Y-71552380D01*
X150966666Y-71552380D01*
X151109523Y-71600000D01*
X151157142Y-71647619D01*
X151490476Y-71552380D02*
X152109523Y-71552380D01*
X151776190Y-71933333D01*
X151919047Y-71933333D01*
X152014285Y-71980952D01*
X152061904Y-72028571D01*
X152109523Y-72123809D01*
X152109523Y-72361904D01*
X152061904Y-72457142D01*
X152014285Y-72504761D01*
X151919047Y-72552380D01*
X151633333Y-72552380D01*
X151538095Y-72504761D01*
X151490476Y-72457142D01*
X152585714Y-72552380D02*
X152776190Y-72552380D01*
X152871428Y-72504761D01*
X152919047Y-72457142D01*
X153014285Y-72314285D01*
X153061904Y-72123809D01*
X153061904Y-71742857D01*
X153014285Y-71647619D01*
X152966666Y-71600000D01*
X152871428Y-71552380D01*
X152680952Y-71552380D01*
X152585714Y-71600000D01*
X152538095Y-71647619D01*
X152490476Y-71742857D01*
X152490476Y-71980952D01*
X152538095Y-72076190D01*
X152585714Y-72123809D01*
X152680952Y-72171428D01*
X152871428Y-72171428D01*
X152966666Y-72123809D01*
X153014285Y-72076190D01*
X153061904Y-71980952D01*
X155657142Y-76757142D02*
X155609523Y-76804761D01*
X155466666Y-76852380D01*
X155371428Y-76852380D01*
X155228571Y-76804761D01*
X155133333Y-76709523D01*
X155085714Y-76614285D01*
X155038095Y-76423809D01*
X155038095Y-76280952D01*
X155085714Y-76090476D01*
X155133333Y-75995238D01*
X155228571Y-75900000D01*
X155371428Y-75852380D01*
X155466666Y-75852380D01*
X155609523Y-75900000D01*
X155657142Y-75947619D01*
X156514285Y-76185714D02*
X156514285Y-76852380D01*
X156276190Y-75804761D02*
X156038095Y-76519047D01*
X156657142Y-76519047D01*
X157466666Y-76185714D02*
X157466666Y-76852380D01*
X157228571Y-75804761D02*
X156990476Y-76519047D01*
X157609523Y-76519047D01*
X161357142Y-65357142D02*
X161309523Y-65404761D01*
X161166666Y-65452380D01*
X161071428Y-65452380D01*
X160928571Y-65404761D01*
X160833333Y-65309523D01*
X160785714Y-65214285D01*
X160738095Y-65023809D01*
X160738095Y-64880952D01*
X160785714Y-64690476D01*
X160833333Y-64595238D01*
X160928571Y-64500000D01*
X161071428Y-64452380D01*
X161166666Y-64452380D01*
X161309523Y-64500000D01*
X161357142Y-64547619D01*
X162214285Y-64785714D02*
X162214285Y-65452380D01*
X161976190Y-64404761D02*
X161738095Y-65119047D01*
X162357142Y-65119047D01*
X163214285Y-64452380D02*
X162738095Y-64452380D01*
X162690476Y-64928571D01*
X162738095Y-64880952D01*
X162833333Y-64833333D01*
X163071428Y-64833333D01*
X163166666Y-64880952D01*
X163214285Y-64928571D01*
X163261904Y-65023809D01*
X163261904Y-65261904D01*
X163214285Y-65357142D01*
X163166666Y-65404761D01*
X163071428Y-65452380D01*
X162833333Y-65452380D01*
X162738095Y-65404761D01*
X162690476Y-65357142D01*
X159057142Y-76757142D02*
X159009523Y-76804761D01*
X158866666Y-76852380D01*
X158771428Y-76852380D01*
X158628571Y-76804761D01*
X158533333Y-76709523D01*
X158485714Y-76614285D01*
X158438095Y-76423809D01*
X158438095Y-76280952D01*
X158485714Y-76090476D01*
X158533333Y-75995238D01*
X158628571Y-75900000D01*
X158771428Y-75852380D01*
X158866666Y-75852380D01*
X159009523Y-75900000D01*
X159057142Y-75947619D01*
X159914285Y-76185714D02*
X159914285Y-76852380D01*
X159676190Y-75804761D02*
X159438095Y-76519047D01*
X160057142Y-76519047D01*
X160866666Y-75852380D02*
X160676190Y-75852380D01*
X160580952Y-75900000D01*
X160533333Y-75947619D01*
X160438095Y-76090476D01*
X160390476Y-76280952D01*
X160390476Y-76661904D01*
X160438095Y-76757142D01*
X160485714Y-76804761D01*
X160580952Y-76852380D01*
X160771428Y-76852380D01*
X160866666Y-76804761D01*
X160914285Y-76757142D01*
X160961904Y-76661904D01*
X160961904Y-76423809D01*
X160914285Y-76328571D01*
X160866666Y-76280952D01*
X160771428Y-76233333D01*
X160580952Y-76233333D01*
X160485714Y-76280952D01*
X160438095Y-76328571D01*
X160390476Y-76423809D01*
X130607142Y-56157142D02*
X130559523Y-56204761D01*
X130416666Y-56252380D01*
X130321428Y-56252380D01*
X130178571Y-56204761D01*
X130083333Y-56109523D01*
X130035714Y-56014285D01*
X129988095Y-55823809D01*
X129988095Y-55680952D01*
X130035714Y-55490476D01*
X130083333Y-55395238D01*
X130178571Y-55300000D01*
X130321428Y-55252380D01*
X130416666Y-55252380D01*
X130559523Y-55300000D01*
X130607142Y-55347619D01*
X131464285Y-55585714D02*
X131464285Y-56252380D01*
X131226190Y-55204761D02*
X130988095Y-55919047D01*
X131607142Y-55919047D01*
X131892857Y-55252380D02*
X132559523Y-55252380D01*
X132130952Y-56252380D01*
X170011904Y-49452380D02*
X170011904Y-48452380D01*
X170250000Y-48452380D01*
X170392857Y-48500000D01*
X170488095Y-48595238D01*
X170535714Y-48690476D01*
X170583333Y-48880952D01*
X170583333Y-49023809D01*
X170535714Y-49214285D01*
X170488095Y-49309523D01*
X170392857Y-49404761D01*
X170250000Y-49452380D01*
X170011904Y-49452380D01*
X171535714Y-49452380D02*
X170964285Y-49452380D01*
X171250000Y-49452380D02*
X171250000Y-48452380D01*
X171154761Y-48595238D01*
X171059523Y-48690476D01*
X170964285Y-48738095D01*
X169511904Y-55452380D02*
X169511904Y-54452380D01*
X169750000Y-54452380D01*
X169892857Y-54500000D01*
X169988095Y-54595238D01*
X170035714Y-54690476D01*
X170083333Y-54880952D01*
X170083333Y-55023809D01*
X170035714Y-55214285D01*
X169988095Y-55309523D01*
X169892857Y-55404761D01*
X169750000Y-55452380D01*
X169511904Y-55452380D01*
X170464285Y-54547619D02*
X170511904Y-54500000D01*
X170607142Y-54452380D01*
X170845238Y-54452380D01*
X170940476Y-54500000D01*
X170988095Y-54547619D01*
X171035714Y-54642857D01*
X171035714Y-54738095D01*
X170988095Y-54880952D01*
X170416666Y-55452380D01*
X171035714Y-55452380D01*
X122352380Y-52838095D02*
X121352380Y-52838095D01*
X121352380Y-52600000D01*
X121400000Y-52457142D01*
X121495238Y-52361904D01*
X121590476Y-52314285D01*
X121780952Y-52266666D01*
X121923809Y-52266666D01*
X122114285Y-52314285D01*
X122209523Y-52361904D01*
X122304761Y-52457142D01*
X122352380Y-52600000D01*
X122352380Y-52838095D01*
X121352380Y-51933333D02*
X121352380Y-51314285D01*
X121733333Y-51647619D01*
X121733333Y-51504761D01*
X121780952Y-51409523D01*
X121828571Y-51361904D01*
X121923809Y-51314285D01*
X122161904Y-51314285D01*
X122257142Y-51361904D01*
X122304761Y-51409523D01*
X122352380Y-51504761D01*
X122352380Y-51790476D01*
X122304761Y-51885714D01*
X122257142Y-51933333D01*
X116566666Y-56152380D02*
X116566666Y-56866666D01*
X116519047Y-57009523D01*
X116423809Y-57104761D01*
X116280952Y-57152380D01*
X116185714Y-57152380D01*
X117566666Y-57152380D02*
X116995238Y-57152380D01*
X117280952Y-57152380D02*
X117280952Y-56152380D01*
X117185714Y-56295238D01*
X117090476Y-56390476D01*
X116995238Y-56438095D01*
X126666666Y-47187380D02*
X126666666Y-47901666D01*
X126619047Y-48044523D01*
X126523809Y-48139761D01*
X126380952Y-48187380D01*
X126285714Y-48187380D01*
X127095238Y-47282619D02*
X127142857Y-47235000D01*
X127238095Y-47187380D01*
X127476190Y-47187380D01*
X127571428Y-47235000D01*
X127619047Y-47282619D01*
X127666666Y-47377857D01*
X127666666Y-47473095D01*
X127619047Y-47615952D01*
X127047619Y-48187380D01*
X127666666Y-48187380D01*
X121416666Y-86202380D02*
X121416666Y-86916666D01*
X121369047Y-87059523D01*
X121273809Y-87154761D01*
X121130952Y-87202380D01*
X121035714Y-87202380D01*
X122321428Y-86535714D02*
X122321428Y-87202380D01*
X122083333Y-86154761D02*
X121845238Y-86869047D01*
X122464285Y-86869047D01*
X141166666Y-86952380D02*
X141166666Y-87666666D01*
X141119047Y-87809523D01*
X141023809Y-87904761D01*
X140880952Y-87952380D01*
X140785714Y-87952380D01*
X142119047Y-86952380D02*
X141642857Y-86952380D01*
X141595238Y-87428571D01*
X141642857Y-87380952D01*
X141738095Y-87333333D01*
X141976190Y-87333333D01*
X142071428Y-87380952D01*
X142119047Y-87428571D01*
X142166666Y-87523809D01*
X142166666Y-87761904D01*
X142119047Y-87857142D01*
X142071428Y-87904761D01*
X141976190Y-87952380D01*
X141738095Y-87952380D01*
X141642857Y-87904761D01*
X141595238Y-87857142D01*
X170166666Y-55952380D02*
X170166666Y-56666666D01*
X170119047Y-56809523D01*
X170023809Y-56904761D01*
X169880952Y-56952380D01*
X169785714Y-56952380D01*
X171071428Y-55952380D02*
X170880952Y-55952380D01*
X170785714Y-56000000D01*
X170738095Y-56047619D01*
X170642857Y-56190476D01*
X170595238Y-56380952D01*
X170595238Y-56761904D01*
X170642857Y-56857142D01*
X170690476Y-56904761D01*
X170785714Y-56952380D01*
X170976190Y-56952380D01*
X171071428Y-56904761D01*
X171119047Y-56857142D01*
X171166666Y-56761904D01*
X171166666Y-56523809D01*
X171119047Y-56428571D01*
X171071428Y-56380952D01*
X170976190Y-56333333D01*
X170785714Y-56333333D01*
X170690476Y-56380952D01*
X170642857Y-56428571D01*
X170595238Y-56523809D01*
X130333333Y-51802380D02*
X129857142Y-51802380D01*
X129857142Y-50802380D01*
X130619047Y-50897619D02*
X130666666Y-50850000D01*
X130761904Y-50802380D01*
X131000000Y-50802380D01*
X131095238Y-50850000D01*
X131142857Y-50897619D01*
X131190476Y-50992857D01*
X131190476Y-51088095D01*
X131142857Y-51230952D01*
X130571428Y-51802380D01*
X131190476Y-51802380D01*
X133083333Y-57452380D02*
X132607142Y-57452380D01*
X132607142Y-56452380D01*
X133321428Y-56452380D02*
X133940476Y-56452380D01*
X133607142Y-56833333D01*
X133750000Y-56833333D01*
X133845238Y-56880952D01*
X133892857Y-56928571D01*
X133940476Y-57023809D01*
X133940476Y-57261904D01*
X133892857Y-57357142D01*
X133845238Y-57404761D01*
X133750000Y-57452380D01*
X133464285Y-57452380D01*
X133369047Y-57404761D01*
X133321428Y-57357142D01*
X135833333Y-69702380D02*
X135357142Y-69702380D01*
X135357142Y-68702380D01*
X136642857Y-68702380D02*
X136166666Y-68702380D01*
X136119047Y-69178571D01*
X136166666Y-69130952D01*
X136261904Y-69083333D01*
X136500000Y-69083333D01*
X136595238Y-69130952D01*
X136642857Y-69178571D01*
X136690476Y-69273809D01*
X136690476Y-69511904D01*
X136642857Y-69607142D01*
X136595238Y-69654761D01*
X136500000Y-69702380D01*
X136261904Y-69702380D01*
X136166666Y-69654761D01*
X136119047Y-69607142D01*
X141933333Y-65352380D02*
X141457142Y-65352380D01*
X141457142Y-64352380D01*
X142695238Y-64352380D02*
X142504761Y-64352380D01*
X142409523Y-64400000D01*
X142361904Y-64447619D01*
X142266666Y-64590476D01*
X142219047Y-64780952D01*
X142219047Y-65161904D01*
X142266666Y-65257142D01*
X142314285Y-65304761D01*
X142409523Y-65352380D01*
X142600000Y-65352380D01*
X142695238Y-65304761D01*
X142742857Y-65257142D01*
X142790476Y-65161904D01*
X142790476Y-64923809D01*
X142742857Y-64828571D01*
X142695238Y-64780952D01*
X142600000Y-64733333D01*
X142409523Y-64733333D01*
X142314285Y-64780952D01*
X142266666Y-64828571D01*
X142219047Y-64923809D01*
X148833333Y-72202380D02*
X148357142Y-72202380D01*
X148357142Y-71202380D01*
X149309523Y-71630952D02*
X149214285Y-71583333D01*
X149166666Y-71535714D01*
X149119047Y-71440476D01*
X149119047Y-71392857D01*
X149166666Y-71297619D01*
X149214285Y-71250000D01*
X149309523Y-71202380D01*
X149500000Y-71202380D01*
X149595238Y-71250000D01*
X149642857Y-71297619D01*
X149690476Y-71392857D01*
X149690476Y-71440476D01*
X149642857Y-71535714D01*
X149595238Y-71583333D01*
X149500000Y-71630952D01*
X149309523Y-71630952D01*
X149214285Y-71678571D01*
X149166666Y-71726190D01*
X149119047Y-71821428D01*
X149119047Y-72011904D01*
X149166666Y-72107142D01*
X149214285Y-72154761D01*
X149309523Y-72202380D01*
X149500000Y-72202380D01*
X149595238Y-72154761D01*
X149642857Y-72107142D01*
X149690476Y-72011904D01*
X149690476Y-71821428D01*
X149642857Y-71726190D01*
X149595238Y-71678571D01*
X149500000Y-71630952D01*
X140333333Y-78452380D02*
X140000000Y-77976190D01*
X139761904Y-78452380D02*
X139761904Y-77452380D01*
X140142857Y-77452380D01*
X140238095Y-77500000D01*
X140285714Y-77547619D01*
X140333333Y-77642857D01*
X140333333Y-77785714D01*
X140285714Y-77880952D01*
X140238095Y-77928571D01*
X140142857Y-77976190D01*
X139761904Y-77976190D01*
X141285714Y-78452380D02*
X140714285Y-78452380D01*
X141000000Y-78452380D02*
X141000000Y-77452380D01*
X140904761Y-77595238D01*
X140809523Y-77690476D01*
X140714285Y-77738095D01*
X149633333Y-78452380D02*
X149300000Y-77976190D01*
X149061904Y-78452380D02*
X149061904Y-77452380D01*
X149442857Y-77452380D01*
X149538095Y-77500000D01*
X149585714Y-77547619D01*
X149633333Y-77642857D01*
X149633333Y-77785714D01*
X149585714Y-77880952D01*
X149538095Y-77928571D01*
X149442857Y-77976190D01*
X149061904Y-77976190D01*
X150014285Y-77547619D02*
X150061904Y-77500000D01*
X150157142Y-77452380D01*
X150395238Y-77452380D01*
X150490476Y-77500000D01*
X150538095Y-77547619D01*
X150585714Y-77642857D01*
X150585714Y-77738095D01*
X150538095Y-77880952D01*
X149966666Y-78452380D01*
X150585714Y-78452380D01*
X167333333Y-49452380D02*
X167000000Y-48976190D01*
X166761904Y-49452380D02*
X166761904Y-48452380D01*
X167142857Y-48452380D01*
X167238095Y-48500000D01*
X167285714Y-48547619D01*
X167333333Y-48642857D01*
X167333333Y-48785714D01*
X167285714Y-48880952D01*
X167238095Y-48928571D01*
X167142857Y-48976190D01*
X166761904Y-48976190D01*
X167666666Y-48452380D02*
X168285714Y-48452380D01*
X167952380Y-48833333D01*
X168095238Y-48833333D01*
X168190476Y-48880952D01*
X168238095Y-48928571D01*
X168285714Y-49023809D01*
X168285714Y-49261904D01*
X168238095Y-49357142D01*
X168190476Y-49404761D01*
X168095238Y-49452380D01*
X167809523Y-49452380D01*
X167714285Y-49404761D01*
X167666666Y-49357142D01*
X167833333Y-55452380D02*
X167500000Y-54976190D01*
X167261904Y-55452380D02*
X167261904Y-54452380D01*
X167642857Y-54452380D01*
X167738095Y-54500000D01*
X167785714Y-54547619D01*
X167833333Y-54642857D01*
X167833333Y-54785714D01*
X167785714Y-54880952D01*
X167738095Y-54928571D01*
X167642857Y-54976190D01*
X167261904Y-54976190D01*
X168690476Y-54785714D02*
X168690476Y-55452380D01*
X168452380Y-54404761D02*
X168214285Y-55119047D01*
X168833333Y-55119047D01*
X137833333Y-81252380D02*
X137500000Y-80776190D01*
X137261904Y-81252380D02*
X137261904Y-80252380D01*
X137642857Y-80252380D01*
X137738095Y-80300000D01*
X137785714Y-80347619D01*
X137833333Y-80442857D01*
X137833333Y-80585714D01*
X137785714Y-80680952D01*
X137738095Y-80728571D01*
X137642857Y-80776190D01*
X137261904Y-80776190D01*
X138738095Y-80252380D02*
X138261904Y-80252380D01*
X138214285Y-80728571D01*
X138261904Y-80680952D01*
X138357142Y-80633333D01*
X138595238Y-80633333D01*
X138690476Y-80680952D01*
X138738095Y-80728571D01*
X138785714Y-80823809D01*
X138785714Y-81061904D01*
X138738095Y-81157142D01*
X138690476Y-81204761D01*
X138595238Y-81252380D01*
X138357142Y-81252380D01*
X138261904Y-81204761D01*
X138214285Y-81157142D01*
X122533333Y-81652380D02*
X122200000Y-81176190D01*
X121961904Y-81652380D02*
X121961904Y-80652380D01*
X122342857Y-80652380D01*
X122438095Y-80700000D01*
X122485714Y-80747619D01*
X122533333Y-80842857D01*
X122533333Y-80985714D01*
X122485714Y-81080952D01*
X122438095Y-81128571D01*
X122342857Y-81176190D01*
X121961904Y-81176190D01*
X123390476Y-80652380D02*
X123200000Y-80652380D01*
X123104761Y-80700000D01*
X123057142Y-80747619D01*
X122961904Y-80890476D01*
X122914285Y-81080952D01*
X122914285Y-81461904D01*
X122961904Y-81557142D01*
X123009523Y-81604761D01*
X123104761Y-81652380D01*
X123295238Y-81652380D01*
X123390476Y-81604761D01*
X123438095Y-81557142D01*
X123485714Y-81461904D01*
X123485714Y-81223809D01*
X123438095Y-81128571D01*
X123390476Y-81080952D01*
X123295238Y-81033333D01*
X123104761Y-81033333D01*
X123009523Y-81080952D01*
X122961904Y-81128571D01*
X122914285Y-81223809D01*
X134333333Y-81252380D02*
X134000000Y-80776190D01*
X133761904Y-81252380D02*
X133761904Y-80252380D01*
X134142857Y-80252380D01*
X134238095Y-80300000D01*
X134285714Y-80347619D01*
X134333333Y-80442857D01*
X134333333Y-80585714D01*
X134285714Y-80680952D01*
X134238095Y-80728571D01*
X134142857Y-80776190D01*
X133761904Y-80776190D01*
X134666666Y-80252380D02*
X135333333Y-80252380D01*
X134904761Y-81252380D01*
X130833333Y-81252380D02*
X130500000Y-80776190D01*
X130261904Y-81252380D02*
X130261904Y-80252380D01*
X130642857Y-80252380D01*
X130738095Y-80300000D01*
X130785714Y-80347619D01*
X130833333Y-80442857D01*
X130833333Y-80585714D01*
X130785714Y-80680952D01*
X130738095Y-80728571D01*
X130642857Y-80776190D01*
X130261904Y-80776190D01*
X131404761Y-80680952D02*
X131309523Y-80633333D01*
X131261904Y-80585714D01*
X131214285Y-80490476D01*
X131214285Y-80442857D01*
X131261904Y-80347619D01*
X131309523Y-80300000D01*
X131404761Y-80252380D01*
X131595238Y-80252380D01*
X131690476Y-80300000D01*
X131738095Y-80347619D01*
X131785714Y-80442857D01*
X131785714Y-80490476D01*
X131738095Y-80585714D01*
X131690476Y-80633333D01*
X131595238Y-80680952D01*
X131404761Y-80680952D01*
X131309523Y-80728571D01*
X131261904Y-80776190D01*
X131214285Y-80871428D01*
X131214285Y-81061904D01*
X131261904Y-81157142D01*
X131309523Y-81204761D01*
X131404761Y-81252380D01*
X131595238Y-81252380D01*
X131690476Y-81204761D01*
X131738095Y-81157142D01*
X131785714Y-81061904D01*
X131785714Y-80871428D01*
X131738095Y-80776190D01*
X131690476Y-80728571D01*
X131595238Y-80680952D01*
X123133333Y-73952380D02*
X122800000Y-73476190D01*
X122561904Y-73952380D02*
X122561904Y-72952380D01*
X122942857Y-72952380D01*
X123038095Y-73000000D01*
X123085714Y-73047619D01*
X123133333Y-73142857D01*
X123133333Y-73285714D01*
X123085714Y-73380952D01*
X123038095Y-73428571D01*
X122942857Y-73476190D01*
X122561904Y-73476190D01*
X123609523Y-73952380D02*
X123800000Y-73952380D01*
X123895238Y-73904761D01*
X123942857Y-73857142D01*
X124038095Y-73714285D01*
X124085714Y-73523809D01*
X124085714Y-73142857D01*
X124038095Y-73047619D01*
X123990476Y-73000000D01*
X123895238Y-72952380D01*
X123704761Y-72952380D01*
X123609523Y-73000000D01*
X123561904Y-73047619D01*
X123514285Y-73142857D01*
X123514285Y-73380952D01*
X123561904Y-73476190D01*
X123609523Y-73523809D01*
X123704761Y-73571428D01*
X123895238Y-73571428D01*
X123990476Y-73523809D01*
X124038095Y-73476190D01*
X124085714Y-73380952D01*
X123157142Y-63452380D02*
X122823809Y-62976190D01*
X122585714Y-63452380D02*
X122585714Y-62452380D01*
X122966666Y-62452380D01*
X123061904Y-62500000D01*
X123109523Y-62547619D01*
X123157142Y-62642857D01*
X123157142Y-62785714D01*
X123109523Y-62880952D01*
X123061904Y-62928571D01*
X122966666Y-62976190D01*
X122585714Y-62976190D01*
X124109523Y-63452380D02*
X123538095Y-63452380D01*
X123823809Y-63452380D02*
X123823809Y-62452380D01*
X123728571Y-62595238D01*
X123633333Y-62690476D01*
X123538095Y-62738095D01*
X124728571Y-62452380D02*
X124823809Y-62452380D01*
X124919047Y-62500000D01*
X124966666Y-62547619D01*
X125014285Y-62642857D01*
X125061904Y-62833333D01*
X125061904Y-63071428D01*
X125014285Y-63261904D01*
X124966666Y-63357142D01*
X124919047Y-63404761D01*
X124823809Y-63452380D01*
X124728571Y-63452380D01*
X124633333Y-63404761D01*
X124585714Y-63357142D01*
X124538095Y-63261904D01*
X124490476Y-63071428D01*
X124490476Y-62833333D01*
X124538095Y-62642857D01*
X124585714Y-62547619D01*
X124633333Y-62500000D01*
X124728571Y-62452380D01*
X123157142Y-68852380D02*
X122823809Y-68376190D01*
X122585714Y-68852380D02*
X122585714Y-67852380D01*
X122966666Y-67852380D01*
X123061904Y-67900000D01*
X123109523Y-67947619D01*
X123157142Y-68042857D01*
X123157142Y-68185714D01*
X123109523Y-68280952D01*
X123061904Y-68328571D01*
X122966666Y-68376190D01*
X122585714Y-68376190D01*
X124109523Y-68852380D02*
X123538095Y-68852380D01*
X123823809Y-68852380D02*
X123823809Y-67852380D01*
X123728571Y-67995238D01*
X123633333Y-68090476D01*
X123538095Y-68138095D01*
X125061904Y-68852380D02*
X124490476Y-68852380D01*
X124776190Y-68852380D02*
X124776190Y-67852380D01*
X124680952Y-67995238D01*
X124585714Y-68090476D01*
X124490476Y-68138095D01*
X123157142Y-71152380D02*
X122823809Y-70676190D01*
X122585714Y-71152380D02*
X122585714Y-70152380D01*
X122966666Y-70152380D01*
X123061904Y-70200000D01*
X123109523Y-70247619D01*
X123157142Y-70342857D01*
X123157142Y-70485714D01*
X123109523Y-70580952D01*
X123061904Y-70628571D01*
X122966666Y-70676190D01*
X122585714Y-70676190D01*
X124109523Y-71152380D02*
X123538095Y-71152380D01*
X123823809Y-71152380D02*
X123823809Y-70152380D01*
X123728571Y-70295238D01*
X123633333Y-70390476D01*
X123538095Y-70438095D01*
X124490476Y-70247619D02*
X124538095Y-70200000D01*
X124633333Y-70152380D01*
X124871428Y-70152380D01*
X124966666Y-70200000D01*
X125014285Y-70247619D01*
X125061904Y-70342857D01*
X125061904Y-70438095D01*
X125014285Y-70580952D01*
X124442857Y-71152380D01*
X125061904Y-71152380D01*
X149557142Y-80452380D02*
X149223809Y-79976190D01*
X148985714Y-80452380D02*
X148985714Y-79452380D01*
X149366666Y-79452380D01*
X149461904Y-79500000D01*
X149509523Y-79547619D01*
X149557142Y-79642857D01*
X149557142Y-79785714D01*
X149509523Y-79880952D01*
X149461904Y-79928571D01*
X149366666Y-79976190D01*
X148985714Y-79976190D01*
X150509523Y-80452380D02*
X149938095Y-80452380D01*
X150223809Y-80452380D02*
X150223809Y-79452380D01*
X150128571Y-79595238D01*
X150033333Y-79690476D01*
X149938095Y-79738095D01*
X150842857Y-79452380D02*
X151461904Y-79452380D01*
X151128571Y-79833333D01*
X151271428Y-79833333D01*
X151366666Y-79880952D01*
X151414285Y-79928571D01*
X151461904Y-80023809D01*
X151461904Y-80261904D01*
X151414285Y-80357142D01*
X151366666Y-80404761D01*
X151271428Y-80452380D01*
X150985714Y-80452380D01*
X150890476Y-80404761D01*
X150842857Y-80357142D01*
X139457142Y-80452380D02*
X139123809Y-79976190D01*
X138885714Y-80452380D02*
X138885714Y-79452380D01*
X139266666Y-79452380D01*
X139361904Y-79500000D01*
X139409523Y-79547619D01*
X139457142Y-79642857D01*
X139457142Y-79785714D01*
X139409523Y-79880952D01*
X139361904Y-79928571D01*
X139266666Y-79976190D01*
X138885714Y-79976190D01*
X140409523Y-80452380D02*
X139838095Y-80452380D01*
X140123809Y-80452380D02*
X140123809Y-79452380D01*
X140028571Y-79595238D01*
X139933333Y-79690476D01*
X139838095Y-79738095D01*
X141266666Y-79785714D02*
X141266666Y-80452380D01*
X141028571Y-79404761D02*
X140790476Y-80119047D01*
X141409523Y-80119047D01*
X156152380Y-81892857D02*
X155676190Y-82226190D01*
X156152380Y-82464285D02*
X155152380Y-82464285D01*
X155152380Y-82083333D01*
X155200000Y-81988095D01*
X155247619Y-81940476D01*
X155342857Y-81892857D01*
X155485714Y-81892857D01*
X155580952Y-81940476D01*
X155628571Y-81988095D01*
X155676190Y-82083333D01*
X155676190Y-82464285D01*
X156152380Y-80940476D02*
X156152380Y-81511904D01*
X156152380Y-81226190D02*
X155152380Y-81226190D01*
X155295238Y-81321428D01*
X155390476Y-81416666D01*
X155438095Y-81511904D01*
X155152380Y-80035714D02*
X155152380Y-80511904D01*
X155628571Y-80559523D01*
X155580952Y-80511904D01*
X155533333Y-80416666D01*
X155533333Y-80178571D01*
X155580952Y-80083333D01*
X155628571Y-80035714D01*
X155723809Y-79988095D01*
X155961904Y-79988095D01*
X156057142Y-80035714D01*
X156104761Y-80083333D01*
X156152380Y-80178571D01*
X156152380Y-80416666D01*
X156104761Y-80511904D01*
X156057142Y-80559523D01*
X138607142Y-62702380D02*
X138273809Y-62226190D01*
X138035714Y-62702380D02*
X138035714Y-61702380D01*
X138416666Y-61702380D01*
X138511904Y-61750000D01*
X138559523Y-61797619D01*
X138607142Y-61892857D01*
X138607142Y-62035714D01*
X138559523Y-62130952D01*
X138511904Y-62178571D01*
X138416666Y-62226190D01*
X138035714Y-62226190D01*
X139559523Y-62702380D02*
X138988095Y-62702380D01*
X139273809Y-62702380D02*
X139273809Y-61702380D01*
X139178571Y-61845238D01*
X139083333Y-61940476D01*
X138988095Y-61988095D01*
X140416666Y-61702380D02*
X140226190Y-61702380D01*
X140130952Y-61750000D01*
X140083333Y-61797619D01*
X139988095Y-61940476D01*
X139940476Y-62130952D01*
X139940476Y-62511904D01*
X139988095Y-62607142D01*
X140035714Y-62654761D01*
X140130952Y-62702380D01*
X140321428Y-62702380D01*
X140416666Y-62654761D01*
X140464285Y-62607142D01*
X140511904Y-62511904D01*
X140511904Y-62273809D01*
X140464285Y-62178571D01*
X140416666Y-62130952D01*
X140321428Y-62083333D01*
X140130952Y-62083333D01*
X140035714Y-62130952D01*
X139988095Y-62178571D01*
X139940476Y-62273809D01*
X138057142Y-57202380D02*
X137723809Y-56726190D01*
X137485714Y-57202380D02*
X137485714Y-56202380D01*
X137866666Y-56202380D01*
X137961904Y-56250000D01*
X138009523Y-56297619D01*
X138057142Y-56392857D01*
X138057142Y-56535714D01*
X138009523Y-56630952D01*
X137961904Y-56678571D01*
X137866666Y-56726190D01*
X137485714Y-56726190D01*
X139009523Y-57202380D02*
X138438095Y-57202380D01*
X138723809Y-57202380D02*
X138723809Y-56202380D01*
X138628571Y-56345238D01*
X138533333Y-56440476D01*
X138438095Y-56488095D01*
X139342857Y-56202380D02*
X140009523Y-56202380D01*
X139580952Y-57202380D01*
X125357142Y-79752380D02*
X125023809Y-79276190D01*
X124785714Y-79752380D02*
X124785714Y-78752380D01*
X125166666Y-78752380D01*
X125261904Y-78800000D01*
X125309523Y-78847619D01*
X125357142Y-78942857D01*
X125357142Y-79085714D01*
X125309523Y-79180952D01*
X125261904Y-79228571D01*
X125166666Y-79276190D01*
X124785714Y-79276190D01*
X126309523Y-79752380D02*
X125738095Y-79752380D01*
X126023809Y-79752380D02*
X126023809Y-78752380D01*
X125928571Y-78895238D01*
X125833333Y-78990476D01*
X125738095Y-79038095D01*
X126880952Y-79180952D02*
X126785714Y-79133333D01*
X126738095Y-79085714D01*
X126690476Y-78990476D01*
X126690476Y-78942857D01*
X126738095Y-78847619D01*
X126785714Y-78800000D01*
X126880952Y-78752380D01*
X127071428Y-78752380D01*
X127166666Y-78800000D01*
X127214285Y-78847619D01*
X127261904Y-78942857D01*
X127261904Y-78990476D01*
X127214285Y-79085714D01*
X127166666Y-79133333D01*
X127071428Y-79180952D01*
X126880952Y-79180952D01*
X126785714Y-79228571D01*
X126738095Y-79276190D01*
X126690476Y-79371428D01*
X126690476Y-79561904D01*
X126738095Y-79657142D01*
X126785714Y-79704761D01*
X126880952Y-79752380D01*
X127071428Y-79752380D01*
X127166666Y-79704761D01*
X127214285Y-79657142D01*
X127261904Y-79561904D01*
X127261904Y-79371428D01*
X127214285Y-79276190D01*
X127166666Y-79228571D01*
X127071428Y-79180952D01*
X123157142Y-65952380D02*
X122823809Y-65476190D01*
X122585714Y-65952380D02*
X122585714Y-64952380D01*
X122966666Y-64952380D01*
X123061904Y-65000000D01*
X123109523Y-65047619D01*
X123157142Y-65142857D01*
X123157142Y-65285714D01*
X123109523Y-65380952D01*
X123061904Y-65428571D01*
X122966666Y-65476190D01*
X122585714Y-65476190D01*
X124109523Y-65952380D02*
X123538095Y-65952380D01*
X123823809Y-65952380D02*
X123823809Y-64952380D01*
X123728571Y-65095238D01*
X123633333Y-65190476D01*
X123538095Y-65238095D01*
X124585714Y-65952380D02*
X124776190Y-65952380D01*
X124871428Y-65904761D01*
X124919047Y-65857142D01*
X125014285Y-65714285D01*
X125061904Y-65523809D01*
X125061904Y-65142857D01*
X125014285Y-65047619D01*
X124966666Y-65000000D01*
X124871428Y-64952380D01*
X124680952Y-64952380D01*
X124585714Y-65000000D01*
X124538095Y-65047619D01*
X124490476Y-65142857D01*
X124490476Y-65380952D01*
X124538095Y-65476190D01*
X124585714Y-65523809D01*
X124680952Y-65571428D01*
X124871428Y-65571428D01*
X124966666Y-65523809D01*
X125014285Y-65476190D01*
X125061904Y-65380952D01*
X126857142Y-81252380D02*
X126523809Y-80776190D01*
X126285714Y-81252380D02*
X126285714Y-80252380D01*
X126666666Y-80252380D01*
X126761904Y-80300000D01*
X126809523Y-80347619D01*
X126857142Y-80442857D01*
X126857142Y-80585714D01*
X126809523Y-80680952D01*
X126761904Y-80728571D01*
X126666666Y-80776190D01*
X126285714Y-80776190D01*
X127238095Y-80347619D02*
X127285714Y-80300000D01*
X127380952Y-80252380D01*
X127619047Y-80252380D01*
X127714285Y-80300000D01*
X127761904Y-80347619D01*
X127809523Y-80442857D01*
X127809523Y-80538095D01*
X127761904Y-80680952D01*
X127190476Y-81252380D01*
X127809523Y-81252380D01*
X128428571Y-80252380D02*
X128523809Y-80252380D01*
X128619047Y-80300000D01*
X128666666Y-80347619D01*
X128714285Y-80442857D01*
X128761904Y-80633333D01*
X128761904Y-80871428D01*
X128714285Y-81061904D01*
X128666666Y-81157142D01*
X128619047Y-81204761D01*
X128523809Y-81252380D01*
X128428571Y-81252380D01*
X128333333Y-81204761D01*
X128285714Y-81157142D01*
X128238095Y-81061904D01*
X128190476Y-80871428D01*
X128190476Y-80633333D01*
X128238095Y-80442857D01*
X128285714Y-80347619D01*
X128333333Y-80300000D01*
X128428571Y-80252380D01*
X146457142Y-60252380D02*
X146123809Y-59776190D01*
X145885714Y-60252380D02*
X145885714Y-59252380D01*
X146266666Y-59252380D01*
X146361904Y-59300000D01*
X146409523Y-59347619D01*
X146457142Y-59442857D01*
X146457142Y-59585714D01*
X146409523Y-59680952D01*
X146361904Y-59728571D01*
X146266666Y-59776190D01*
X145885714Y-59776190D01*
X146838095Y-59347619D02*
X146885714Y-59300000D01*
X146980952Y-59252380D01*
X147219047Y-59252380D01*
X147314285Y-59300000D01*
X147361904Y-59347619D01*
X147409523Y-59442857D01*
X147409523Y-59538095D01*
X147361904Y-59680952D01*
X146790476Y-60252380D01*
X147409523Y-60252380D01*
X148361904Y-60252380D02*
X147790476Y-60252380D01*
X148076190Y-60252380D02*
X148076190Y-59252380D01*
X147980952Y-59395238D01*
X147885714Y-59490476D01*
X147790476Y-59538095D01*
X143257142Y-60252380D02*
X142923809Y-59776190D01*
X142685714Y-60252380D02*
X142685714Y-59252380D01*
X143066666Y-59252380D01*
X143161904Y-59300000D01*
X143209523Y-59347619D01*
X143257142Y-59442857D01*
X143257142Y-59585714D01*
X143209523Y-59680952D01*
X143161904Y-59728571D01*
X143066666Y-59776190D01*
X142685714Y-59776190D01*
X143638095Y-59347619D02*
X143685714Y-59300000D01*
X143780952Y-59252380D01*
X144019047Y-59252380D01*
X144114285Y-59300000D01*
X144161904Y-59347619D01*
X144209523Y-59442857D01*
X144209523Y-59538095D01*
X144161904Y-59680952D01*
X143590476Y-60252380D01*
X144209523Y-60252380D01*
X144590476Y-59347619D02*
X144638095Y-59300000D01*
X144733333Y-59252380D01*
X144971428Y-59252380D01*
X145066666Y-59300000D01*
X145114285Y-59347619D01*
X145161904Y-59442857D01*
X145161904Y-59538095D01*
X145114285Y-59680952D01*
X144542857Y-60252380D01*
X145161904Y-60252380D01*
X133857142Y-52502380D02*
X133523809Y-52026190D01*
X133285714Y-52502380D02*
X133285714Y-51502380D01*
X133666666Y-51502380D01*
X133761904Y-51550000D01*
X133809523Y-51597619D01*
X133857142Y-51692857D01*
X133857142Y-51835714D01*
X133809523Y-51930952D01*
X133761904Y-51978571D01*
X133666666Y-52026190D01*
X133285714Y-52026190D01*
X134238095Y-51597619D02*
X134285714Y-51550000D01*
X134380952Y-51502380D01*
X134619047Y-51502380D01*
X134714285Y-51550000D01*
X134761904Y-51597619D01*
X134809523Y-51692857D01*
X134809523Y-51788095D01*
X134761904Y-51930952D01*
X134190476Y-52502380D01*
X134809523Y-52502380D01*
X135142857Y-51502380D02*
X135761904Y-51502380D01*
X135428571Y-51883333D01*
X135571428Y-51883333D01*
X135666666Y-51930952D01*
X135714285Y-51978571D01*
X135761904Y-52073809D01*
X135761904Y-52311904D01*
X135714285Y-52407142D01*
X135666666Y-52454761D01*
X135571428Y-52502380D01*
X135285714Y-52502380D01*
X135190476Y-52454761D01*
X135142857Y-52407142D01*
X137357142Y-52502380D02*
X137023809Y-52026190D01*
X136785714Y-52502380D02*
X136785714Y-51502380D01*
X137166666Y-51502380D01*
X137261904Y-51550000D01*
X137309523Y-51597619D01*
X137357142Y-51692857D01*
X137357142Y-51835714D01*
X137309523Y-51930952D01*
X137261904Y-51978571D01*
X137166666Y-52026190D01*
X136785714Y-52026190D01*
X137738095Y-51597619D02*
X137785714Y-51550000D01*
X137880952Y-51502380D01*
X138119047Y-51502380D01*
X138214285Y-51550000D01*
X138261904Y-51597619D01*
X138309523Y-51692857D01*
X138309523Y-51788095D01*
X138261904Y-51930952D01*
X137690476Y-52502380D01*
X138309523Y-52502380D01*
X139166666Y-51835714D02*
X139166666Y-52502380D01*
X138928571Y-51454761D02*
X138690476Y-52169047D01*
X139309523Y-52169047D01*
X170657142Y-76152380D02*
X170323809Y-75676190D01*
X170085714Y-76152380D02*
X170085714Y-75152380D01*
X170466666Y-75152380D01*
X170561904Y-75200000D01*
X170609523Y-75247619D01*
X170657142Y-75342857D01*
X170657142Y-75485714D01*
X170609523Y-75580952D01*
X170561904Y-75628571D01*
X170466666Y-75676190D01*
X170085714Y-75676190D01*
X171038095Y-75247619D02*
X171085714Y-75200000D01*
X171180952Y-75152380D01*
X171419047Y-75152380D01*
X171514285Y-75200000D01*
X171561904Y-75247619D01*
X171609523Y-75342857D01*
X171609523Y-75438095D01*
X171561904Y-75580952D01*
X170990476Y-76152380D01*
X171609523Y-76152380D01*
X172514285Y-75152380D02*
X172038095Y-75152380D01*
X171990476Y-75628571D01*
X172038095Y-75580952D01*
X172133333Y-75533333D01*
X172371428Y-75533333D01*
X172466666Y-75580952D01*
X172514285Y-75628571D01*
X172561904Y-75723809D01*
X172561904Y-75961904D01*
X172514285Y-76057142D01*
X172466666Y-76104761D01*
X172371428Y-76152380D01*
X172133333Y-76152380D01*
X172038095Y-76104761D01*
X171990476Y-76057142D01*
X159152380Y-81942857D02*
X158676190Y-82276190D01*
X159152380Y-82514285D02*
X158152380Y-82514285D01*
X158152380Y-82133333D01*
X158200000Y-82038095D01*
X158247619Y-81990476D01*
X158342857Y-81942857D01*
X158485714Y-81942857D01*
X158580952Y-81990476D01*
X158628571Y-82038095D01*
X158676190Y-82133333D01*
X158676190Y-82514285D01*
X158247619Y-81561904D02*
X158200000Y-81514285D01*
X158152380Y-81419047D01*
X158152380Y-81180952D01*
X158200000Y-81085714D01*
X158247619Y-81038095D01*
X158342857Y-80990476D01*
X158438095Y-80990476D01*
X158580952Y-81038095D01*
X159152380Y-81609523D01*
X159152380Y-80990476D01*
X158152380Y-80133333D02*
X158152380Y-80323809D01*
X158200000Y-80419047D01*
X158247619Y-80466666D01*
X158390476Y-80561904D01*
X158580952Y-80609523D01*
X158961904Y-80609523D01*
X159057142Y-80561904D01*
X159104761Y-80514285D01*
X159152380Y-80419047D01*
X159152380Y-80228571D01*
X159104761Y-80133333D01*
X159057142Y-80085714D01*
X158961904Y-80038095D01*
X158723809Y-80038095D01*
X158628571Y-80085714D01*
X158580952Y-80133333D01*
X158533333Y-80228571D01*
X158533333Y-80419047D01*
X158580952Y-80514285D01*
X158628571Y-80561904D01*
X158723809Y-80609523D01*
X125357142Y-78052380D02*
X125023809Y-77576190D01*
X124785714Y-78052380D02*
X124785714Y-77052380D01*
X125166666Y-77052380D01*
X125261904Y-77100000D01*
X125309523Y-77147619D01*
X125357142Y-77242857D01*
X125357142Y-77385714D01*
X125309523Y-77480952D01*
X125261904Y-77528571D01*
X125166666Y-77576190D01*
X124785714Y-77576190D01*
X125738095Y-77147619D02*
X125785714Y-77100000D01*
X125880952Y-77052380D01*
X126119047Y-77052380D01*
X126214285Y-77100000D01*
X126261904Y-77147619D01*
X126309523Y-77242857D01*
X126309523Y-77338095D01*
X126261904Y-77480952D01*
X125690476Y-78052380D01*
X126309523Y-78052380D01*
X126642857Y-77052380D02*
X127309523Y-77052380D01*
X126880952Y-78052380D01*
X162152380Y-81892857D02*
X161676190Y-82226190D01*
X162152380Y-82464285D02*
X161152380Y-82464285D01*
X161152380Y-82083333D01*
X161200000Y-81988095D01*
X161247619Y-81940476D01*
X161342857Y-81892857D01*
X161485714Y-81892857D01*
X161580952Y-81940476D01*
X161628571Y-81988095D01*
X161676190Y-82083333D01*
X161676190Y-82464285D01*
X161247619Y-81511904D02*
X161200000Y-81464285D01*
X161152380Y-81369047D01*
X161152380Y-81130952D01*
X161200000Y-81035714D01*
X161247619Y-80988095D01*
X161342857Y-80940476D01*
X161438095Y-80940476D01*
X161580952Y-80988095D01*
X162152380Y-81559523D01*
X162152380Y-80940476D01*
X161580952Y-80369047D02*
X161533333Y-80464285D01*
X161485714Y-80511904D01*
X161390476Y-80559523D01*
X161342857Y-80559523D01*
X161247619Y-80511904D01*
X161200000Y-80464285D01*
X161152380Y-80369047D01*
X161152380Y-80178571D01*
X161200000Y-80083333D01*
X161247619Y-80035714D01*
X161342857Y-79988095D01*
X161390476Y-79988095D01*
X161485714Y-80035714D01*
X161533333Y-80083333D01*
X161580952Y-80178571D01*
X161580952Y-80369047D01*
X161628571Y-80464285D01*
X161676190Y-80511904D01*
X161771428Y-80559523D01*
X161961904Y-80559523D01*
X162057142Y-80511904D01*
X162104761Y-80464285D01*
X162152380Y-80369047D01*
X162152380Y-80178571D01*
X162104761Y-80083333D01*
X162057142Y-80035714D01*
X161961904Y-79988095D01*
X161771428Y-79988095D01*
X161676190Y-80035714D01*
X161628571Y-80083333D01*
X161580952Y-80178571D01*
X118857142Y-77452380D02*
X118523809Y-76976190D01*
X118285714Y-77452380D02*
X118285714Y-76452380D01*
X118666666Y-76452380D01*
X118761904Y-76500000D01*
X118809523Y-76547619D01*
X118857142Y-76642857D01*
X118857142Y-76785714D01*
X118809523Y-76880952D01*
X118761904Y-76928571D01*
X118666666Y-76976190D01*
X118285714Y-76976190D01*
X119238095Y-76547619D02*
X119285714Y-76500000D01*
X119380952Y-76452380D01*
X119619047Y-76452380D01*
X119714285Y-76500000D01*
X119761904Y-76547619D01*
X119809523Y-76642857D01*
X119809523Y-76738095D01*
X119761904Y-76880952D01*
X119190476Y-77452380D01*
X119809523Y-77452380D01*
X120285714Y-77452380D02*
X120476190Y-77452380D01*
X120571428Y-77404761D01*
X120619047Y-77357142D01*
X120714285Y-77214285D01*
X120761904Y-77023809D01*
X120761904Y-76642857D01*
X120714285Y-76547619D01*
X120666666Y-76500000D01*
X120571428Y-76452380D01*
X120380952Y-76452380D01*
X120285714Y-76500000D01*
X120238095Y-76547619D01*
X120190476Y-76642857D01*
X120190476Y-76880952D01*
X120238095Y-76976190D01*
X120285714Y-77023809D01*
X120380952Y-77071428D01*
X120571428Y-77071428D01*
X120666666Y-77023809D01*
X120714285Y-76976190D01*
X120761904Y-76880952D01*
X119257142Y-48452380D02*
X118923809Y-47976190D01*
X118685714Y-48452380D02*
X118685714Y-47452380D01*
X119066666Y-47452380D01*
X119161904Y-47500000D01*
X119209523Y-47547619D01*
X119257142Y-47642857D01*
X119257142Y-47785714D01*
X119209523Y-47880952D01*
X119161904Y-47928571D01*
X119066666Y-47976190D01*
X118685714Y-47976190D01*
X119590476Y-47452380D02*
X120209523Y-47452380D01*
X119876190Y-47833333D01*
X120019047Y-47833333D01*
X120114285Y-47880952D01*
X120161904Y-47928571D01*
X120209523Y-48023809D01*
X120209523Y-48261904D01*
X120161904Y-48357142D01*
X120114285Y-48404761D01*
X120019047Y-48452380D01*
X119733333Y-48452380D01*
X119638095Y-48404761D01*
X119590476Y-48357142D01*
X120828571Y-47452380D02*
X120923809Y-47452380D01*
X121019047Y-47500000D01*
X121066666Y-47547619D01*
X121114285Y-47642857D01*
X121161904Y-47833333D01*
X121161904Y-48071428D01*
X121114285Y-48261904D01*
X121066666Y-48357142D01*
X121019047Y-48404761D01*
X120923809Y-48452380D01*
X120828571Y-48452380D01*
X120733333Y-48404761D01*
X120685714Y-48357142D01*
X120638095Y-48261904D01*
X120590476Y-48071428D01*
X120590476Y-47833333D01*
X120638095Y-47642857D01*
X120685714Y-47547619D01*
X120733333Y-47500000D01*
X120828571Y-47452380D01*
X163452380Y-41142857D02*
X162976190Y-41476190D01*
X163452380Y-41714285D02*
X162452380Y-41714285D01*
X162452380Y-41333333D01*
X162500000Y-41238095D01*
X162547619Y-41190476D01*
X162642857Y-41142857D01*
X162785714Y-41142857D01*
X162880952Y-41190476D01*
X162928571Y-41238095D01*
X162976190Y-41333333D01*
X162976190Y-41714285D01*
X162452380Y-40809523D02*
X162452380Y-40190476D01*
X162833333Y-40523809D01*
X162833333Y-40380952D01*
X162880952Y-40285714D01*
X162928571Y-40238095D01*
X163023809Y-40190476D01*
X163261904Y-40190476D01*
X163357142Y-40238095D01*
X163404761Y-40285714D01*
X163452380Y-40380952D01*
X163452380Y-40666666D01*
X163404761Y-40761904D01*
X163357142Y-40809523D01*
X163452380Y-39238095D02*
X163452380Y-39809523D01*
X163452380Y-39523809D02*
X162452380Y-39523809D01*
X162595238Y-39619047D01*
X162690476Y-39714285D01*
X162738095Y-39809523D01*
X162857142Y-79002380D02*
X162523809Y-78526190D01*
X162285714Y-79002380D02*
X162285714Y-78002380D01*
X162666666Y-78002380D01*
X162761904Y-78050000D01*
X162809523Y-78097619D01*
X162857142Y-78192857D01*
X162857142Y-78335714D01*
X162809523Y-78430952D01*
X162761904Y-78478571D01*
X162666666Y-78526190D01*
X162285714Y-78526190D01*
X163190476Y-78002380D02*
X163809523Y-78002380D01*
X163476190Y-78383333D01*
X163619047Y-78383333D01*
X163714285Y-78430952D01*
X163761904Y-78478571D01*
X163809523Y-78573809D01*
X163809523Y-78811904D01*
X163761904Y-78907142D01*
X163714285Y-78954761D01*
X163619047Y-79002380D01*
X163333333Y-79002380D01*
X163238095Y-78954761D01*
X163190476Y-78907142D01*
X164190476Y-78097619D02*
X164238095Y-78050000D01*
X164333333Y-78002380D01*
X164571428Y-78002380D01*
X164666666Y-78050000D01*
X164714285Y-78097619D01*
X164761904Y-78192857D01*
X164761904Y-78288095D01*
X164714285Y-78430952D01*
X164142857Y-79002380D01*
X164761904Y-79002380D01*
X168557142Y-71152380D02*
X168223809Y-70676190D01*
X167985714Y-71152380D02*
X167985714Y-70152380D01*
X168366666Y-70152380D01*
X168461904Y-70200000D01*
X168509523Y-70247619D01*
X168557142Y-70342857D01*
X168557142Y-70485714D01*
X168509523Y-70580952D01*
X168461904Y-70628571D01*
X168366666Y-70676190D01*
X167985714Y-70676190D01*
X168890476Y-70152380D02*
X169509523Y-70152380D01*
X169176190Y-70533333D01*
X169319047Y-70533333D01*
X169414285Y-70580952D01*
X169461904Y-70628571D01*
X169509523Y-70723809D01*
X169509523Y-70961904D01*
X169461904Y-71057142D01*
X169414285Y-71104761D01*
X169319047Y-71152380D01*
X169033333Y-71152380D01*
X168938095Y-71104761D01*
X168890476Y-71057142D01*
X170366666Y-70152380D02*
X170176190Y-70152380D01*
X170080952Y-70200000D01*
X170033333Y-70247619D01*
X169938095Y-70390476D01*
X169890476Y-70580952D01*
X169890476Y-70961904D01*
X169938095Y-71057142D01*
X169985714Y-71104761D01*
X170080952Y-71152380D01*
X170271428Y-71152380D01*
X170366666Y-71104761D01*
X170414285Y-71057142D01*
X170461904Y-70961904D01*
X170461904Y-70723809D01*
X170414285Y-70628571D01*
X170366666Y-70580952D01*
X170271428Y-70533333D01*
X170080952Y-70533333D01*
X169985714Y-70580952D01*
X169938095Y-70628571D01*
X169890476Y-70723809D01*
X166557142Y-76252380D02*
X166223809Y-75776190D01*
X165985714Y-76252380D02*
X165985714Y-75252380D01*
X166366666Y-75252380D01*
X166461904Y-75300000D01*
X166509523Y-75347619D01*
X166557142Y-75442857D01*
X166557142Y-75585714D01*
X166509523Y-75680952D01*
X166461904Y-75728571D01*
X166366666Y-75776190D01*
X165985714Y-75776190D01*
X166890476Y-75252380D02*
X167509523Y-75252380D01*
X167176190Y-75633333D01*
X167319047Y-75633333D01*
X167414285Y-75680952D01*
X167461904Y-75728571D01*
X167509523Y-75823809D01*
X167509523Y-76061904D01*
X167461904Y-76157142D01*
X167414285Y-76204761D01*
X167319047Y-76252380D01*
X167033333Y-76252380D01*
X166938095Y-76204761D01*
X166890476Y-76157142D01*
X167842857Y-75252380D02*
X168509523Y-75252380D01*
X168080952Y-76252380D01*
X137738095Y-47452380D02*
X137738095Y-48261904D01*
X137785714Y-48357142D01*
X137833333Y-48404761D01*
X137928571Y-48452380D01*
X138119047Y-48452380D01*
X138214285Y-48404761D01*
X138261904Y-48357142D01*
X138309523Y-48261904D01*
X138309523Y-47452380D01*
X139309523Y-48452380D02*
X138738095Y-48452380D01*
X139023809Y-48452380D02*
X139023809Y-47452380D01*
X138928571Y-47595238D01*
X138833333Y-47690476D01*
X138738095Y-47738095D01*
X161952380Y-52261904D02*
X162761904Y-52261904D01*
X162857142Y-52214285D01*
X162904761Y-52166666D01*
X162952380Y-52071428D01*
X162952380Y-51880952D01*
X162904761Y-51785714D01*
X162857142Y-51738095D01*
X162761904Y-51690476D01*
X161952380Y-51690476D01*
X161952380Y-51309523D02*
X161952380Y-50690476D01*
X162333333Y-51023809D01*
X162333333Y-50880952D01*
X162380952Y-50785714D01*
X162428571Y-50738095D01*
X162523809Y-50690476D01*
X162761904Y-50690476D01*
X162857142Y-50738095D01*
X162904761Y-50785714D01*
X162952380Y-50880952D01*
X162952380Y-51166666D01*
X162904761Y-51261904D01*
X162857142Y-51309523D01*
X145138095Y-50252380D02*
X145138095Y-51061904D01*
X145185714Y-51157142D01*
X145233333Y-51204761D01*
X145328571Y-51252380D01*
X145519047Y-51252380D01*
X145614285Y-51204761D01*
X145661904Y-51157142D01*
X145709523Y-51061904D01*
X145709523Y-50252380D01*
X146614285Y-50585714D02*
X146614285Y-51252380D01*
X146376190Y-50204761D02*
X146138095Y-50919047D01*
X146757142Y-50919047D01*
X135138095Y-77152380D02*
X135138095Y-77961904D01*
X135185714Y-78057142D01*
X135233333Y-78104761D01*
X135328571Y-78152380D01*
X135519047Y-78152380D01*
X135614285Y-78104761D01*
X135661904Y-78057142D01*
X135709523Y-77961904D01*
X135709523Y-77152380D01*
X136661904Y-77152380D02*
X136185714Y-77152380D01*
X136138095Y-77628571D01*
X136185714Y-77580952D01*
X136280952Y-77533333D01*
X136519047Y-77533333D01*
X136614285Y-77580952D01*
X136661904Y-77628571D01*
X136709523Y-77723809D01*
X136709523Y-77961904D01*
X136661904Y-78057142D01*
X136614285Y-78104761D01*
X136519047Y-78152380D01*
X136280952Y-78152380D01*
X136185714Y-78104761D01*
X136138095Y-78057142D01*
X146538095Y-65952380D02*
X146538095Y-66761904D01*
X146585714Y-66857142D01*
X146633333Y-66904761D01*
X146728571Y-66952380D01*
X146919047Y-66952380D01*
X147014285Y-66904761D01*
X147061904Y-66857142D01*
X147109523Y-66761904D01*
X147109523Y-65952380D01*
X148014285Y-65952380D02*
X147823809Y-65952380D01*
X147728571Y-66000000D01*
X147680952Y-66047619D01*
X147585714Y-66190476D01*
X147538095Y-66380952D01*
X147538095Y-66761904D01*
X147585714Y-66857142D01*
X147633333Y-66904761D01*
X147728571Y-66952380D01*
X147919047Y-66952380D01*
X148014285Y-66904761D01*
X148061904Y-66857142D01*
X148109523Y-66761904D01*
X148109523Y-66523809D01*
X148061904Y-66428571D01*
X148014285Y-66380952D01*
X147919047Y-66333333D01*
X147728571Y-66333333D01*
X147633333Y-66380952D01*
X147585714Y-66428571D01*
X147538095Y-66523809D01*
M02*
