G04 #@! TF.GenerationSoftware,KiCad,Pcbnew,(5.1.0-0)*
G04 #@! TF.CreationDate,2019-09-18T13:26:03-04:00*
G04 #@! TF.ProjectId,openlst-hw,6f70656e-6c73-4742-9d68-772e6b696361,1*
G04 #@! TF.SameCoordinates,Original*
G04 #@! TF.FileFunction,Soldermask,Bot*
G04 #@! TF.FilePolarity,Negative*
%FSLAX46Y46*%
G04 Gerber Fmt 4.6, Leading zero omitted, Abs format (unit mm)*
G04 Created by KiCad (PCBNEW (5.1.0-0)) date 2019-09-18 13:26:03*
%MOMM*%
%LPD*%
G04 APERTURE LIST*
%ADD10R,1.801600X1.801600*%
%ADD11O,1.801600X1.801600*%
%ADD12C,0.711200*%
%ADD13C,0.660400*%
%ADD14R,5.181600X2.521600*%
%ADD15C,6.501600*%
%ADD16C,0.901600*%
G04 APERTURE END LIST*
D10*
X117000000Y-60500000D03*
D11*
X117000000Y-63040000D03*
X117000000Y-65580000D03*
X117000000Y-68120000D03*
X117000000Y-70660000D03*
X117000000Y-73200000D03*
D12*
X131500000Y-70500000D03*
X133000000Y-70500000D03*
X133000000Y-67500000D03*
X131500000Y-67500000D03*
X130000000Y-67500000D03*
X130000000Y-70500000D03*
X133000000Y-69000000D03*
X131500000Y-69000000D03*
X130000000Y-69000000D03*
D13*
X158750000Y-69750000D03*
X158750000Y-68250000D03*
X157250000Y-68250000D03*
X155750000Y-68250000D03*
X158750000Y-66750000D03*
X157250000Y-66750000D03*
X155750000Y-66750000D03*
X155750000Y-69750000D03*
X157250000Y-69750000D03*
D10*
X117000000Y-51500000D03*
D11*
X117000000Y-54040000D03*
D10*
X124500000Y-85000000D03*
D11*
X127040000Y-85000000D03*
X129580000Y-85000000D03*
X132120000Y-85000000D03*
X134660000Y-85000000D03*
X137200000Y-85000000D03*
D10*
X141500000Y-85000000D03*
D11*
X144040000Y-85000000D03*
X146580000Y-85000000D03*
D14*
X170720000Y-67880000D03*
X170720000Y-59120000D03*
D15*
X118500000Y-83500000D03*
D16*
X120900000Y-83500000D03*
X120197056Y-85197056D03*
X118500000Y-85900000D03*
X116802944Y-85197056D03*
X116100000Y-83500000D03*
X116802944Y-81802944D03*
X118500000Y-81100000D03*
X120197056Y-81802944D03*
D15*
X118500000Y-43500000D03*
D16*
X120900000Y-43500000D03*
X120197056Y-45197056D03*
X118500000Y-45900000D03*
X116802944Y-45197056D03*
X116100000Y-43500000D03*
X116802944Y-41802944D03*
X118500000Y-41100000D03*
X120197056Y-41802944D03*
D15*
X168500000Y-43500000D03*
D16*
X170900000Y-43500000D03*
X170197056Y-45197056D03*
X168500000Y-45900000D03*
X166802944Y-45197056D03*
X166100000Y-43500000D03*
X166802944Y-41802944D03*
X168500000Y-41100000D03*
X170197056Y-41802944D03*
D15*
X168500000Y-83500000D03*
D16*
X170900000Y-83500000D03*
X170197056Y-85197056D03*
X168500000Y-85900000D03*
X166802944Y-85197056D03*
X166100000Y-83500000D03*
X166802944Y-81802944D03*
X168500000Y-81100000D03*
X170197056Y-81802944D03*
M02*
